<svg width="59" height="58" viewBox="0 0 59 58" fill="none" xmlns="http://www.w3.org/2000/svg">
<g clip-path="url(#clip0_44_245)">
<rect x="0.333252" width="58" height="58" rx="29" fill="white"/>
<mask id="path-3-inside-1_44_245" fill="white">
<path d="M29.3328 58C28.6715 58 28.0131 57.9777 27.3742 57.9349C26.7157 57.8912 26.0545 57.8242 25.41 57.7359C25.1264 57.6977 24.8697 57.6596 24.6251 57.6196C23.8987 57.5015 23.1594 57.3518 22.4275 57.1732C22.1764 57.1127 21.9318 57.0495 21.6993 56.9844C21.6174 56.963 21.5337 56.9398 21.451 56.9165C21.0976 56.817 20.7553 56.7138 20.4354 56.6096C20.4149 56.604 20.3908 56.5956 20.3666 56.5882C20.0783 56.4952 19.7769 56.392 19.4719 56.2813C19.2143 56.1883 18.9539 56.0897 18.6758 55.9799C17.7681 55.6219 16.8642 55.2099 15.989 54.756C11.3464 52.3454 7.43387 48.7191 4.67174 44.2689C1.83429 39.6913 0.333252 34.4114 0.333252 28.9995C0.333252 21.2532 3.3502 13.9701 8.82702 8.49311C14.3038 3.01612 21.5867 0 29.3328 0C37.0788 0 44.3617 3.01612 49.8395 8.49311C55.3172 13.9701 58.3332 21.2532 58.3332 28.9995C58.3332 33.5511 57.3084 37.9084 55.2884 41.9494C53.3614 45.8035 50.5407 49.2437 47.1294 51.8971C45.5028 53.1629 43.7414 54.2566 41.8916 55.1457C41.6824 55.2471 41.4582 55.3503 41.1885 55.4722L41.1588 55.4852C41.1262 55.5001 41.0946 55.514 41.0621 55.528C40.8593 55.6182 40.6529 55.7065 40.4492 55.7902L40.3571 55.8293C40.3022 55.8525 40.2474 55.8749 40.1916 55.8963C39.4438 56.1985 38.6766 56.4729 37.9093 56.7082C37.3402 56.8849 36.744 57.0486 36.1367 57.1946C33.9242 57.7284 31.6346 58 29.3328 58ZM29.3328 0.188798C21.636 0.188798 14.4006 3.18538 8.95908 8.62797C3.51667 14.0668 0.519254 21.3025 0.519254 28.9995C0.519254 34.377 2.01099 39.6224 4.8317 44.1694C7.57523 48.5908 11.4636 52.1947 16.0764 54.5895C16.946 55.0406 17.8444 55.4498 18.7465 55.806C19.0227 55.9158 19.2813 56.0134 19.537 56.1055C19.8411 56.2153 20.1396 56.3176 20.427 56.4106C20.4493 56.418 20.4707 56.4245 20.4921 56.431C20.812 56.5352 21.1515 56.6375 21.503 56.737C21.5849 56.7603 21.6667 56.7835 21.7486 56.8049C21.9801 56.8691 22.2229 56.9323 22.4721 56.9928C23.1994 57.1704 23.9332 57.3192 24.6558 57.4364C24.8985 57.4764 25.1533 57.5145 25.4351 57.5527C26.075 57.6401 26.7316 57.707 27.3863 57.7498C28.0205 57.7926 28.6753 57.8149 29.3319 57.8149C31.6187 57.8149 33.8936 57.5461 36.093 57.016C36.6966 56.8709 37.289 56.7082 37.8545 56.5333C38.6161 56.299 39.3797 56.0274 40.1227 55.7261C40.1786 55.7047 40.2316 55.6823 40.2846 55.66L40.3943 55.6135C40.5905 55.5326 40.7896 55.447 40.9867 55.3596C41.0202 55.3457 41.0509 55.3317 41.0816 55.3178L41.1113 55.3047C41.3792 55.1838 41.6015 55.0806 41.8098 54.9802C43.6475 54.0966 45.3987 53.0103 47.0141 51.752C50.4031 49.1144 53.2061 45.6965 55.121 41.8675C57.128 37.8526 58.1463 33.5232 58.1463 29.0005C58.1463 21.3035 55.1489 14.0678 49.7065 8.62611C44.2659 3.18259 37.0295 0.186008 29.3328 0.186008V0.188798Z"/>
</mask>
<path d="M29.3328 58C28.6715 58 28.0131 57.9777 27.3742 57.9349C26.7157 57.8912 26.0545 57.8242 25.41 57.7359C25.1264 57.6977 24.8697 57.6596 24.6251 57.6196C23.8987 57.5015 23.1594 57.3518 22.4275 57.1732C22.1764 57.1127 21.9318 57.0495 21.6993 56.9844C21.6174 56.963 21.5337 56.9398 21.451 56.9165C21.0976 56.817 20.7553 56.7138 20.4354 56.6096C20.4149 56.604 20.3908 56.5956 20.3666 56.5882C20.0783 56.4952 19.7769 56.392 19.4719 56.2813C19.2143 56.1883 18.9539 56.0897 18.6758 55.9799C17.7681 55.6219 16.8642 55.2099 15.989 54.756C11.3464 52.3454 7.43387 48.7191 4.67174 44.2689C1.83429 39.6913 0.333252 34.4114 0.333252 28.9995C0.333252 21.2532 3.3502 13.9701 8.82702 8.49311C14.3038 3.01612 21.5867 0 29.3328 0C37.0788 0 44.3617 3.01612 49.8395 8.49311C55.3172 13.9701 58.3332 21.2532 58.3332 28.9995C58.3332 33.5511 57.3084 37.9084 55.2884 41.9494C53.3614 45.8035 50.5407 49.2437 47.1294 51.8971C45.5028 53.1629 43.7414 54.2566 41.8916 55.1457C41.6824 55.2471 41.4582 55.3503 41.1885 55.4722L41.1588 55.4852C41.1262 55.5001 41.0946 55.514 41.0621 55.528C40.8593 55.6182 40.6529 55.7065 40.4492 55.7902L40.3571 55.8293C40.3022 55.8525 40.2474 55.8749 40.1916 55.8963C39.4438 56.1985 38.6766 56.4729 37.9093 56.7082C37.3402 56.8849 36.744 57.0486 36.1367 57.1946C33.9242 57.7284 31.6346 58 29.3328 58ZM29.3328 0.188798C21.636 0.188798 14.4006 3.18538 8.95908 8.62797C3.51667 14.0668 0.519254 21.3025 0.519254 28.9995C0.519254 34.377 2.01099 39.6224 4.8317 44.1694C7.57523 48.5908 11.4636 52.1947 16.0764 54.5895C16.946 55.0406 17.8444 55.4498 18.7465 55.806C19.0227 55.9158 19.2813 56.0134 19.537 56.1055C19.8411 56.2153 20.1396 56.3176 20.427 56.4106C20.4493 56.418 20.4707 56.4245 20.4921 56.431C20.812 56.5352 21.1515 56.6375 21.503 56.737C21.5849 56.7603 21.6667 56.7835 21.7486 56.8049C21.9801 56.8691 22.2229 56.9323 22.4721 56.9928C23.1994 57.1704 23.9332 57.3192 24.6558 57.4364C24.8985 57.4764 25.1533 57.5145 25.4351 57.5527C26.075 57.6401 26.7316 57.707 27.3863 57.7498C28.0205 57.7926 28.6753 57.8149 29.3319 57.8149C31.6187 57.8149 33.8936 57.5461 36.093 57.016C36.6966 56.8709 37.289 56.7082 37.8545 56.5333C38.6161 56.299 39.3797 56.0274 40.1227 55.7261C40.1786 55.7047 40.2316 55.6823 40.2846 55.66L40.3943 55.6135C40.5905 55.5326 40.7896 55.447 40.9867 55.3596C41.0202 55.3457 41.0509 55.3317 41.0816 55.3178L41.1113 55.3047C41.3792 55.1838 41.6015 55.0806 41.8098 54.9802C43.6475 54.0966 45.3987 53.0103 47.0141 51.752C50.4031 49.1144 53.2061 45.6965 55.121 41.8675C57.128 37.8526 58.1463 33.5232 58.1463 29.0005C58.1463 21.3035 55.1489 14.0678 49.7065 8.62611C44.2659 3.18259 37.0295 0.186008 29.3328 0.186008V0.188798Z" fill="#DDDEDF"/>
<path d="M27.3742 57.9349L28.0423 47.9572L28.0366 47.9569L27.3742 57.9349ZM25.41 57.7359L26.7682 47.8285L26.7553 47.8268L26.7423 47.825L25.41 57.7359ZM24.6251 57.6196L26.2387 47.7507L26.2302 47.7493L24.6251 57.6196ZM22.4275 57.1732L24.7977 47.4581L24.7829 47.4545L24.7681 47.451L22.4275 57.1732ZM21.6993 56.9844L24.3957 47.3548L24.312 47.3314L24.228 47.3094L21.6993 56.9844ZM21.451 56.9165L18.7405 66.5422L18.7466 66.5439L21.451 56.9165ZM20.4354 56.6096L23.5313 47.1009L23.3007 47.0258L23.0666 46.962L20.4354 56.6096ZM20.3666 56.5882L17.2965 66.1053L17.3609 66.1261L17.4256 66.146L20.3666 56.5882ZM19.4719 56.2813L22.8825 46.8809L22.8751 46.8782L22.8676 46.8755L19.4719 56.2813ZM18.6758 55.9799L22.3469 46.6782L22.3454 46.6776L18.6758 55.9799ZM15.989 54.756L11.3807 63.6309L11.3852 63.6332L15.989 54.756ZM4.67174 44.2689L-3.82786 49.5374L-3.82473 49.5424L4.67174 44.2689ZM55.2884 41.9494L64.2327 46.4214L64.2331 46.4206L55.2884 41.9494ZM47.1294 51.8971L40.9898 44.0038L40.988 44.0051L47.1294 51.8971ZM41.8916 55.1457L37.5595 46.1328L37.5456 46.1395L37.5317 46.1462L41.8916 55.1457ZM41.1885 55.4722L45.1972 64.6335L45.2514 64.6098L45.3054 64.5854L41.1885 55.4722ZM41.1588 55.4852L37.1501 46.3238L37.0753 46.3565L37.0011 46.3905L41.1588 55.4852ZM41.0621 55.528L37.1228 46.3366L37.0595 46.3637L36.9967 46.3916L41.0621 55.528ZM40.4492 55.7902L36.648 46.5409L36.5958 46.5623L36.5439 46.5843L40.4492 55.7902ZM40.3571 55.8293L44.2587 65.0368L44.2624 65.0352L40.3571 55.8293ZM40.1916 55.8963L36.6121 46.5588L36.5276 46.5912L36.4438 46.6251L40.1916 55.8963ZM37.9093 56.7082L34.9773 47.1477L34.9608 47.1527L34.9443 47.1579L37.9093 56.7082ZM36.1367 57.1946L33.799 47.4717L33.7912 47.4736L36.1367 57.1946ZM29.3328 0.188798V10.1888H39.3328V0.188798H29.3328ZM8.95908 8.62797L16.0278 15.7013L16.0309 15.6983L8.95908 8.62797ZM4.8317 44.1694L-3.66598 49.441L-3.66538 49.4419L4.8317 44.1694ZM16.0764 54.5895L11.4687 63.4647L11.4718 63.4663L16.0764 54.5895ZM18.7465 55.806L22.4389 46.5127L22.429 46.5088L22.4191 46.5049L18.7465 55.806ZM19.537 56.1055L22.9314 46.6992L22.9243 46.6967L19.537 56.1055ZM20.427 56.4106L23.5894 46.9238L23.5478 46.9099L23.5061 46.8964L20.427 56.4106ZM20.4921 56.431L23.5881 46.9223L23.4962 46.8924L23.4038 46.8643L20.4921 56.431ZM21.503 56.737L24.2359 47.1177L24.2268 47.1151L21.503 56.737ZM21.7486 56.8049L24.4191 47.1681L24.3484 47.1485L24.2773 47.1299L21.7486 56.8049ZM22.4721 56.9928L24.8449 47.2783L24.8371 47.2764L24.8292 47.2745L22.4721 56.9928ZM24.6558 57.4364L26.2814 47.5694L26.269 47.5674L26.2565 47.5653L24.6558 57.4364ZM25.4351 57.5527L26.7889 47.6447L26.7761 47.643L25.4351 57.5527ZM27.3863 57.7498L28.0593 47.7725L28.0488 47.7718L28.0383 47.7711L27.3863 57.7498ZM36.093 57.016L33.7558 47.293L33.7499 47.2944L36.093 57.016ZM37.8545 56.5333L34.9135 46.9756L34.9003 46.9796L37.8545 56.5333ZM40.1227 55.7261L36.5433 46.3886L36.4537 46.423L36.3648 46.459L40.1227 55.7261ZM40.2846 55.66L44.1652 64.8763L44.1757 64.8719L44.1862 64.8675L40.2846 55.66ZM40.3943 55.6135L36.5823 46.3686L36.5374 46.3871L36.4927 46.4061L40.3943 55.6135ZM40.9867 55.3596L37.1405 46.1289L37.0364 46.1723L36.9332 46.218L40.9867 55.3596ZM41.0816 55.3178L37.074 46.1559L37.0085 46.1846L36.9434 46.2142L41.0816 55.3178ZM41.1113 55.3047L45.1189 64.4666L45.1724 64.4432L45.2256 64.4192L41.1113 55.3047ZM41.8098 54.9802L37.4767 45.9677L37.4667 45.9725L41.8098 54.9802ZM47.0141 51.752L40.8722 43.8604L40.8689 43.863L47.0141 51.752ZM55.121 41.8675L64.0649 46.3404L64.0657 46.3387L55.121 41.8675ZM49.7065 8.62611L42.6335 15.6952L42.6359 15.6977L49.7065 8.62611ZM29.3328 0.186008V-9.81399H19.3328V0.186008H29.3328ZM29.3328 48C28.8939 48 28.4583 47.9851 28.0423 47.9572L26.7061 67.9126C27.5679 67.9703 28.4492 68 29.3328 68V48ZM28.0366 47.9569C27.6069 47.9283 27.1778 47.8847 26.7682 47.8285L24.0518 67.6432C24.9312 67.7638 25.8246 67.854 26.7118 67.9129L28.0366 47.9569ZM26.7423 47.825C26.5431 47.7982 26.3807 47.7739 26.2387 47.7507L23.0115 67.4886C23.3587 67.5453 23.7097 67.5972 24.0777 67.6467L26.7423 47.825ZM26.2302 47.7493C25.7609 47.673 25.2768 47.575 24.7977 47.4581L20.0573 66.8882C21.042 67.1285 22.0366 67.33 23.02 67.49L26.2302 47.7493ZM24.7681 47.451C24.6211 47.4156 24.4961 47.3829 24.3957 47.3548L19.0029 66.614C19.3674 66.7161 19.7317 66.8099 20.0869 66.8954L24.7681 47.451ZM24.228 47.3094C24.237 47.3118 24.2367 47.3117 24.2231 47.308C24.2091 47.3042 24.1889 47.2986 24.1554 47.2891L18.7466 66.5439C18.8393 66.5699 18.9959 66.6137 19.1705 66.6594L24.228 47.3094ZM24.1614 47.2908C23.9204 47.223 23.7079 47.1584 23.5313 47.1009L17.3394 66.1183C17.8027 66.2691 18.2747 66.411 18.7405 66.5422L24.1614 47.2908ZM23.0666 46.962C23.1866 46.9947 23.282 47.0232 23.3387 47.0405C23.3956 47.0579 23.4386 47.0717 23.4497 47.0752C23.456 47.0772 23.4607 47.0787 23.4571 47.0776C23.4559 47.0772 23.4461 47.074 23.4355 47.0706C23.4142 47.0638 23.3667 47.0487 23.3075 47.0304L17.4256 66.146C17.3785 66.1315 17.3431 66.1201 17.3338 66.1172C17.3292 66.1157 17.3253 66.1144 17.3301 66.116C17.3324 66.1167 17.343 66.1201 17.3551 66.124C17.3778 66.1313 17.4321 66.1486 17.5001 66.1693C17.5679 66.19 17.674 66.2217 17.8041 66.2572L23.0666 46.962ZM23.4367 47.0711C23.2666 47.0163 23.0788 46.9521 22.8825 46.8809L16.0613 65.6817C16.4751 65.8318 16.89 65.9741 17.2965 66.1053L23.4367 47.0711ZM22.8676 46.8755C22.7108 46.8189 22.5425 46.7554 22.3469 46.6782L15.0048 65.2817C15.3653 65.424 15.7178 65.5577 16.0762 65.6871L22.8676 46.8755ZM22.3454 46.6776C21.7613 46.4472 21.169 46.1776 20.5929 45.8788L11.3852 63.6332C12.5593 64.2422 13.7749 64.7966 15.0062 65.2823L22.3454 46.6776ZM20.5973 45.8811C17.5541 44.3009 14.9836 41.9202 13.1682 38.9954L-3.82473 49.5424C-0.11582 55.5181 5.13875 60.3898 11.3807 63.6309L20.5973 45.8811ZM13.1713 39.0004C11.3188 36.0118 10.3333 32.5578 10.3333 28.9995H-9.66675C-9.66675 36.2651 -7.65024 43.3708 -3.82786 49.5374L13.1713 39.0004ZM10.3333 28.9995C10.3333 23.9054 12.2966 19.1658 15.8982 15.5641L1.75584 1.42216C-5.59622 8.77446 -9.66675 18.6011 -9.66675 28.9995H10.3333ZM15.8982 15.5641C19.4992 11.963 24.2383 10 29.3328 10V-10C18.9352 -10 9.1085 -5.93073 1.75584 1.42216L15.8982 15.5641ZM29.3328 10C34.4271 10 39.1666 11.9629 42.7689 15.5647L56.9101 1.42156C49.5568 -5.93066 39.7305 -10 29.3328 -10V10ZM42.7689 15.5647C46.3703 19.1656 48.3332 23.9047 48.3332 28.9995H68.3333C68.3333 18.6018 64.2641 8.77463 56.9101 1.42156L42.7689 15.5647ZM48.3332 28.9995C48.3332 32.0103 47.6647 34.8355 46.3437 37.4782L64.2331 46.4206C66.9521 40.9812 68.3333 35.092 68.3333 28.9995H48.3332ZM46.3441 37.4774C45.0861 39.9933 43.2247 42.2653 40.9898 44.0038L53.2691 59.7904C57.8567 56.222 61.6367 51.6136 64.2327 46.4214L46.3441 37.4774ZM40.988 44.0051C39.9165 44.839 38.7607 45.5554 37.5595 46.1328L46.2238 64.1586C48.7221 62.9577 51.0892 61.4867 53.2708 59.7891L40.988 44.0051ZM37.5317 46.1462C37.4418 46.1897 37.3121 46.2503 37.0717 46.3589L45.3054 64.5854C45.6044 64.4503 45.9229 64.3044 46.2515 64.1452L37.5317 46.1462ZM37.1799 46.3108L37.1501 46.3238L45.1674 64.6465L45.1972 64.6335L37.1799 46.3108ZM37.0011 46.3905C37.0489 46.3686 37.0907 46.3503 37.1228 46.3366L45.0014 64.7194C45.0986 64.6777 45.2035 64.6315 45.3165 64.5799L37.0011 46.3905ZM36.9967 46.3916C36.8807 46.4432 36.7623 46.4939 36.648 46.5409L44.2504 65.0396C44.5434 64.9192 44.8379 64.7931 45.1274 64.6643L36.9967 46.3916ZM36.5439 46.5843L36.4518 46.6234L44.2624 65.0352L44.3545 64.9961L36.5439 46.5843ZM36.4555 46.6218C36.4886 46.6078 36.5424 46.5856 36.6121 46.5588L43.771 65.2337C43.9524 65.1642 44.1159 65.0973 44.2587 65.0368L36.4555 46.6218ZM36.4438 46.6251C35.9469 46.826 35.4518 47.0022 34.9773 47.1477L40.8413 66.2687C41.9014 65.9436 42.9408 65.571 43.9394 65.1674L36.4438 46.6251ZM34.9443 47.1579C34.5904 47.2677 34.2038 47.3743 33.799 47.4717L38.4745 66.9175C39.2843 66.7228 40.0899 66.502 40.8744 66.2585L34.9443 47.1579ZM33.7912 47.4736C32.3532 47.8205 30.8511 48 29.3328 48V68C32.418 68 35.4952 67.6363 38.4823 66.9156L33.7912 47.4736ZM29.3328 -9.8112C18.9844 -9.8112 9.20483 -5.7614 1.8873 1.55762L16.0309 15.6983C19.5963 12.1322 24.2877 10.1888 29.3328 10.1888V-9.8112ZM1.89032 1.5546C-5.42991 8.87006 -9.48075 18.6507 -9.48075 28.9995H10.5193C10.5193 23.9543 12.4633 19.2636 16.0278 15.7013L1.89032 1.5546ZM-9.48075 28.9995C-9.48075 36.2311 -7.47328 43.3036 -3.66598 49.441L13.3294 38.8978C11.4953 35.9412 10.5193 32.5229 10.5193 28.9995H-9.48075ZM-3.66538 49.4419C0.0251804 55.3895 5.25607 60.2393 11.4687 63.4647L20.6842 45.7144C17.6711 44.1501 15.1253 41.792 13.3288 38.8969L-3.66538 49.4419ZM11.4718 63.4663C12.6423 64.0735 13.8517 64.6246 15.0739 65.1072L22.4191 46.5049C21.8371 46.275 21.2497 46.0077 20.6811 45.7128L11.4718 63.4663ZM15.0541 65.0994C15.4312 65.2492 15.7914 65.3854 16.1497 65.5144L22.9243 46.6967C22.7711 46.6415 22.6142 46.5824 22.4389 46.5127L15.0541 65.0994ZM16.1426 65.5118C16.5445 65.6568 16.9483 65.7954 17.3479 65.9247L23.5061 46.8964C23.331 46.8397 23.1377 46.7737 22.9314 46.6992L16.1426 65.5118ZM17.2647 65.8974C17.4309 65.9528 17.5749 65.9961 17.5804 65.9977L23.4038 46.8643C23.3881 46.8595 23.4099 46.8661 23.437 46.8746C23.4685 46.8844 23.5221 46.9013 23.5894 46.9238L17.2647 65.8974ZM17.3962 65.9397C17.8601 66.0908 18.3258 66.2305 18.7793 66.3589L24.2268 47.1151C23.9772 47.0444 23.764 46.9796 23.5881 46.9223L17.3962 65.9397ZM18.7702 66.3563C18.8339 66.3744 19.0182 66.4272 19.2198 66.4799L24.2773 47.1299C24.3037 47.1368 24.3169 47.1406 24.3083 47.1382C24.3045 47.1371 24.2974 47.1351 24.2849 47.1316C24.2717 47.1278 24.2576 47.1238 24.2359 47.1177L18.7702 66.3563ZM19.078 66.4417C19.4123 66.5344 19.7596 66.6248 20.115 66.711L24.8292 47.2745C24.6862 47.2398 24.5479 47.2038 24.4191 47.1681L19.078 66.4417ZM20.0993 66.7072C21.0795 66.9466 22.0708 67.1478 23.055 67.3074L26.2565 47.5653C25.7955 47.4906 25.3193 47.3942 24.8449 47.2783L20.0993 66.7072ZM23.0301 67.3034C23.3766 67.3605 23.7268 67.4126 24.0942 67.4623L26.7761 47.643C26.5799 47.6164 26.4205 47.5923 26.2814 47.5694L23.0301 67.3034ZM24.0814 67.4606C24.9486 67.5791 25.8393 67.6701 26.7342 67.7285L28.0383 47.7711C27.6238 47.744 27.2013 47.7011 26.7889 47.6447L24.0814 67.4606ZM26.7133 67.7271C27.5725 67.7851 28.4517 67.8149 29.3319 67.8149V47.8149C28.8989 47.8149 28.4686 47.8001 28.0593 47.7725L26.7133 67.7271ZM29.3319 67.8149C32.3994 67.8149 35.461 67.4547 38.4361 66.7376L33.7499 47.2944C32.3261 47.6376 30.8381 47.8149 29.3319 47.8149V67.8149ZM38.4302 66.7391C39.2377 66.545 40.036 66.3259 40.8086 66.087L34.9003 46.9796C34.542 47.0904 34.1555 47.1969 33.7558 47.293L38.4302 66.7391ZM40.7954 66.0911C41.8333 65.7717 42.8695 65.4032 43.8807 64.9931L36.3648 46.459C35.8899 46.6516 35.3989 46.8262 34.9135 46.9756L40.7954 66.0911ZM43.7022 65.0635C43.9334 64.9748 44.1329 64.8899 44.1652 64.8763L36.4039 46.4437C36.389 46.45 36.3854 46.4515 36.3834 46.4523C36.3826 46.4527 36.3895 46.4498 36.4011 46.445C36.4241 46.4355 36.4749 46.4148 36.5433 46.3886L43.7022 65.0635ZM44.1862 64.8675L44.2959 64.821L36.4927 46.4061L36.383 46.4526L44.1862 64.8675ZM44.2063 64.8584C44.4949 64.7395 44.7751 64.6188 45.0402 64.5012L36.9332 46.218C36.804 46.2753 36.6862 46.3257 36.5823 46.3686L44.2063 64.8584ZM44.833 64.5903C45.0349 64.5062 45.2048 64.4282 45.2197 64.4214L36.9434 46.2142C36.9225 46.2237 36.945 46.2134 36.9739 46.2005C37.0082 46.1853 37.0665 46.1597 37.1405 46.1289L44.833 64.5903ZM45.0892 64.4796L45.1189 64.4666L37.1038 46.1429L37.074 46.1559L45.0892 64.4796ZM45.2256 64.4192C45.5487 64.2733 45.8502 64.1338 46.1529 63.9878L37.4667 45.9725C37.3528 46.0275 37.2096 46.0944 36.9971 46.1903L45.2256 64.4192ZM46.1428 63.9926C48.6258 62.7989 50.9841 61.3354 53.1593 59.641L40.8689 43.863C39.8133 44.6853 38.6692 45.3944 37.4767 45.9677L46.1428 63.9926ZM53.156 59.6436C57.7188 56.0924 61.4807 51.5077 64.0649 46.3404L46.1771 37.3947C44.9315 39.8854 43.0873 42.1364 40.8722 43.8604L53.156 59.6436ZM64.0657 46.3387C66.7717 40.9254 68.1463 35.0641 68.1463 29.0005H48.1463C48.1463 31.9824 47.4842 34.7797 46.1763 37.3964L64.0657 46.3387ZM68.1463 29.0005C68.1463 18.6512 64.0952 8.87171 56.7771 1.55455L42.6359 15.6977C46.2026 19.2638 48.1463 23.9557 48.1463 29.0005H68.1463ZM56.7795 1.55697C49.4621 -5.76442 39.6808 -9.81399 29.3328 -9.81399V10.186C34.3783 10.186 39.0698 12.1296 42.6335 15.6952L56.7795 1.55697ZM19.3328 0.186008V0.188798H39.3328V0.186008H19.3328Z" fill="#767676" mask="url(#path-3-inside-1_44_245)"/>
<path d="M26.699 16.5398C26.699 16.5398 21.6053 17.1146 21.277 25.0022C21.0036 31.5748 20.4437 35.2382 23.1175 36.6091C24.0736 37.0992 25.197 37.142 26.2182 36.8072L37.1337 33.2182C37.1337 33.2182 37.2983 21.3872 33.5187 18.5115C29.7392 15.6358 26.6999 16.5398 26.6999 16.5398H26.699Z" fill="#2F2E41"/>
<path d="M32.7161 34.6709L27.1919 36.4873V28.5355H32.2037L32.7161 34.6709Z" fill="#F6A6A9"/>
<path d="M40.158 55.8107C39.414 56.112 38.6551 56.3827 37.8823 56.6208C37.3011 56.8012 36.7114 56.9621 36.1153 57.1053C33.94 57.6299 31.668 57.907 29.3327 57.907C28.6762 57.907 28.0251 57.8856 27.3806 57.8419C26.7213 57.7982 26.0684 57.7322 25.423 57.6438C25.1607 57.6085 24.9003 57.5703 24.6408 57.5275C23.9015 57.4076 23.1705 57.2578 22.4507 57.0821C22.2079 57.0235 21.9661 56.9612 21.7253 56.8942C21.6425 56.8728 21.5597 56.8496 21.4779 56.8263C21.1384 56.7305 20.8008 56.6291 20.466 56.5203C20.4437 56.5138 20.4205 56.5064 20.3981 56.4989C20.0987 56.4022 19.8011 56.2999 19.5053 56.1929C19.2394 56.0971 18.9752 55.9967 18.712 55.8925L24.4511 37.0025L24.6901 36.2166L25.5383 33.4256L25.5448 33.4033L25.5513 33.3828H35.574L35.641 33.7093L37.2843 41.7485L38.4682 47.5427L39.6326 53.2373L40.1115 55.581L40.158 55.8107Z" fill="#DDDEDF"/>
<path d="M27.1324 33.3874L26.4582 36.1804L26.3642 36.5719L26.3149 36.7756L23.324 49.1739L21.478 56.8263C21.1385 56.7305 20.8009 56.6291 20.4661 56.5203C20.4438 56.5138 20.4205 56.5063 20.3982 56.4989C20.0988 56.4022 19.8012 56.2999 19.5054 56.1929C19.2394 56.0971 18.9753 55.9967 18.7121 55.8925C17.7951 55.5307 16.9014 55.1224 16.0337 54.6723C17.9709 45.0836 19.9155 35.6558 20.2318 34.8662C20.3703 34.5193 20.7581 34.2533 21.2836 34.0487C21.4352 33.9892 21.5989 33.9352 21.7709 33.8859C22.899 33.5642 24.4047 33.446 25.5337 33.4042H25.5449C25.995 33.3884 26.3847 33.3837 26.6656 33.3837C26.9464 33.3837 27.1324 33.3884 27.1324 33.3884V33.3874Z" fill="#DDDEDF"/>
<path d="M27.8754 30.7368C30.9156 30.7368 33.3802 28.2722 33.3802 25.2319C33.3802 22.1917 30.9156 19.7271 27.8754 19.7271C24.8353 19.7271 22.3707 22.1917 22.3707 25.2319C22.3707 28.2722 24.8353 30.7368 27.8754 30.7368Z" fill="#F6A6A9"/>
<path d="M26.3707 18.5942C26.3707 18.5942 23.3417 30.894 26.7102 36.6454L21.9653 35.6372C21.9653 35.6372 20.1267 22.174 23.8244 19.727L26.3717 18.5942H26.3707Z" fill="#2F2E41"/>
<path opacity="0.1" d="M25.4231 57.6438C25.1608 57.6085 24.9004 57.5703 24.6409 57.5275C23.9016 57.4076 23.1706 57.2578 22.4507 57.0821C22.208 57.0235 21.9662 56.9612 21.7253 56.8942L22.035 54.5189L22.8618 48.1732L23.2338 49.5478L23.5761 50.8136L25.4231 57.6438Z" fill="#272223"/>
<path opacity="0.1" d="M41.0257 55.4433C40.823 55.5335 40.6193 55.6209 40.4138 55.7056C40.3831 55.7186 40.3524 55.7316 40.3217 55.7446C40.2678 55.7669 40.2138 55.7893 40.159 55.8107C39.415 56.112 38.6561 56.3826 37.8832 56.6207C36.0474 55.3215 34.6329 53.5116 33.8163 51.4153L33.3811 50.2983L30.5929 42.2219L36.77 48.7033L37.899 50.4908L39.6335 53.2363L41.0267 55.4424H41.0257V55.4433Z" fill="#272223"/>
<path d="M47.0727 51.8245C45.4601 53.0801 43.7116 54.1682 41.8516 55.0629C41.62 55.1745 41.3857 55.2824 41.1504 55.3884C41.1085 55.407 41.0676 55.4256 41.0258 55.4433C40.823 55.5335 40.6194 55.621 40.4138 55.7056C40.3125 55.6665 40.212 55.6247 40.1125 55.581C39.0923 55.1345 38.1809 54.4556 37.3764 53.6623C36.2957 52.5937 35.4104 51.3158 34.7157 50.1086C34.3734 49.5143 34.0777 48.9368 33.8275 48.4104L33.8238 48.402C33.1495 46.9762 32.8157 45.9272 32.8157 45.9272L31.9182 42.2414L31.6717 41.2305L30.2693 35.4754L29.7596 33.3828L30.5204 33.3493L32.599 33.2582L34.8914 33.1568C35.4197 33.1968 35.9349 33.2954 36.4306 33.4498C38.0218 33.938 39.4057 34.9815 40.3143 36.4175C42.8123 40.3674 46.8123 47.3343 47.0736 51.8245H47.0727Z" fill="#DDDEDF"/>
<path d="M20.9544 30.8187C22.1606 30.3844 25.3533 30.3825 26.7855 30.8661C27.0636 30.9601 27.2319 31.2428 27.1836 31.5321L27.1268 31.8752C27.2515 31.8566 27.3733 31.8213 27.4886 31.7683C27.8299 31.612 28.5023 31.4 29.1812 31.7385C29.6555 31.9748 29.9894 32.4202 30.1066 32.9383C30.3865 34.1771 29.6806 34.8625 29.6806 34.8625L28.7404 35.7451C27.9527 36.4836 27.0933 37.142 26.1754 37.7094L26.1568 37.7205L26.4916 35.7061C26.6804 36.0381 27.1073 36.1469 27.4319 35.946C28.2521 35.4382 29.5923 34.4208 29.4295 33.2656C29.3161 32.4602 28.8687 32.2891 28.4391 32.3254C27.9583 32.3663 27.5388 32.6686 27.3333 33.1047C27.284 33.2089 27.2031 33.2945 27.1026 33.3503L26.8608 33.4823L26.1522 37.7522C26.1206 37.9437 25.9978 38.1093 25.8239 38.1948C24.1573 39.0124 22.3587 38.5883 21.7365 38.3976C21.5942 38.3539 21.4724 38.26 21.3961 38.1316L21.2622 37.9093C21.2157 37.8331 21.1878 37.7466 21.1785 37.6582L20.56 31.4437C20.5331 31.1693 20.6958 30.9126 20.9553 30.8187H20.9544Z" fill="#253664"/>
<path d="M26.6432 31.1488C26.6432 31.2949 25.3886 31.413 23.8411 31.413C22.2935 31.413 21.0389 31.2949 21.0389 31.1488C21.0389 31.0028 22.2935 30.8847 23.8411 30.8847C25.3886 30.8847 26.6432 31.0028 26.6432 31.1488Z" fill="#DEDFE0"/>
<path d="M27.9982 36.9821C26.9436 35.4661 26.9054 33.6832 27.9126 32.9987C28.9198 32.3142 30.5901 32.9875 31.6447 34.5044C32.0744 35.1043 32.3478 35.8 32.4427 36.5338L36.8249 43.0134L33.6089 45.0501L29.6303 38.4469C28.971 38.0972 28.4111 37.595 27.9982 36.983V36.9821Z" fill="#F6A6A9"/>
<path d="M30.592 42.2228L34.2135 38.8896L41.3736 45.557L34.7148 50.1086L30.592 42.2228Z" fill="#DDDEDF"/>
<path opacity="0.1" d="M40.7412 46.4815L41.0258 48.668L39.1285 46.4815V44.2764L40.7412 46.4815Z" fill="#272223"/>
</g>
<rect x="0.833252" y="0.5" width="57" height="57" rx="28.5" stroke="#CBCFDA"/>
<defs>
<clipPath id="clip0_44_245">
<rect x="0.333252" width="58" height="58" rx="29" fill="white"/>
</clipPath>
</defs>
</svg>
