<svg width="750" height="500" viewBox="0 0 750 500" fill="none" xmlns="http://www.w3.org/2000/svg">
<path d="M584.916 187.118H697.316H727.409L704.197 203.868V236.822C704.197 240.623 701.116 243.703 697.316 243.703H584.916C581.116 243.703 578.035 240.622 578.035 236.822V193.999C578.035 190.199 581.116 187.118 584.916 187.118Z" fill="#CBCFDA"/>
<path d="M590.86 210.407C590.86 210.545 612.351 210.656 638.855 210.656C665.368 210.656 686.855 210.545 686.855 210.407C686.855 210.27 665.368 210.158 638.855 210.158C612.351 210.159 590.86 210.27 590.86 210.407Z" fill="#858FA9"/>
<path d="M590.86 223.06C590.86 223.197 612.351 223.309 638.855 223.309C665.368 223.309 686.855 223.198 686.855 223.06C686.855 222.923 665.368 222.811 638.855 222.811C612.351 222.811 590.86 222.922 590.86 223.06Z" fill="#858FA9"/>
<path d="M368.504 65.5193H361.836V87.8563H368.504V65.5193Z" fill="#E0E0E0"/>
<path d="M312.807 62.2822H306.139V87.8552H312.807V62.2822Z" fill="#E0E0E0"/>
<path d="M326.731 56.9521H320.063V87.8551H326.731V56.9521Z" fill="#E0E0E0"/>
<path d="M340.655 58.6472H333.987V87.8552H340.655V58.6472Z" fill="#E0E0E0"/>
<path d="M354.58 48.7661H347.912V87.8551H354.58V48.7661Z" fill="#E0E0E0"/>
<path d="M382.428 48.9563H375.76V87.8553H382.428V48.9563Z" fill="#E0E0E0"/>
<path d="M396.353 61.7322H389.685V87.8552H396.353V61.7322Z" fill="#E0E0E0"/>
<path d="M410.277 50.6702H403.609V87.8552H410.277V50.6702Z" fill="#E0E0E0"/>
<path d="M424.201 42.2932H417.533V87.8552H424.201V42.2932Z" fill="#E0E0E0"/>
<path d="M438.126 50.4802H431.458V87.8562H438.126V50.4802Z" fill="#E0E0E0"/>
<path d="M613.826 85.7842L668.972 77.3582C673.594 107.61 652.505 136.307 622.253 140.93C592.001 145.552 563.304 124.463 558.681 94.2112C554.059 63.9592 575.148 35.2622 605.4 30.6402C610.216 29.9042 615.109 29.8022 619.951 30.3372L613.826 85.7842Z" fill="#F3B29F"/>
<path d="M631.719 30.5122L625.024 73.2592L666.985 65.3792C666.985 65.3792 660.814 41.4232 631.719 30.5122Z" fill="#4C5A80"/>
<path d="M50.747 189.483C50.505 174.338 62.573 161.819 77.648 161.576C92.723 161.333 105.185 173.456 105.427 188.601C105.669 203.746 93.601 216.265 78.526 216.508C63.451 216.751 50.989 204.627 50.747 189.483ZM91.159 188.831C91.043 181.59 85.085 175.793 77.877 175.909C70.669 176.025 64.899 182.011 65.015 189.252C65.131 196.493 71.089 202.29 78.297 202.174C85.505 202.058 91.275 196.072 91.159 188.831Z" fill="#F3B29F"/>
<path d="M50.747 189.483C50.505 174.338 62.573 161.819 77.647 161.576L77.876 175.909C70.668 176.025 64.898 182.012 65.014 189.253C65.13 196.494 71.088 202.291 78.296 202.174L78.525 216.507C63.451 216.751 50.989 204.628 50.747 189.483Z" fill="#E0E0E0"/>
<path d="M75.193 159.371C92.83 159.086 106.899 172.774 107.182 190.492L90.49 190.761C90.355 182.289 83.908 176.955 75.476 177.092L75.193 159.371Z" fill="#4C5A80"/>
<path d="M228.386 285.924H193.631V327.242H228.386V285.924Z" fill="#F5F5F5"/>
<path d="M194.829 283.23H37.7629V329.84H194.829V283.23Z" fill="#494949"/>
<path d="M229.439 287.15H190.618V283.23H229.439C230.521 283.23 231.399 284.108 231.399 285.19C231.399 286.272 230.522 287.15 229.439 287.15Z" fill="#E0E0E0"/>
<path d="M229.439 329.84H190.618V325.92H229.439C230.521 325.92 231.399 326.797 231.399 327.88C231.399 328.963 230.522 329.84 229.439 329.84Z" fill="#E0E0E0"/>
<path d="M182.479 283.23H163.923V329.84H182.479V283.23Z" fill="#EBEBEB"/>
<path d="M71.257 283.746H52.7V330.356H71.257V283.746Z" fill="#C1C1C1"/>
<path d="M228.386 292.758C228.386 292.872 220.864 292.964 211.587 292.964C202.307 292.964 194.787 292.872 194.787 292.758C194.787 292.644 202.307 292.552 211.587 292.552C220.864 292.552 228.386 292.644 228.386 292.758Z" fill="#E0E0E0"/>
<path d="M228.386 298.954C228.386 299.068 220.864 299.161 211.587 299.161C202.307 299.161 194.787 299.069 194.787 298.954C194.787 298.84 202.307 298.748 211.587 298.748C220.864 298.747 228.386 298.84 228.386 298.954Z" fill="#E0E0E0"/>
<path d="M228.386 306.583C228.386 306.697 220.864 306.789 211.587 306.789C202.307 306.789 194.787 306.697 194.787 306.583C194.787 306.469 202.307 306.376 211.587 306.376C220.864 306.376 228.386 306.469 228.386 306.583Z" fill="#E0E0E0"/>
<path d="M228.386 314.212C228.386 314.326 220.864 314.418 211.587 314.418C202.307 314.418 194.787 314.326 194.787 314.212C194.787 314.098 202.307 314.006 211.587 314.006C220.864 314.005 228.386 314.098 228.386 314.212Z" fill="#E0E0E0"/>
<path d="M228.386 321.841C228.386 321.955 220.864 322.047 211.587 322.047C202.307 322.047 194.787 321.955 194.787 321.841C194.787 321.727 202.307 321.635 211.587 321.635C220.864 321.634 228.386 321.727 228.386 321.841Z" fill="#E0E0E0"/>
<path d="M153.947 302.386H83.2849V310.779H153.947V302.386Z" fill="#C1C1C1"/>
<path d="M228.033 330.754H192.745V355.93H228.033V330.754Z" fill="#FAFAFA"/>
<path d="M193.139 329.84H42.963V356.843H193.139V329.84Z" fill="#494949"/>
<path d="M192.048 331.667H229.977C230.482 331.667 230.89 331.258 230.89 330.753C230.89 330.249 230.481 329.84 229.977 329.84H192.048V331.667Z" fill="#F5F5F5"/>
<path d="M192.048 356.843H230.471C230.703 356.843 230.89 356.655 230.89 356.424V355.435C230.89 355.204 230.702 355.016 230.471 355.016H192.048V356.843Z" fill="#F5F5F5"/>
<path d="M228.033 335.536C228.033 335.65 220.221 335.743 210.587 335.743C200.949 335.743 193.139 335.651 193.139 335.536C193.139 335.422 200.949 335.33 210.587 335.33C220.221 335.33 228.033 335.422 228.033 335.536Z" fill="#E0E0E0"/>
<path d="M228.033 340.299C228.033 340.413 220.221 340.506 210.587 340.506C200.949 340.506 193.139 340.414 193.139 340.299C193.139 340.185 200.949 340.093 210.587 340.093C220.221 340.093 228.033 340.185 228.033 340.299Z" fill="#E0E0E0"/>
<path d="M228.033 345.062C228.033 345.176 220.221 345.269 210.587 345.269C200.949 345.269 193.139 345.177 193.139 345.062C193.139 344.948 200.949 344.856 210.587 344.856C220.221 344.856 228.033 344.948 228.033 345.062Z" fill="#E0E0E0"/>
<path d="M228.033 349.825C228.033 349.939 220.221 350.031 210.587 350.031C200.949 350.031 193.139 349.939 193.139 349.825C193.139 349.711 200.949 349.619 210.587 349.619C220.221 349.619 228.033 349.711 228.033 349.825Z" fill="#E0E0E0"/>
<path d="M233.385 359.242H197.367V427.489H233.385V359.242Z" fill="#EBEBEB"/>
<path d="M197.367 356.843H28.297V430.841H197.367V356.843Z" fill="#C1C1C1"/>
<path d="M236.205 430.841H192.745V426.042H236.205C237.53 426.042 238.605 427.116 238.605 428.441C238.604 429.766 237.53 430.841 236.205 430.841Z" fill="#E0E0E0"/>
<path d="M237.503 361.642H192.745V356.843H237.503C238.111 356.843 238.604 357.336 238.604 357.944V360.541C238.604 361.149 238.111 361.642 237.503 361.642Z" fill="#E0E0E0"/>
<path d="M233.386 368.391C233.386 368.505 225.322 368.597 215.378 368.597C205.43 368.597 197.368 368.505 197.368 368.391C197.368 368.277 205.43 368.185 215.378 368.185C225.322 368.185 233.386 368.277 233.386 368.391Z" fill="#E0E0E0"/>
<path d="M233.386 377.144C233.386 377.258 225.322 377.35 215.378 377.35C205.43 377.35 197.368 377.258 197.368 377.144C197.368 377.03 205.43 376.938 215.378 376.938C225.322 376.938 233.386 377.03 233.386 377.144Z" fill="#E0E0E0"/>
<path d="M233.386 385.897C233.386 386.011 225.322 386.103 215.378 386.103C205.43 386.103 197.368 386.011 197.368 385.897C197.368 385.783 205.43 385.691 215.378 385.691C225.322 385.691 233.386 385.783 233.386 385.897Z" fill="#E0E0E0"/>
<path d="M233.386 394.65C233.386 394.764 225.322 394.857 215.378 394.857C205.43 394.857 197.368 394.765 197.368 394.65C197.368 394.536 205.43 394.444 215.378 394.444C225.322 394.444 233.386 394.536 233.386 394.65Z" fill="#E0E0E0"/>
<path d="M233.386 403.403C233.386 403.517 225.322 403.609 215.378 403.609C205.43 403.609 197.368 403.517 197.368 403.403C197.368 403.289 205.43 403.197 215.378 403.197C225.322 403.197 233.386 403.289 233.386 403.403Z" fill="#E0E0E0"/>
<path d="M233.386 412.157C233.386 412.271 225.322 412.363 215.378 412.363C205.43 412.363 197.368 412.271 197.368 412.157C197.368 412.043 205.43 411.951 215.378 411.951C225.322 411.95 233.386 412.043 233.386 412.157Z" fill="#E0E0E0"/>
<path d="M233.386 420.91C233.386 421.024 225.322 421.116 215.378 421.116C205.43 421.116 197.368 421.024 197.368 420.91C197.368 420.796 205.43 420.704 215.378 420.704C225.322 420.703 233.386 420.796 233.386 420.91Z" fill="#E0E0E0"/>
<path d="M86.151 397.891V402.008C86.151 406.966 83.672 409.8 78.89 409.8C74.109 409.8 71.629 406.967 71.629 402.008V385.893C71.629 380.935 74.108 378.101 78.89 378.101C83.671 378.101 86.151 380.934 86.151 385.893V388.904H81.547V385.584C81.547 383.37 80.573 382.529 79.024 382.529C77.474 382.529 76.5 383.37 76.5 385.584V402.319C76.5 404.533 77.474 405.33 79.024 405.33C80.573 405.33 81.547 404.533 81.547 402.319V397.892H86.151V397.891Z" fill="#EBEBEB"/>
<path d="M88.7151 385.893C88.7151 380.935 91.3271 378.101 96.1081 378.101C100.889 378.101 103.502 380.934 103.502 385.893V402.008C103.502 406.966 100.89 409.8 96.1081 409.8C91.3261 409.8 88.7151 406.967 88.7151 402.008V385.893ZM93.5851 402.319C93.5851 404.533 94.5591 405.374 96.1081 405.374C97.6581 405.374 98.6321 404.533 98.6321 402.319V385.584C98.6321 383.37 97.6581 382.529 96.1081 382.529C94.5591 382.529 93.5851 383.37 93.5851 385.584V402.319Z" fill="#EBEBEB"/>
<path d="M106.642 378.456H111.512V405.02H119.525V409.447H106.642V378.456Z" fill="#EBEBEB"/>
<path d="M121.248 385.893C121.248 380.935 123.86 378.101 128.642 378.101C133.423 378.101 136.036 380.934 136.036 385.893V402.008C136.036 406.966 133.424 409.8 128.642 409.8C123.86 409.8 121.248 406.967 121.248 402.008V385.893ZM126.118 402.319C126.118 404.533 127.092 405.374 128.642 405.374C130.191 405.374 131.166 404.533 131.166 402.319V385.584C131.166 383.37 130.192 382.529 128.642 382.529C127.092 382.529 126.118 383.37 126.118 385.584V402.319Z" fill="#EBEBEB"/>
<path d="M143.824 378.456V402.363C143.824 404.577 144.798 405.373 146.348 405.373C147.898 405.373 148.872 404.576 148.872 402.363V378.456H153.476V402.053C153.476 407.011 150.997 409.845 146.215 409.845C141.434 409.845 138.954 407.012 138.954 402.053V378.456H143.824Z" fill="#EBEBEB"/>
<path d="M166.975 409.446C166.709 408.649 166.532 408.162 166.532 405.639V400.769C166.532 397.891 165.558 396.829 163.344 396.829H161.662V409.447H156.792V378.456H164.141C169.188 378.456 171.357 380.802 171.357 385.584V388.019C171.357 391.207 170.339 393.287 168.169 394.306C170.604 395.324 171.401 397.671 171.401 400.903V405.684C171.401 407.189 171.445 408.296 171.932 409.447L166.975 409.446ZM161.662 382.883V392.402H163.566C165.381 392.402 166.488 391.605 166.488 389.126V386.071C166.488 383.857 165.735 382.883 164.009 382.883H161.662Z" fill="#EBEBEB"/>
<path d="M85.098 340.475H81.547L81.734 339.555H89.886L89.685 340.475H86.147L84.321 349.618H83.272L85.098 340.475Z" fill="#E0E0E0"/>
<path d="M96.7241 342.056L91.203 350.597C90.269 352.035 89.5641 352.48 88.4721 352.48C87.7681 352.48 87.048 352.235 86.675 351.804L87.2211 351.057C87.5521 351.401 87.9831 351.603 88.5581 351.603C89.2061 351.603 89.7081 351.301 90.298 350.381L90.8301 349.576L88.9461 342.055H89.981L91.548 348.496L95.674 342.055H96.7241V342.056Z" fill="#E0E0E0"/>
<path d="M105.131 345.191C105.131 347.791 103.32 349.689 100.847 349.689C99.409 349.689 98.402 349.1 97.971 348.036L97.109 352.407H96.087L98.144 342.055H99.121L98.877 343.264C99.596 342.459 100.603 341.999 101.825 341.999C103.765 342 105.131 343.207 105.131 345.191ZM104.096 345.249C104.096 343.767 103.19 342.891 101.608 342.891C99.725 342.891 98.345 344.371 98.345 346.44C98.345 347.922 99.251 348.784 100.832 348.784C102.716 348.785 104.096 347.305 104.096 345.249Z" fill="#E0E0E0"/>
<path d="M106.319 346.485C106.319 343.911 108.145 342 110.689 342C112.788 342 114.125 343.236 114.125 345.191C114.125 347.778 112.299 349.689 109.755 349.689C107.657 349.69 106.319 348.425 106.319 346.485ZM113.105 345.249C113.105 343.767 112.199 342.891 110.618 342.891C108.734 342.891 107.34 344.385 107.34 346.44C107.34 347.922 108.246 348.784 109.827 348.784C111.711 348.785 113.105 347.305 113.105 345.249Z" fill="#E0E0E0"/>
<path d="M123.912 342.056L122.59 348.699C122.058 351.373 120.649 352.48 118.191 352.48C116.767 352.48 115.603 352.078 114.827 351.344L115.431 350.568C116.034 351.186 117.056 351.575 118.264 351.575C120.175 351.575 121.182 350.697 121.541 348.872L121.714 348.037C120.995 348.843 119.974 349.333 118.695 349.333C116.696 349.333 115.359 348.168 115.359 346.284C115.359 343.855 117.156 342.001 119.672 342.001C121.066 342.001 122.188 342.575 122.619 343.726L122.935 342.057H123.912V342.056ZM122.187 345.089C122.187 343.709 121.252 342.891 119.685 342.891C117.773 342.891 116.393 344.3 116.393 346.225C116.393 347.605 117.313 348.425 118.895 348.425C120.792 348.425 122.187 347.016 122.187 345.089Z" fill="#E0E0E0"/>
<path d="M130.578 342L130.391 342.991C130.29 342.991 130.218 342.976 130.103 342.976C128.493 342.976 127.415 343.896 127.041 345.78L126.28 349.618H125.259L126.755 342.055H127.732L127.473 343.435C128.148 342.445 129.14 342 130.578 342Z" fill="#E0E0E0"/>
<path d="M139.244 342.056L137.735 349.619H136.757L137.001 348.426C136.282 349.217 135.276 349.691 134.054 349.691C132.114 349.691 130.762 348.484 130.762 346.486C130.762 343.897 132.574 342.001 135.032 342.001C136.47 342.001 137.476 342.59 137.907 343.639L138.224 342.057H139.244V342.056ZM137.548 345.249C137.548 343.767 136.642 342.891 135.061 342.891C133.178 342.891 131.783 344.385 131.783 346.44C131.783 347.922 132.689 348.784 134.27 348.784C136.153 348.785 137.548 347.305 137.548 345.249Z" fill="#E0E0E0"/>
<path d="M149.058 345.191C149.058 347.791 147.247 349.689 144.774 349.689C143.336 349.689 142.329 349.1 141.898 348.036L141.036 352.407H140.016L142.072 342.055H143.049L142.805 343.264C143.524 342.459 144.531 341.999 145.753 341.999C147.692 342 149.058 343.207 149.058 345.191ZM148.023 345.249C148.023 343.767 147.117 342.891 145.536 342.891C143.653 342.891 142.272 344.371 142.272 346.44C142.272 347.922 143.178 348.784 144.759 348.784C146.643 348.785 148.023 347.305 148.023 345.249Z" fill="#E0E0E0"/>
<path d="M158.212 344.458C158.212 344.731 158.183 345.018 158.125 345.32L157.263 349.618H156.242L157.105 345.304C157.147 345.06 157.176 344.83 157.176 344.615C157.176 343.537 156.529 342.919 155.221 342.919C153.611 342.919 152.504 343.795 152.144 345.564L151.339 349.618H150.318L152.446 338.95H153.466L152.618 343.191C153.337 342.373 154.343 342 155.508 342C157.219 342 158.212 342.92 158.212 344.458Z" fill="#E0E0E0"/>
<path d="M167.767 342.056L162.246 350.597C161.311 352.035 160.607 352.48 159.515 352.48C158.811 352.48 158.091 352.235 157.718 351.804L158.264 351.057C158.595 351.401 159.026 351.603 159.601 351.603C160.249 351.603 160.751 351.301 161.341 350.381L161.873 349.576L159.989 342.055H161.024L162.591 348.496L166.717 342.055H167.767V342.056Z" fill="#E0E0E0"/>
<path d="M190.546 31.2761H69.552H37.158L62.145 49.3071V84.7811C62.145 88.8721 65.461 92.1891 69.552 92.1891H190.546C194.637 92.1891 197.954 88.8731 197.954 84.7811V38.6841C197.954 34.5921 194.638 31.2761 190.546 31.2761Z" fill="#CBCFDA"/>
<path d="M184.149 56.3461C184.149 56.4941 161.015 56.6141 132.484 56.6141C103.943 56.6141 80.814 56.4941 80.814 56.3461C80.814 56.1981 103.943 56.0781 132.484 56.0781C161.014 56.0781 184.149 56.1981 184.149 56.3461Z" fill="#858FA9"/>
<path d="M184.149 69.9662C184.149 70.1142 161.015 70.2342 132.484 70.2342C103.943 70.2342 80.814 70.1142 80.814 69.9662C80.814 69.8182 103.943 69.6982 132.484 69.6982C161.014 69.6982 184.149 69.8182 184.149 69.9662Z" fill="#858FA9"/>
<path d="M722.534 430.841C722.534 430.985 565.701 431.101 372.284 431.101C178.799 431.101 22 430.984 22 430.841C22 430.698 178.799 430.581 372.284 430.581C565.702 430.58 722.534 430.697 722.534 430.841Z" fill="#263238"/>
<path d="M656.716 379.801C656.716 379.801 630.208 349.292 620.206 318.784C610.203 288.275 614.955 291.776 614.955 291.776C614.955 291.776 628.459 321.413 638.712 335.728C648.965 350.043 667.22 371.049 667.22 371.049L656.716 379.801Z" fill="#455A64"/>
<path d="M661.999 296.529C661.144 295.04 658.868 295.813 659.124 297.511C660.74 308.227 664.233 333.376 664.096 349.686C663.918 370.875 664.103 379.065 664.103 379.065H675.136C675.136 379.065 673.177 335.263 670.685 321.909C668.936 312.546 665.226 302.15 661.999 296.529Z" fill="#455A64"/>
<path d="M668.013 375.505C668.013 375.505 674.957 360.904 677.094 342.565C678.003 334.765 676.382 324.225 673.971 310.159C672.803 303.346 672.539 298.161 672.576 294.566C672.604 291.849 676.19 290.962 677.518 293.332C678.85 295.708 682.703 303.825 683.682 308.913C686.353 322.802 689.38 329.746 687.065 342.922C684.75 356.098 676.204 376.397 676.204 376.397L668.013 375.505Z" fill="#455A64"/>
<path d="M677.951 376.395C677.951 376.395 707.055 313.849 709.072 304.571C711.089 295.292 717.948 273.91 718.754 275.12C719.561 276.33 720.771 287.627 715.527 300.536C710.282 313.446 687.889 378.3 687.889 378.3H677.951" fill="#455A64"/>
<path d="M664.827 373.596C664.814 373.613 664.534 373.42 664.011 373.036C663.494 372.644 662.71 372.094 661.756 371.315C659.819 369.793 657.1 367.478 653.934 364.41C647.581 358.309 639.674 348.902 632.819 337.31C625.949 325.72 621.33 314.385 618.406 306.089C616.942 301.935 615.874 298.535 615.181 296.172C614.825 294.994 614.58 294.069 614.408 293.444C614.24 292.818 614.162 292.487 614.182 292.48C614.203 292.474 614.321 292.794 614.528 293.408C614.748 294.077 615.042 294.974 615.411 296.1C616.174 298.438 617.304 301.813 618.818 305.94C621.842 314.183 626.511 325.452 633.352 336.993C640.178 348.537 647.989 357.938 654.24 364.098C657.355 367.194 660.021 369.553 661.907 371.129C662.835 371.936 663.594 372.515 664.085 372.939C664.585 373.353 664.84 373.579 664.827 373.596Z" fill="#263238"/>
<path d="M668.011 343.591C667.968 343.594 667.877 342.94 667.75 341.756C667.611 340.461 667.431 338.774 667.214 336.742C666.753 332.511 666.034 326.675 665.006 320.265C663.973 313.854 662.826 308.086 661.938 303.923C661.508 301.926 661.15 300.267 660.876 298.994C660.626 297.83 660.507 297.18 660.549 297.17C660.591 297.159 660.789 297.789 661.111 298.936C661.437 300.083 661.868 301.753 662.367 303.826C663.367 307.971 664.584 313.739 665.62 320.166C666.651 326.592 667.302 332.451 667.652 336.699C667.828 338.824 667.942 340.545 667.992 341.737C668.044 342.929 668.053 343.588 668.011 343.591Z" fill="#263238"/>
<path d="M674.828 292.84C674.848 292.832 674.966 293.106 675.172 293.635C675.393 294.224 675.683 294.996 676.044 295.958C676.429 296.966 676.872 298.209 677.293 299.682C677.726 301.151 678.287 302.806 678.708 304.69C678.938 305.629 679.179 306.61 679.429 307.631C679.674 308.655 679.847 309.738 680.07 310.85C680.545 313.071 680.839 315.479 681.192 318.006C681.761 323.076 682.072 328.691 681.887 334.581C681.65 340.472 680.938 346.051 680.007 351.068C679.474 353.564 679.008 355.945 678.375 358.126C678.073 359.219 677.823 360.287 677.505 361.291C677.182 362.292 676.872 363.253 676.575 364.173C676.02 366.022 675.342 367.633 674.805 369.067C674.28 370.506 673.749 371.714 673.293 372.692C672.863 373.626 672.519 374.376 672.257 374.947C672.014 375.459 671.877 375.724 671.858 375.715C671.839 375.706 671.937 375.424 672.143 374.895C672.378 374.313 672.686 373.55 673.071 372.597C673.492 371.608 673.988 370.39 674.481 368.943C674.985 367.502 675.632 365.887 676.158 364.037C676.441 363.118 676.737 362.156 677.045 361.156C677.349 360.153 677.586 359.087 677.876 357.996C678.485 355.82 678.929 353.447 679.444 350.961C680.339 345.964 681.029 340.416 681.266 334.558C681.449 328.701 681.158 323.119 680.623 318.071C680.287 315.555 680.014 313.157 679.563 310.943C679.352 309.834 679.192 308.754 678.96 307.732C678.724 306.712 678.498 305.732 678.281 304.794C677.889 302.911 677.36 301.254 676.96 299.781C676.572 298.303 676.164 297.053 675.815 296.036C675.5 295.059 675.247 294.275 675.054 293.678C674.886 293.136 674.808 292.848 674.828 292.84Z" fill="#263238"/>
<path d="M718.421 276.377C718.431 276.379 718.424 276.474 718.398 276.658C718.363 276.878 718.321 277.145 718.269 277.471C718.141 278.183 717.98 279.239 717.695 280.584C717.133 283.275 716.197 287.147 714.741 291.844C713.292 296.543 711.303 302.052 708.946 308.104C706.598 314.159 703.869 320.756 701.285 327.779C698.661 334.79 696.64 341.633 694.741 347.843C692.859 354.058 691.074 359.635 689.348 364.241C687.64 368.852 685.995 372.484 684.753 374.937C684.157 376.176 683.621 377.1 683.275 377.736C683.112 378.023 682.978 378.258 682.868 378.451C682.773 378.61 682.72 378.689 682.711 378.684C682.701 378.679 682.736 378.589 682.813 378.42C682.908 378.219 683.024 377.975 683.165 377.677C683.474 377.024 683.975 376.084 684.536 374.831C685.708 372.352 687.285 368.707 688.936 364.089C690.604 359.477 692.342 353.9 694.193 347.677C696.061 341.462 698.071 334.595 700.702 327.564C703.292 320.524 706.038 313.933 708.413 307.895C710.798 301.861 712.823 296.381 714.322 291.711C715.828 287.044 716.826 283.2 717.459 280.531C717.779 279.197 717.978 278.15 718.146 277.447C718.222 277.126 718.284 276.863 718.335 276.646C718.382 276.466 718.41 276.375 718.421 276.377Z" fill="#263238"/>
<path d="M628.676 262.561C626.842 260.739 623.792 262.644 624.551 265.116C625.321 267.622 626.487 270.863 628.208 274.52C632.209 283.022 643.963 313.531 649.464 330.286C654.966 347.041 662.718 378.3 662.718 378.3L674.466 376.394C674.466 376.394 663.718 325.034 653.215 306.529C644.776 291.661 636.337 270.173 628.676 262.561Z" fill="#455A64"/>
<path d="M652.679 340.766C652.72 340.752 652.933 341.253 653.284 342.174C653.632 343.096 654.105 344.441 654.639 346.118C655.721 349.469 657.045 354.15 658.379 359.351C659.709 364.554 660.818 369.286 661.591 372.717C661.943 374.34 662.239 375.704 662.475 376.788C662.671 377.752 662.76 378.29 662.718 378.301C662.676 378.311 662.508 377.793 662.24 376.846C661.954 375.774 661.593 374.426 661.164 372.821C660.265 369.287 659.084 364.643 657.777 359.506C656.445 354.312 655.19 349.622 654.218 346.247C653.754 344.654 653.365 343.316 653.055 342.252C652.775 341.309 652.638 340.78 652.679 340.766Z" fill="#263238"/>
<path d="M668.619 377.347C668.608 377.348 668.586 377.242 668.553 377.034C668.518 376.79 668.474 376.486 668.42 376.109C668.297 375.297 668.187 374.091 667.939 372.551C667.508 369.465 666.738 365.017 665.476 359.592C664.222 354.165 662.393 347.781 659.977 340.823C657.567 333.862 654.544 326.342 651.12 318.559C644.208 303.011 637.304 289.22 632.767 279.023C630.474 273.936 628.698 269.783 627.529 266.89C626.933 265.448 626.506 264.314 626.208 263.548C626.075 263.191 625.968 262.903 625.882 262.672C625.812 262.473 625.781 262.37 625.791 262.366C625.801 262.362 625.852 262.458 625.941 262.649C626.042 262.874 626.168 263.154 626.324 263.501C626.67 264.298 627.147 265.4 627.752 266.796C628.989 269.658 630.824 273.781 633.167 278.841C637.803 288.984 644.767 302.738 651.689 318.31C655.119 326.105 658.133 333.649 660.519 340.638C662.911 347.625 664.702 354.04 665.905 359.495C667.116 364.948 667.821 369.419 668.179 372.52C668.39 374.067 668.462 375.279 668.545 376.096C668.574 376.475 668.598 376.782 668.617 377.028C668.629 377.238 668.63 377.346 668.619 377.347Z" fill="#263238"/>
<path d="M674.466 376.395C674.423 376.401 674.284 375.697 674.07 374.421C673.837 373.041 673.528 371.221 673.156 369.02C672.346 364.468 671.11 358.199 669.333 351.375C667.574 344.544 665.591 338.468 664.066 334.104C663.317 332.001 662.698 330.262 662.229 328.944C661.789 327.727 661.564 327.046 661.604 327.03C661.644 327.014 661.944 327.664 662.454 328.855C662.96 330.047 663.668 331.784 664.479 333.954C666.113 338.288 668.169 344.364 669.934 351.218C671.717 358.064 672.888 364.369 673.589 368.947C673.923 371.24 674.179 373.097 674.31 374.386C674.451 375.675 674.508 376.389 674.466 376.395Z" fill="#263238"/>
<path d="M698.579 374.707H652.722V430.579H698.579V374.707Z" fill="#FF725E"/>
<g opacity="0.3">
<path d="M698.579 374.707H652.722V430.579H698.579V374.707Z" fill="#A23E21"/>
</g>
<path d="M683.95 374.707H643.266V430.579H683.95V374.707Z" fill="#CF4F2A"/>
<path d="M87.7929 355.282C79.9819 350.279 69.1549 350.184 61.5529 355.498C54.3359 360.543 50.6709 369.726 50.9889 378.526C51.3069 387.326 55.5729 398.08 63.5459 402.702L86.9489 402.611C94.4219 397.116 99.4749 388.263 99.8269 378.994C100.18 369.726 95.6039 360.285 87.7929 355.282Z" fill="#455A64"/>
<path d="M76.27 403.553C76.218 403.553 76.169 402.836 76.123 401.539C76.082 400.1 76.03 398.257 75.967 396.05C75.849 391.416 75.666 385.016 75.357 377.952C75.045 370.886 74.665 364.494 74.376 359.867C74.244 357.663 74.135 355.823 74.049 354.386C73.981 353.091 73.968 352.372 74.019 352.368C74.07 352.363 74.182 353.073 74.339 354.362C74.498 355.65 74.692 357.517 74.903 359.828C75.327 364.449 75.791 370.844 76.104 377.92C76.414 384.994 76.513 391.405 76.496 396.045C76.488 398.365 76.459 400.243 76.414 401.54C76.37 402.836 76.322 403.553 76.27 403.553Z" fill="#263238"/>
<path d="M53.3479 376.534C53.3309 376.74 52.0589 376.803 50.5079 376.676C48.9559 376.549 47.7119 376.279 47.7289 376.073C47.7459 375.868 49.0169 375.804 50.5689 375.931C52.1199 376.058 53.3649 376.328 53.3479 376.534Z" fill="#263238"/>
<path d="M53.7829 368.638C53.6989 368.827 52.6019 368.523 51.3329 367.96C50.0639 367.397 49.1019 366.788 49.1859 366.599C49.2689 366.41 50.3659 366.714 51.6359 367.277C52.9059 367.84 53.8669 368.449 53.7829 368.638Z" fill="#263238"/>
<path d="M57.8459 362.776C57.7389 362.948 56.5059 362.367 55.2249 361.303C53.9399 360.243 53.1389 359.14 53.2879 359.003C53.4409 358.859 54.4579 359.702 55.7019 360.728C56.9409 361.757 57.9589 362.598 57.8459 362.776Z" fill="#263238"/>
<path d="M61.933 357.247C61.744 357.33 61.153 356.407 60.613 355.185C60.073 353.962 59.788 352.904 59.977 352.82C60.166 352.737 60.756 353.66 61.297 354.883C61.837 356.104 62.122 357.163 61.933 357.247Z" fill="#263238"/>
<path d="M68.3429 353.323C68.1589 353.409 67.5229 352.426 67.1009 351.063C66.6749 349.701 66.6419 348.531 66.8419 348.498C67.0489 348.462 67.4039 349.532 67.8149 350.842C68.2189 352.152 68.5339 353.235 68.3429 353.323Z" fill="#263238"/>
<path d="M79.041 348.9C79.236 348.969 79.117 349.808 78.776 350.775C78.435 351.742 78.001 352.47 77.806 352.401C77.612 352.332 77.73 351.493 78.072 350.526C78.412 349.559 78.846 348.831 79.041 348.9Z" fill="#263238"/>
<path d="M86.9759 352.305C87.1159 352.456 86.6069 353.155 85.8389 353.866C85.0709 354.577 84.3349 355.03 84.1949 354.878C84.0549 354.727 84.5639 354.028 85.3319 353.317C86.0989 352.607 86.8349 352.153 86.9759 352.305Z" fill="#263238"/>
<path d="M93.9609 356.815C94.0769 356.986 93.4559 357.609 92.5749 358.205C91.6939 358.802 90.8849 359.148 90.7699 358.977C90.6539 358.806 91.2749 358.184 92.1559 357.586C93.0369 356.99 93.8459 356.644 93.9609 356.815Z" fill="#263238"/>
<path d="M98.921 363.542C99.002 363.732 98.024 364.331 96.736 364.88C95.448 365.429 94.339 365.72 94.258 365.531C94.177 365.341 95.155 364.742 96.443 364.193C97.731 363.643 98.84 363.352 98.921 363.542Z" fill="#263238"/>
<path d="M100.874 370.877C100.899 371.082 99.9039 371.374 98.6519 371.529C97.3989 371.684 96.3629 371.644 96.3369 371.439C96.3119 371.234 97.3069 370.943 98.5599 370.787C99.8119 370.632 100.848 370.672 100.874 370.877Z" fill="#263238"/>
<path d="M101.89 379.906C101.808 380.095 100.747 379.817 99.5219 379.284C98.2959 378.751 97.3689 378.166 97.4519 377.976C97.5339 377.787 98.5939 378.065 99.8199 378.598C101.046 379.132 101.973 379.717 101.89 379.906Z" fill="#263238"/>
<path d="M100.996 387.655C100.931 387.843 99.5899 387.524 98.1889 386.604C96.7829 385.69 95.9529 384.59 96.0989 384.455C96.2509 384.305 97.269 385.117 98.597 385.979C99.919 386.849 101.072 387.456 100.996 387.655Z" fill="#263238"/>
<path d="M96.9619 394.709C96.8389 394.869 95.7719 394.242 94.7479 393.136C93.7199 392.033 93.1739 390.923 93.3419 390.811C93.5159 390.693 94.3109 391.572 95.2949 392.627C96.2739 393.687 97.0919 394.544 96.9619 394.709Z" fill="#263238"/>
<path d="M58.654 395.537C58.749 395.72 57.629 396.492 56.151 397.261C54.673 398.031 53.398 398.506 53.303 398.323C53.208 398.14 54.328 397.368 55.806 396.599C57.283 395.829 58.558 395.354 58.654 395.537Z" fill="#263238"/>
<path d="M55.155 389.157C55.24 389.345 54.341 389.936 53.148 390.477C51.954 391.018 50.918 391.305 50.832 391.117C50.747 390.929 51.645 390.338 52.839 389.797C54.033 389.255 55.069 388.969 55.155 389.157Z" fill="#263238"/>
<path d="M52.5819 383.506C52.6109 383.71 51.5049 384.036 50.1119 384.234C48.7179 384.432 47.5649 384.426 47.5369 384.222C47.5079 384.018 48.6139 383.692 50.0069 383.494C51.3999 383.297 52.5529 383.302 52.5819 383.506Z" fill="#263238"/>
<path d="M61.0189 380.391C61.0799 380.583 60.0009 381.087 58.5619 381.247C57.1229 381.412 55.9589 381.162 55.9759 380.961C55.9899 380.75 57.1159 380.662 58.4779 380.504C59.8409 380.354 60.9589 380.189 61.0189 380.391Z" fill="#263238"/>
<path d="M68.0279 373.417C68.0889 373.61 67.2299 374.044 66.0719 374.156C64.9139 374.272 63.9869 374.013 64.0089 373.812C64.0289 373.603 64.9219 373.521 65.9979 373.412C67.0749 373.31 67.9679 373.216 68.0279 373.417Z" fill="#263238"/>
<path d="M69.3669 367.831C69.2999 368.026 68.3699 367.882 67.2909 367.509C66.2119 367.136 65.3909 366.675 65.4589 366.48C65.5259 366.285 66.4559 366.429 67.5349 366.802C68.6139 367.175 69.4349 367.636 69.3669 367.831Z" fill="#263238"/>
<path d="M71.9369 362.181C71.7939 362.324 71.1549 361.903 70.6999 361.111C70.2419 360.32 70.1969 359.557 70.3929 359.504C70.5949 359.446 70.9389 360.036 71.3469 360.737C71.7489 361.442 72.0879 362.036 71.9369 362.181Z" fill="#263238"/>
<path d="M68.8389 385.311C68.8879 385.512 68.0829 385.88 67.0409 386.135C66.4389 386.282 65.8899 386.359 65.5299 386.357L65.3829 385.921C65.6529 385.872 65.8269 385.884 65.8619 385.963C65.8969 386.043 65.7869 386.178 65.5689 386.344L65.4219 385.908C65.7409 385.741 66.2629 385.556 66.8649 385.409C67.9059 385.155 68.7899 385.111 68.8389 385.311Z" fill="#263238"/>
<path d="M70.2829 395.215C70.3579 395.407 69.3319 395.99 67.9909 396.517C66.6489 397.044 65.5009 397.316 65.4249 397.124C65.3499 396.932 66.3759 396.349 67.7169 395.822C69.0589 395.295 70.2079 395.024 70.2829 395.215Z" fill="#263238"/>
<path d="M62.3659 390.816C62.4329 391.011 61.7479 391.421 60.8369 391.731C59.9259 392.041 59.1339 392.134 59.0669 391.938C59.0009 391.743 59.6849 391.333 60.5959 391.023C61.5069 390.714 62.2989 390.621 62.3659 390.816Z" fill="#263238"/>
<path d="M62.971 370.655C62.924 370.853 61.732 370.735 60.355 370.245C58.977 369.759 57.977 369.1 58.064 368.917C58.153 368.728 59.266 369.069 60.604 369.541C61.941 370.017 63.021 370.452 62.971 370.655Z" fill="#263238"/>
<path d="M82.131 368.464C82.245 368.636 81.573 369.279 80.632 369.9C79.69 370.521 78.835 370.884 78.722 370.712C78.608 370.54 79.279 369.897 80.221 369.276C81.162 368.655 82.017 368.291 82.131 368.464Z" fill="#263238"/>
<path d="M83.1719 378.409C83.2139 378.611 82.509 378.928 81.597 379.118C80.685 379.307 79.9119 379.297 79.8699 379.095C79.8279 378.893 80.533 378.576 81.445 378.387C82.357 378.197 83.1299 378.208 83.1719 378.409Z" fill="#263238"/>
<path d="M84.3829 389.593C84.2959 389.78 83.2809 389.494 82.1149 388.955C80.9489 388.415 80.0739 387.826 80.1609 387.638C80.2479 387.451 81.2629 387.737 82.4289 388.277C83.5949 388.817 84.4699 389.406 84.3829 389.593Z" fill="#263238"/>
<path d="M81.8209 400.482C81.6609 400.613 81.0019 400.074 80.3479 399.278C79.6939 398.482 79.2929 397.73 79.4529 397.599C79.6119 397.468 80.2719 398.007 80.9259 398.803C81.5789 399.599 81.9799 400.351 81.8209 400.482Z" fill="#263238"/>
<path d="M81.297 361.14C81.423 361.3 80.988 361.848 80.241 362.222C79.495 362.598 78.795 362.619 78.743 362.423C78.687 362.222 79.233 361.895 79.906 361.555C80.581 361.217 81.169 360.974 81.297 361.14Z" fill="#263238"/>
<path d="M90.6859 371.172C90.7539 371.362 89.8859 371.84 88.6969 372.003C87.5089 372.171 86.5429 371.947 86.5569 371.746C86.5679 371.536 87.4869 371.42 88.5939 371.263C89.7019 371.112 90.6179 370.973 90.6859 371.172Z" fill="#263238"/>
<path d="M88.815 362.167C88.907 362.348 88.044 362.963 86.818 363.353C85.592 363.747 84.533 363.746 84.503 363.546C84.469 363.339 85.426 363.017 86.591 362.641C87.756 362.271 88.722 361.978 88.815 362.167Z" fill="#263238"/>
<path d="M92.735 385.119C92.732 385.32 91.257 385.451 89.478 385.125C87.697 384.805 86.362 384.165 86.43 383.976C86.498 383.776 87.893 384.082 89.611 384.39C91.327 384.705 92.742 384.908 92.735 385.119Z" fill="#263238"/>
<path d="M89.2459 398.201C89.1219 398.361 88.0359 397.722 86.9519 396.631C85.8649 395.542 85.2309 394.454 85.3919 394.33C85.5579 394.201 86.4309 395.052 87.4819 396.104C88.5289 397.159 89.3759 398.036 89.2459 398.201Z" fill="#263238"/>
<path d="M73.905 351.521C74.016 351.681 70.926 352.934 67.355 356.697C63.786 360.377 60.104 366.877 59.197 374.729C58.763 378.632 59.135 382.408 59.689 385.778C60.272 389.152 61.045 392.148 61.758 394.645C62.475 397.141 63.133 399.141 63.575 400.527C64.018 401.913 64.255 402.684 64.204 402.703C64.158 402.72 63.829 401.983 63.301 400.624C62.774 399.265 62.037 397.287 61.252 394.797C60.47 392.307 59.637 389.303 59.01 385.896C58.413 382.492 58.008 378.656 58.454 374.642C59.38 366.609 63.234 359.989 66.974 356.33C68.835 354.471 70.584 353.23 71.86 352.512C72.479 352.12 73.014 351.911 73.355 351.735C73.706 351.572 73.894 351.498 73.905 351.521Z" fill="#263238"/>
<path d="M84.093 403.183C83.931 403.102 85.772 400.268 87.451 395.16C89.18 390.115 90.61 382.643 89.458 374.528C88.919 370.482 87.749 366.731 86.277 363.527C84.749 360.366 82.779 357.777 80.852 355.971C78.859 354.209 76.902 353.198 75.537 352.612C74.155 352.036 73.328 351.901 73.339 351.838C73.343 351.814 73.553 351.826 73.95 351.885C74.343 351.957 74.923 352.088 75.642 352.341C77.069 352.857 79.097 353.808 81.201 355.574C83.25 357.403 85.284 359.986 86.899 363.23C88.439 366.49 89.649 370.302 90.199 374.425C91.372 382.691 89.827 390.278 87.951 395.334C87.529 396.624 86.986 397.73 86.581 398.726C86.1 399.69 85.703 400.527 85.338 401.19C84.577 402.499 84.138 403.208 84.093 403.183Z" fill="#263238"/>
<path d="M55.1549 401.416H96.3369L96.5899 409.659H55.1549V401.416Z" fill="#CF4F2A"/>
<path d="M58.6539 405.537L61.0189 430.699H91.1259L93.5439 405.813L58.6539 405.537Z" fill="#CF4F2A"/>
<path d="M96.5899 409.758C96.5899 409.964 87.3159 410.132 75.8789 410.132C64.4379 410.132 55.1659 409.965 55.1659 409.758C55.1659 409.551 64.4379 409.384 75.8789 409.384C87.3159 409.384 96.5899 409.551 96.5899 409.758Z" fill="#263238"/>
<path d="M92.4049 417.422C92.4449 417.446 92.1669 418.025 91.5229 418.994C90.8769 419.959 89.8489 421.313 88.3289 422.766L88.1399 422.947L87.9529 422.751C85.9699 420.671 83.2459 418.121 79.8819 415.686L80.3369 415.666C79.1869 416.675 77.9889 417.727 76.7589 418.806C75.2969 420.079 73.8799 421.313 72.5289 422.489L72.2949 422.693L72.0599 422.496C69.4959 420.34 67.1629 418.379 65.1839 416.715L65.5839 416.672C64.1639 418.405 62.9709 419.861 62.0269 421.013C61.1709 422.029 60.6749 422.576 60.6299 422.542C60.5859 422.507 60.9979 421.895 61.7789 420.82C62.6709 419.628 63.7979 418.12 65.1409 416.326L65.3119 416.097L65.5409 416.283C67.5499 417.911 69.9169 419.83 72.5199 421.94L72.0519 421.947C73.3979 420.765 74.8089 419.525 76.2659 418.246C77.4999 417.171 78.7019 416.123 79.8549 415.118L80.0759 414.925L80.3109 415.098C83.7009 417.59 86.4129 420.225 88.3429 422.391L87.9669 422.376C91.0219 419.602 92.2869 417.332 92.4049 417.422Z" fill="#263238"/>
<path d="M587.22 423.793H151.299C143.254 423.793 136.732 417.271 136.732 409.226V130.824C136.732 122.779 143.254 116.257 151.299 116.257H587.22C595.265 116.257 601.787 122.779 601.787 130.824V409.226C601.787 417.271 595.265 423.793 587.22 423.793Z" fill="#455A64"/>
<path d="M607.561 430.841H139.304C129.475 430.841 121.506 422.873 121.506 413.043V403.931H625.358V413.043C625.359 422.872 617.391 430.841 607.561 430.841Z" fill="#455A64"/>
<path d="M323.414 401.047L329.667 410.993H417.646L423.451 401.047H323.414Z" fill="#263238"/>
<path d="M597.791 401.047C597.791 401.214 494.571 401.348 367.273 401.348C239.93 401.348 136.732 401.213 136.732 401.047C136.732 400.881 239.93 400.746 367.273 400.746C494.571 400.746 597.791 400.881 597.791 401.047Z" fill="#263238"/>
<path d="M583.377 392.916H153.322C151.514 392.916 150.049 391.451 150.049 389.643V137.214C150.049 135.406 151.514 133.941 153.322 133.941H583.377C585.184 133.941 586.65 135.406 586.65 137.213V389.644C586.65 391.451 585.184 392.916 583.377 392.916Z" fill="#EBEBEB"/>
<path d="M586.182 393.295H149.582L150.049 153.295H586.182V393.295Z" fill="white"/>
<path d="M185.857 143.942C185.857 145.868 184.296 147.429 182.37 147.429C180.444 147.429 178.884 145.868 178.884 143.942C178.884 142.016 180.445 140.456 182.37 140.456C184.295 140.456 185.857 142.016 185.857 143.942Z" fill="#263238"/>
<path d="M164.724 143.942C164.724 145.868 163.163 147.429 161.237 147.429C159.312 147.429 157.75 145.868 157.75 143.942C157.75 142.016 159.312 140.456 161.237 140.456C163.163 140.456 164.724 142.016 164.724 143.942Z" fill="#263238"/>
<path d="M174.868 143.942C174.868 145.868 173.307 147.429 171.381 147.429C169.455 147.429 167.894 145.868 167.894 143.942C167.894 142.016 169.455 140.456 171.381 140.456C173.307 140.456 174.868 142.016 174.868 143.942Z" fill="#263238"/>
<path d="M586.65 370.12H149.582V393.296H586.65V370.12Z" fill="#263238"/>
<path d="M166.094 384.39V385.132H162.614V384.545L164.49 382.764C164.948 382.326 165.029 382.049 165.029 381.787C165.029 381.355 164.732 381.105 164.152 381.105C163.694 381.105 163.309 381.26 163.046 381.597L162.432 381.125C162.796 380.633 163.451 380.342 164.226 380.342C165.251 380.342 165.912 380.861 165.912 381.698C165.912 382.156 165.784 382.575 165.129 383.189L163.868 384.39H166.094Z" fill="white"/>
<path d="M166.568 382.049C166.568 381.712 166.817 381.489 167.121 381.489C167.424 381.489 167.674 381.712 167.674 382.049C167.674 382.372 167.424 382.608 167.121 382.608C166.817 382.608 166.568 382.372 166.568 382.049ZM166.568 384.619C166.568 384.281 166.817 384.06 167.121 384.06C167.424 384.06 167.674 384.281 167.674 384.619C167.674 384.942 167.424 385.178 167.121 385.178C166.817 385.179 166.568 384.943 166.568 384.619Z" fill="white"/>
<path d="M169.871 380.41V385.132H168.995V381.146H167.996V380.41H169.871Z" fill="white"/>
<path d="M175.016 384.06H174.179V385.132H173.329V384.06H170.739V383.452L173.066 380.41H174.004L171.811 383.318H173.356V382.366H174.179V383.318H175.016V384.06Z" fill="white"/>
<path d="M540.967 382.172H182.729V383.805H540.967V382.172Z" fill="#1A2647"/>
<path d="M294.411 380.413H182.461V384.769H294.411V380.413Z" fill="#FF725E"/>
<path d="M298.025 382.989C298.025 385.999 295.585 388.439 292.574 388.439C289.564 388.439 287.123 385.999 287.123 382.989C287.123 379.979 289.563 377.538 292.574 377.538C295.585 377.539 298.025 379.979 298.025 382.989Z" fill="#FF725E"/>
<path d="M549.99 382.936C549.99 383.875 549.228 384.468 548.263 384.468C546.975 384.468 546.219 383.639 546.219 382.12C546.219 380.501 547.163 379.611 548.533 379.611C549.005 379.611 549.457 379.712 549.774 379.914L549.451 380.575C549.195 380.406 548.884 380.346 548.554 380.346C547.664 380.346 547.104 380.9 547.104 381.972V381.979C547.388 381.648 547.84 381.487 548.365 381.487C549.296 381.487 549.99 382.052 549.99 382.936ZM549.14 382.977C549.14 382.485 548.769 382.175 548.196 382.175C547.629 382.175 547.238 382.518 547.238 382.984C547.238 383.429 547.589 383.779 548.216 383.779C548.763 383.779 549.14 383.469 549.14 382.977Z" fill="white"/>
<path d="M550.417 381.318C550.417 380.981 550.666 380.758 550.97 380.758C551.273 380.758 551.523 380.981 551.523 381.318C551.523 381.641 551.273 381.877 550.97 381.877C550.665 381.877 550.417 381.641 550.417 381.318ZM550.417 383.888C550.417 383.55 550.666 383.329 550.97 383.329C551.273 383.329 551.523 383.55 551.523 383.888C551.523 384.211 551.273 384.448 550.97 384.448C550.665 384.447 550.417 384.211 550.417 383.888Z" fill="white"/>
<path d="M552.087 382.04C552.087 380.488 552.936 379.611 554.056 379.611C555.183 379.611 556.033 380.488 556.033 382.04C556.033 383.59 555.183 384.469 554.056 384.469C552.937 384.468 552.087 383.59 552.087 382.04ZM555.15 382.04C555.15 380.9 554.706 380.374 554.057 380.374C553.417 380.374 552.971 380.9 552.971 382.04C552.971 383.18 553.417 383.705 554.057 383.705C554.705 383.705 555.15 383.18 555.15 382.04Z" fill="white"/>
<path d="M556.621 382.04C556.621 380.488 557.47 379.611 558.59 379.611C559.717 379.611 560.567 380.488 560.567 382.04C560.567 383.59 559.718 384.469 558.59 384.469C557.471 384.468 556.621 383.59 556.621 382.04ZM559.684 382.04C559.684 380.9 559.239 380.374 558.591 380.374C557.951 380.374 557.505 380.9 557.505 382.04C557.505 383.18 557.95 383.705 558.591 383.705C559.239 383.705 559.684 383.18 559.684 382.04Z" fill="white"/>
<path d="M568.196 381.746H566.562V377.038H571.262V378.671H568.196V381.746Z" fill="white"/>
<path d="M571.266 387.891H566.557V383.192H568.19V386.258H571.266V387.891Z" fill="white"/>
<path d="M578.765 387.891H574.065V386.258H577.131V383.182H578.765V387.891Z" fill="white"/>
<path d="M578.769 381.737H577.135V378.671H574.06V377.038H578.769V381.737Z" fill="white"/>
<path d="M209.454 167.565H183.72L170.853 189.852L183.72 212.138H209.454L222.321 189.852L209.454 167.565Z" fill="#EBEBEB"/>
<path d="M185.82 194.214C184.67 192.941 183.51 191.654 182.672 190.157C181.834 188.66 181.334 186.914 181.611 185.221C181.773 184.231 182.194 183.288 182.261 182.287C182.353 180.91 181.774 179.471 182.262 178.18C183.025 176.162 185.741 175.851 187.388 174.457C188.67 173.372 189.295 171.609 190.706 170.696C191.938 169.898 193.522 169.916 194.975 170.121C196.429 170.327 197.891 170.693 199.346 170.498C200.383 170.358 201.36 169.939 202.376 169.688C203.392 169.437 204.525 169.37 205.43 169.896C206.335 170.422 206.843 171.706 206.249 172.568C207.935 171.791 210.076 173.105 210.538 174.903C210.999 176.701 210.076 178.644 208.647 179.83C207.219 181.016 205.371 181.568 203.547 181.911C198.382 182.884 192.78 182.335 188.329 179.54" fill="#263238"/>
<path d="M209.679 199.714C209.505 196.524 208.613 189.985 207.736 184.075C206.793 177.719 201.129 173.152 194.718 173.581L194.081 173.624C187.24 174.485 184.149 180.775 185.199 187.59L187.207 212.138H203.902C203.902 212.138 203.507 207.831 203.505 207.789C203.505 207.789 210.039 206.32 209.679 199.714Z" fill="#FFBE9D"/>
<path d="M203.51 207.693C203.51 207.693 199.361 208.311 194.741 205.823C194.741 205.823 197.093 210.437 203.64 209.402L203.51 207.693Z" fill="#EB996E"/>
<path d="M205.611 189.738C205.662 190.235 205.283 190.687 204.766 190.75C204.249 190.812 203.788 190.462 203.737 189.965C203.686 189.469 204.064 189.015 204.581 188.953C205.099 188.89 205.561 189.242 205.611 189.738Z" fill="#263238"/>
<path d="M206.533 187.396C206.424 187.527 205.675 187.046 204.66 187.117C203.646 187.173 202.936 187.745 202.818 187.628C202.76 187.577 202.864 187.347 203.173 187.089C203.476 186.833 204.005 186.568 204.638 186.528C205.27 186.489 205.817 186.686 206.138 186.904C206.466 187.122 206.587 187.337 206.533 187.396Z" fill="#263238"/>
<path d="M196.029 190.423C196.08 190.92 195.701 191.372 195.184 191.435C194.667 191.498 194.206 191.147 194.155 190.65C194.104 190.153 194.483 189.7 194.999 189.638C195.517 189.575 195.978 189.927 196.029 190.423Z" fill="#263238"/>
<path d="M196.574 188.252C196.465 188.383 195.715 187.902 194.701 187.973C193.687 188.029 192.977 188.601 192.859 188.484C192.801 188.433 192.904 188.203 193.214 187.945C193.517 187.688 194.046 187.424 194.678 187.384C195.31 187.345 195.857 187.542 196.179 187.76C196.507 187.978 196.628 188.194 196.574 188.252Z" fill="#263238"/>
<path d="M200.759 195.529C200.75 195.472 201.374 195.32 202.387 195.121C202.644 195.077 202.886 195.009 202.918 194.829C202.966 194.638 202.839 194.366 202.694 194.073C202.408 193.462 202.11 192.822 201.796 192.152C200.544 189.415 199.62 187.157 199.73 187.108C199.841 187.059 200.945 189.237 202.197 191.974C202.5 192.649 202.788 193.293 203.064 193.909C203.182 194.197 203.373 194.519 203.266 194.917C203.209 195.115 203.029 195.268 202.865 195.324C202.702 195.386 202.557 195.398 202.429 195.415C201.404 195.539 200.767 195.586 200.759 195.529Z" fill="#263238"/>
<path d="M196.571 184.26C196.489 184.542 195.468 184.48 194.287 184.704C193.102 184.903 192.165 185.316 191.991 185.079C191.913 184.965 192.063 184.695 192.433 184.402C192.8 184.11 193.397 183.814 194.106 183.687C194.815 183.561 195.477 183.632 195.922 183.779C196.37 183.925 196.605 184.126 196.571 184.26Z" fill="#263238"/>
<path d="M205.964 184.485C205.801 184.727 205.086 184.535 204.245 184.58C203.403 184.595 202.704 184.839 202.524 184.609C202.444 184.497 202.541 184.259 202.837 184.02C203.129 183.782 203.629 183.57 204.208 183.549C204.787 183.529 205.301 183.704 205.609 183.921C205.921 184.137 206.035 184.368 205.964 184.485Z" fill="#263238"/>
<path d="M186.065 192.441C185.949 192.4 181.44 191.403 181.886 195.906C182.332 200.409 187.212 198.941 187.207 198.811C187.202 198.682 186.065 192.441 186.065 192.441Z" fill="#FFBE9D"/>
<path d="M185.212 197.333C185.191 197.32 185.139 197.396 185.012 197.47C184.889 197.542 184.67 197.605 184.427 197.54C183.934 197.412 183.458 196.697 183.356 195.887C183.304 195.478 183.351 195.08 183.464 194.742C183.569 194.399 183.759 194.148 183.995 194.081C184.228 194.002 184.411 194.129 184.479 194.25C184.552 194.37 184.532 194.463 184.557 194.468C184.571 194.478 184.646 194.383 184.592 194.201C184.565 194.114 184.501 194.012 184.387 193.936C184.27 193.859 184.107 193.83 183.942 193.864C183.597 193.922 183.316 194.273 183.192 194.643C183.049 195.017 182.986 195.466 183.044 195.925C183.163 196.829 183.711 197.633 184.381 197.756C184.706 197.807 184.961 197.686 185.087 197.566C185.214 197.443 185.228 197.34 185.212 197.333Z" fill="#EB996E"/>
<path d="M207.403 177.909C207.094 179.702 203.458 181.344 200.444 181.256C197.665 181.175 196.292 179.796 194.273 178.816C192.995 178.196 192.995 178.196 191.261 178.478C189.859 178.706 189.131 180.36 188.344 181.543C189.844 184.812 189.238 188.614 188.602 192.155C188.532 192.546 188.445 192.969 188.146 193.231C187.64 193.677 186.819 193.41 186.321 192.954C185.524 192.224 185.161 191.142 184.9 190.093C184.305 187.704 184.076 185.203 184.454 182.77C184.832 180.337 185.838 177.974 187.501 176.158C189.578 173.888 192.615 172.58 195.687 172.422C198.76 172.264 201.845 173.215 204.419 174.901C205.612 175.684 206.728 176.651 207.403 177.909Z" fill="#263238"/>
<path d="M201.423 197.81C200.658 197.453 199.893 197.096 199.128 196.74C198.996 196.678 198.855 196.615 198.71 196.635C198.547 196.657 198.417 196.778 198.313 196.905C197.781 197.55 197.646 198.523 198.059 199.251C198.471 199.979 199.441 200.363 200.213 200.043C201.026 199.706 201.422 198.761 201.485 197.883L201.423 197.81Z" fill="#EB996E"/>
<path d="M200.284 200.204C200.32 200.249 199.805 200.573 198.939 200.325C198.521 200.199 198.044 199.878 197.749 199.358C197.448 198.852 197.338 198.127 197.598 197.476C197.722 197.153 197.916 196.867 198.153 196.642C198.274 196.528 198.396 196.436 198.544 196.349C198.689 196.242 199.001 196.225 199.149 196.314C199.674 196.606 200.027 196.855 200.379 197.081C201.052 197.527 201.449 197.834 201.413 197.896C201.377 197.958 200.913 197.764 200.193 197.399C199.774 197.18 199.369 196.969 198.968 196.759C198.872 196.733 198.882 196.733 198.79 196.781C198.7 196.839 198.594 196.921 198.507 197.009C198.328 197.187 198.179 197.412 198.083 197.662C197.883 198.165 197.952 198.708 198.169 199.127C198.384 199.551 198.732 199.831 199.067 199.979C199.757 200.275 200.271 200.121 200.284 200.204Z" fill="#263238"/>
<path d="M199.56 189.852C199.509 189.854 199.515 189.433 199.315 188.728C199.117 188.036 198.636 187.029 197.591 186.26C196.581 185.488 194.93 185.062 193.337 185.66C191.757 186.209 190.397 187.89 190.415 189.851C190.397 191.812 191.758 193.494 193.337 194.043C194.93 194.641 196.582 194.215 197.591 193.443C198.635 192.673 199.116 191.666 199.314 190.975C199.515 190.27 199.509 189.849 199.56 189.852C199.578 189.852 199.59 189.955 199.597 190.155C199.608 190.354 199.589 190.651 199.511 191.025C199.365 191.761 198.913 192.864 197.814 193.737C196.753 194.61 194.949 195.132 193.173 194.495C191.413 193.915 189.872 192.045 189.893 189.852C189.873 187.659 191.413 185.79 193.173 185.21C194.949 184.573 196.753 185.095 197.814 185.968C198.913 186.84 199.365 187.943 199.511 188.68C199.589 189.053 199.608 189.351 199.597 189.55C199.59 189.748 199.578 189.852 199.56 189.852Z" fill="#263238"/>
<path d="M210.791 189.41C210.741 189.412 210.746 189.002 210.549 188.316C210.355 187.642 209.886 186.662 208.869 185.914C207.886 185.163 206.278 184.749 204.729 185.332C203.192 185.867 201.869 187.502 201.886 189.41C201.868 191.318 203.192 192.954 204.729 193.489C206.279 194.072 207.887 193.658 208.87 192.906C209.887 192.157 210.356 191.177 210.55 190.504C210.746 189.818 210.741 189.408 210.791 189.41C210.809 189.41 210.822 189.511 210.829 189.705C210.84 189.899 210.822 190.189 210.746 190.553C210.605 191.271 210.165 192.347 209.093 193.198C208.059 194.05 206.299 194.56 204.566 193.939C202.849 193.374 201.345 191.549 201.366 189.409C201.346 187.269 202.849 185.445 204.566 184.88C206.299 184.259 208.059 184.768 209.093 185.62C210.165 186.471 210.605 187.547 210.746 188.265C210.822 188.629 210.84 188.919 210.829 189.113C210.822 189.309 210.809 189.41 210.791 189.41Z" fill="#263238"/>
<path d="M201.626 188.373C201.524 188.469 201.078 188.181 200.477 188.2C199.875 188.2 199.443 188.505 199.336 188.415C199.199 188.343 199.618 187.694 200.468 187.68C201.316 187.667 201.759 188.294 201.626 188.373Z" fill="#263238"/>
<path d="M190.438 189.183C190.524 189.298 189.651 190.096 188.487 190.964C187.324 191.833 186.311 192.443 186.225 192.328C186.139 192.213 187.012 191.415 188.176 190.547C189.339 189.679 190.352 189.068 190.438 189.183Z" fill="#263238"/>
<path d="M283.254 189.624C283.254 189.768 271.686 189.885 257.418 189.885C243.146 189.885 231.58 189.767 231.58 189.624C231.58 189.481 243.146 189.365 257.418 189.365C271.685 189.365 283.254 189.481 283.254 189.624Z" fill="#263238"/>
<path d="M259.357 195.032C259.357 195.176 253.214 195.292 245.638 195.292C238.059 195.292 231.918 195.175 231.918 195.032C231.918 194.889 238.06 194.772 245.638 194.772C253.214 194.772 259.357 194.888 259.357 195.032Z" fill="#263238"/>
<path d="M438.062 229.58C438.062 229.58 451.796 236.272 456.619 253.551C461.442 270.83 476.214 315.829 476.214 315.829C476.214 315.829 484.655 325.759 485.559 333.113C486.463 340.467 484.655 358.253 481.942 361.569C479.229 364.885 475.36 364.336 475.36 364.336L439.832 360.966L425.842 267.29L438.062 229.58Z" fill="#A1A9BC"/>
<path d="M320.574 227.943C320.574 227.943 295.171 235.911 288.84 242.844L309.641 339.612L309.309 370.144H429.747C429.747 368.637 430.827 268.77 430.827 268.77L438.062 229.581L395.255 222.045L386.814 215.413L339.184 217.825L331.949 225.06L320.574 227.943Z" fill="#A1A9BC"/>
<g opacity="0.3">
<path d="M330.223 311.894C329.852 311.073 329.321 310.186 328.439 310.004C326.988 309.705 326.018 311.419 325.525 312.817C321.612 323.894 316.437 334.082 309.703 343.709L309.394 358.566C316.415 352.658 323.338 346.329 327.814 338.318C332.29 330.307 334.002 320.256 330.223 311.894Z" fill="black"/>
</g>
<path d="M288.84 242.844C288.84 242.844 280.47 254.255 276.994 261.703C273.518 269.151 244.718 331.717 242.98 338.173C241.242 344.628 236.773 364.987 249.932 369.704H276.994L304.157 314.778L305.546 251.027L288.84 242.844Z" fill="#A1A9BC"/>
<path d="M278.727 330.027C278.691 330.068 278.124 329.495 276.878 328.786C275.634 328.083 273.702 327.275 271.198 326.729C269.948 326.455 268.558 326.241 267.058 326.147C265.557 326.053 263.946 326.08 262.311 326.456C259.028 327.188 255.766 329.261 253.2 332.175C250.595 335.085 248.987 338.523 248.042 341.766C247.083 345.016 246.673 348.064 246.414 350.619C246.161 353.179 246.066 355.263 245.978 356.702C245.936 357.375 245.901 357.923 245.874 358.359C245.845 358.738 245.821 358.937 245.803 358.936C245.785 358.935 245.774 358.736 245.769 358.356C245.771 357.919 245.773 357.369 245.776 356.695C245.803 355.253 245.841 353.163 246.048 350.586C246.261 348.014 246.635 344.936 247.582 341.631C248.513 338.339 250.145 334.806 252.811 331.83C255.436 328.848 258.804 326.719 262.207 325.988C263.904 325.612 265.57 325.602 267.087 325.716C268.612 325.83 270.018 326.068 271.281 326.37C273.809 326.97 275.75 327.843 276.982 328.612C277.597 329.001 278.042 329.35 278.324 329.607C278.601 329.871 278.739 330.014 278.727 330.027Z" fill="#263238"/>
<path d="M265.894 319.091C265.891 319.055 266.214 319.005 266.804 318.945C267.393 318.873 268.254 318.856 269.314 318.911C270.376 318.957 271.634 319.139 273.005 319.456C274.369 319.799 275.843 320.293 277.315 320.985C278.78 321.694 280.091 322.528 281.216 323.373C282.326 324.239 283.259 325.102 283.963 325.899C284.673 326.688 285.201 327.369 285.516 327.871C285.84 328.368 286.004 328.65 285.975 328.67C285.895 328.726 285.161 327.642 283.696 326.152C282.97 325.402 282.03 324.584 280.928 323.757C279.811 322.951 278.522 322.148 277.09 321.455C275.651 320.779 274.216 320.283 272.887 319.922C271.551 319.586 270.324 319.37 269.284 319.278C267.205 319.077 265.9 319.189 265.894 319.091Z" fill="#263238"/>
<path d="M290.361 316.081C290.355 316.116 289.908 316.081 289.109 315.986C288.311 315.883 287.152 315.767 285.719 315.661C282.856 315.444 278.875 315.392 274.524 315.907C270.173 316.433 266.316 317.423 263.584 318.309C262.217 318.75 261.118 319.137 260.367 319.425C259.613 319.706 259.187 319.846 259.173 319.813C259.159 319.78 259.556 319.577 260.29 319.237C261.02 318.89 262.105 318.449 263.466 317.96C266.185 316.978 270.068 315.921 274.462 315.39C278.855 314.87 282.878 314.981 285.752 315.294C287.19 315.448 288.348 315.621 289.14 315.786C289.933 315.942 290.368 316.046 290.361 316.081Z" fill="#263238"/>
<path d="M367.443 262.626C367.432 262.634 367.338 262.522 367.167 262.3C366.974 262.041 366.73 261.715 366.429 261.311C365.766 260.393 364.851 259.124 363.708 257.542C361.372 254.246 358.114 249.649 354.282 244.242L354.702 244.183C353.244 248.466 351.634 253.19 349.941 258.162L349.834 258.477L349.561 258.301C349.384 258.187 349.192 258.064 349 257.94C346.76 256.52 344.785 254.813 343.107 252.964C341.437 251.106 340.051 249.124 338.9 247.146C336.599 243.18 335.212 239.267 334.27 235.953C333.334 232.629 332.845 229.877 332.517 227.981C332.359 227.073 332.233 226.347 332.138 225.8C332.092 225.551 332.042 225.368 332.011 225.242C331.964 225.127 331.941 225.063 331.948 225.057C332.059 225.01 332.352 226.058 332.716 227.943C333.104 229.826 333.647 232.559 334.623 235.85C335.604 239.132 337.018 242.999 339.313 246.903C340.461 248.85 341.836 250.797 343.484 252.62C345.139 254.433 347.08 256.105 349.277 257.499C349.466 257.62 349.654 257.742 349.828 257.853L349.448 257.992C351.156 253.025 352.78 248.305 354.251 244.027L354.404 243.581L354.671 243.967C358.44 249.417 361.644 254.052 363.942 257.375C365.038 258.99 365.916 260.284 366.552 261.221C366.828 261.642 367.052 261.983 367.229 262.253C367.381 262.492 367.454 262.619 367.443 262.626Z" fill="#263238"/>
<g opacity="0.3">
<path d="M398.798 308.821C397.682 320.009 400.152 331.526 405.757 341.273C411.362 351.02 419.573 359.706 429.803 364.369C430.134 354.438 429.657 342.74 429.987 332.808L398.798 308.821Z" fill="black"/>
</g>
<path d="M397.665 295.746C397.665 295.746 393.29 296.96 396.571 305.923C399.852 314.885 400.946 314.344 403.133 322.728C405.32 331.113 407.872 338.764 411.7 343.503C415.528 348.242 429.746 357.903 429.746 357.903L442.506 345.873C442.506 345.873 440.403 336.907 440.908 330.818C441.413 324.729 442.689 309.782 442.506 307.23C442.324 304.678 439.589 298.481 439.589 298.481V294.241L433.027 274.055C433.027 274.055 429.381 272.414 428.106 278.247L425.919 272.056C425.919 272.056 422.456 271.503 421.544 278.611C420.633 285.72 422.273 295.563 422.273 295.563L420.45 307.958L417.716 316.343L415.346 316.708C415.346 316.708 411.779 315.734 409.826 309.021C407.873 302.308 402.587 294.288 397.665 295.746Z" fill="#FFBE9D"/>
<path d="M438.234 327.452C438.22 327.453 438.2 327.295 438.175 326.992C438.151 326.644 438.121 326.203 438.083 325.656C438.017 324.433 437.927 322.742 437.813 320.636C437.617 316.283 437.343 310.227 437.024 303.156L437.081 303.303C436.496 302.601 435.449 302.393 434.499 302.63C433.534 302.863 432.669 303.465 432.134 304.363C431.019 306.156 430.959 308.493 430.61 310.749C429.918 315.858 429.259 320.723 428.659 325.156C428.356 327.37 428.035 329.478 427.603 331.428C427.184 333.381 426.594 335.158 426.021 336.745C425.457 338.337 424.958 339.777 424.648 341.074C424.336 342.369 424.212 343.515 424.236 344.449C424.275 346.333 424.822 347.288 424.741 347.308C424.725 347.315 424.62 347.076 424.435 346.609C424.285 346.134 424.073 345.414 424.034 344.457C423.978 343.504 424.076 342.329 424.365 341.008C424.652 339.686 425.131 338.224 425.673 336.624C426.224 335.026 426.783 333.275 427.181 331.336C427.591 329.401 427.893 327.305 428.183 325.091C428.771 320.656 429.416 315.789 430.094 310.679C430.255 309.54 430.378 308.415 430.576 307.292C430.778 306.177 431.088 305.056 431.701 304.088C432.284 303.105 433.304 302.383 434.384 302.14C435.45 301.872 436.725 302.106 437.454 302.987L437.508 303.053L437.511 303.135C437.754 310.209 437.962 316.268 438.112 320.623C438.166 322.731 438.21 324.424 438.242 325.649C438.248 326.197 438.252 326.639 438.256 326.988C438.255 327.293 438.248 327.451 438.234 327.452Z" fill="#EB996E"/>
<path d="M431.258 304.482C431.227 304.494 431.024 304.094 430.72 303.341C430.421 302.587 430.023 301.479 429.652 300.074C429.279 298.67 428.934 296.967 428.736 295.052C428.638 294.096 428.569 293.073 428.681 292.008C428.79 290.952 429.104 289.83 429.781 288.883C430.357 288.061 431.179 287.405 432.114 287.132L432.31 287.075L432.41 287.251C434.258 290.511 435.863 293.389 436.992 295.459C437.51 296.428 437.946 297.244 438.299 297.906C438.596 298.484 438.746 298.808 438.718 298.824C438.69 298.84 438.488 298.547 438.141 297.996C437.751 297.355 437.271 296.565 436.7 295.626C435.492 293.601 433.832 290.755 431.965 287.505L432.26 287.624C431.456 287.864 430.729 288.438 430.206 289.184C429.593 290.042 429.299 291.062 429.187 292.065C429.074 293.071 429.128 294.063 429.212 295.007C429.381 296.898 429.685 298.586 430.008 299.987C430.329 301.389 430.671 302.505 430.91 303.275C431.154 304.042 431.294 304.467 431.258 304.482Z" fill="#EB996E"/>
<path d="M428.208 306.122C428.172 306.123 428.132 305.709 428.09 304.96C428.055 304.1 428.012 303.04 427.961 301.787C427.875 299.108 427.792 295.406 427.733 291.317C427.702 287.232 427.543 283.517 427.895 280.825C428.065 279.484 428.333 278.417 428.579 277.703C428.822 276.987 429.021 276.618 429.047 276.628C429.137 276.657 428.49 278.206 428.262 280.864C428.008 283.512 428.223 287.217 428.254 291.309C428.313 295.398 428.338 299.101 428.33 301.782C428.316 303.036 428.303 304.097 428.293 304.957C428.272 305.707 428.244 306.122 428.208 306.122Z" fill="#EB996E"/>
<path d="M417.419 339.734C417.345 339.673 418.144 338.733 419.131 337.029C419.631 336.181 420.139 335.124 420.616 333.917C421.07 332.701 421.479 331.331 421.753 329.859C422.011 328.383 422.107 326.956 422.107 325.658C422.082 324.361 421.976 323.192 421.804 322.223C421.475 320.282 421.055 319.122 421.146 319.09C421.18 319.078 421.307 319.358 421.509 319.88C421.721 320.398 421.952 321.177 422.165 322.155C422.387 323.133 422.534 324.323 422.586 325.649C422.613 326.976 422.529 328.44 422.265 329.951C421.984 331.459 421.55 332.86 421.061 334.093C420.549 335.318 419.995 336.381 419.445 337.219C418.903 338.061 418.414 338.71 418.035 339.121C417.664 339.539 417.446 339.757 417.419 339.734Z" fill="#EB996E"/>
<path d="M439.817 333.463L450.89 337.306C450.89 337.306 461.462 331.838 468.753 337.306C476.044 342.774 482.377 357.186 480.372 363.019C480.372 363.019 475.34 369.232 471.512 370.143C467.684 371.054 452.803 367.45 446.612 366.146C440.404 364.839 429.745 357.903 429.745 357.903L439.817 333.463Z" fill="#FFBE9D"/>
<path d="M441.178 349.776C441.142 349.776 441.102 349.427 441.06 348.796C441.016 348.046 440.963 347.156 440.902 346.121C440.785 343.862 440.632 340.738 440.586 337.281C440.534 333.824 440.632 330.687 440.841 328.427C440.939 327.297 441.063 326.385 441.176 325.76C441.29 325.135 441.37 324.793 441.406 324.799C441.487 324.812 441.315 326.199 441.209 328.453C441.095 330.707 441.055 333.826 441.107 337.275C441.17 340.655 441.226 343.711 441.27 346.11C441.283 347.242 441.28 348.159 441.262 348.793C441.242 349.426 441.214 349.776 441.178 349.776Z" fill="#EB996E"/>
<path d="M477.69 336.872C477.607 336.949 476.473 335.374 474.008 333.552C471.582 331.734 467.64 329.796 462.974 329.534C458.305 329.281 454.174 330.775 451.563 332.315C448.912 333.855 447.613 335.296 447.538 335.21C447.517 335.19 447.824 334.82 448.451 334.222C449.076 333.622 450.053 332.821 451.374 331.999C453.981 330.35 458.202 328.754 463.002 329.014C467.8 329.283 471.82 331.333 474.23 333.258C475.453 334.22 476.336 335.123 476.892 335.789C477.449 336.453 477.714 336.854 477.69 336.872Z" fill="#263238"/>
<path d="M476.268 327.639C476.197 327.747 474.718 326.253 471.661 325.099C468.652 323.92 463.985 323.376 459.195 324.725C456.804 325.392 454.618 326.348 452.748 327.408C450.88 328.478 449.319 329.647 448.078 330.707C446.835 331.767 445.885 332.693 445.233 333.337C444.582 333.982 444.219 334.339 444.191 334.313C444.166 334.291 444.478 333.888 445.086 333.197C445.695 332.507 446.611 331.536 447.836 330.429C449.058 329.322 450.62 328.104 452.508 326.992C454.4 325.889 456.617 324.904 459.055 324.223C463.963 322.84 468.754 323.461 471.795 324.756C473.331 325.387 474.475 326.111 475.203 326.68C475.578 326.95 475.83 327.211 476.014 327.368C476.192 327.533 476.279 327.626 476.268 327.639Z" fill="#263238"/>
<path d="M476.359 319.637C476.331 319.74 474.395 319.148 471.18 318.713C469.575 318.485 467.645 318.357 465.504 318.353C463.363 318.385 461.012 318.561 458.575 318.977C456.142 319.418 453.871 320.055 451.848 320.757C449.837 321.491 448.067 322.27 446.635 323.033C443.761 324.54 442.144 325.757 442.083 325.669C442.062 325.64 442.457 325.327 443.192 324.783C443.556 324.506 444.011 324.18 444.567 323.843C445.119 323.501 445.732 323.082 446.461 322.708C447.883 321.896 449.658 321.073 451.684 320.305C453.722 319.57 456.02 318.91 458.484 318.464C460.952 318.043 463.336 317.879 465.503 317.874C467.67 317.904 469.618 318.072 471.232 318.349C472.045 318.452 472.764 318.636 473.4 318.769C474.038 318.896 474.576 319.047 475.013 319.183C475.891 319.443 476.369 319.603 476.359 319.637Z" fill="#263238"/>
<path d="M391.524 221.714C391.524 221.714 392.038 222.672 392.291 224.658C392.563 226.632 392.525 229.586 391.871 233.248C391.542 235.078 391.098 237.089 390.44 239.235C389.752 241.384 388.711 243.581 387.532 245.886C385.147 250.485 382.146 255.5 378.67 260.848L378.264 261.473L378.263 260.725C378.258 257.191 378.252 253.482 378.246 249.629L378.635 249.815C375.658 252.218 372.524 254.748 369.296 257.353L369.377 257.234C367.213 264.093 365.788 271.73 365.223 279.682C364.309 291.852 365.046 303.492 365.62 314.052C366.112 324.627 366.434 334.149 366.764 342.145C367.081 350.141 367.37 356.61 367.611 361.078C367.742 363.292 367.844 365.02 367.915 366.221C367.953 366.79 367.982 367.234 368.004 367.558C368.021 367.86 368.017 368.015 368.017 368.015C368.017 368.015 367.986 367.863 367.951 367.563C367.917 367.24 367.87 366.797 367.811 366.23C367.7 365.057 367.557 363.324 367.409 361.091C367.106 356.625 366.761 350.157 366.396 342.162C366.038 334.16 365.613 324.643 365.141 314.077C364.541 303.525 363.787 291.86 364.704 279.643C365.271 271.659 366.709 263.979 368.898 257.08L368.921 257.008L368.98 256.96C372.214 254.361 375.353 251.838 378.335 249.441L378.725 249.128L378.724 249.628C378.718 253.48 378.712 257.19 378.707 260.724L378.3 260.601C385.17 249.947 390.757 240.69 391.617 233.2C392.305 229.565 392.383 226.635 392.156 224.673C392.06 223.688 391.867 222.953 391.745 222.457C391.589 221.972 391.524 221.714 391.524 221.714Z" fill="#263238"/>
<path d="M373.588 350.709L373.231 350.697C371.784 350.738 370.495 352.061 370.491 353.508C370.487 354.955 371.768 356.286 373.214 356.336C374.661 356.386 376.031 355.148 376.127 353.704C376.223 352.259 375.029 350.85 373.588 350.709Z" fill="#1A2647"/>
<path d="M373.588 312.167L373.231 312.155C371.784 312.197 370.495 313.519 370.491 314.966C370.487 316.413 371.768 317.744 373.214 317.794C374.661 317.844 376.031 316.606 376.127 315.162C376.223 313.718 375.029 312.309 373.588 312.167Z" fill="#1A2647"/>
<path d="M373.214 277.686C374.661 277.736 376.031 276.498 376.127 275.054C376.223 273.61 375.029 272.201 373.588 272.059L373.231 272.047C371.784 272.089 370.495 273.411 370.491 274.858C370.486 276.305 371.768 277.636 373.214 277.686Z" fill="#1A2647"/>
<path d="M330.041 176.553C326.535 172.672 322.998 168.748 320.442 164.184C317.887 159.62 316.362 154.294 317.208 149.132C317.703 146.114 318.985 143.239 319.189 140.187C319.47 135.987 317.704 131.599 319.193 127.663C321.52 121.511 329.802 120.56 334.823 116.31C338.733 113 340.638 107.626 344.939 104.843C348.697 102.411 353.525 102.464 357.956 103.091C362.388 103.718 366.847 104.836 371.283 104.24C374.445 103.815 377.423 102.536 380.521 101.769C383.618 101.002 387.074 100.8 389.833 102.403C392.592 104.006 394.14 107.922 392.331 110.551C397.472 108.181 404.001 112.187 405.408 117.67C406.815 123.153 403.998 129.076 399.643 132.692C395.288 136.307 389.654 137.99 384.092 139.038C368.344 142.006 351.261 140.332 337.69 131.809" fill="#263238"/>
<path d="M385.403 229.498C384.634 223.537 384.005 218.563 383.966 217.945C383.966 217.945 403.888 213.468 402.79 193.325C402.259 183.59 399.534 163.629 396.86 145.599C393.988 126.236 376.705 112.336 357.173 113.643L355.231 113.773C334.372 116.397 324.948 135.578 328.148 156.356L339.403 226.027C339.403 226.027 344.206 241.439 354.478 244.107L367.443 262.627L369.586 254.654L379.25 246.241C379.25 246.241 381.467 243.842 384.014 239.149C386.095 235.314 385.657 231.369 385.403 229.498Z" fill="#FFBE9D"/>
<path d="M383.981 217.653C383.981 217.653 371.33 219.539 357.242 211.951C357.242 211.951 364.413 226.021 384.376 222.865L383.981 217.653Z" fill="#EB996E"/>
<path d="M390.387 162.907C390.543 164.421 389.388 165.801 387.81 165.992C386.234 166.182 384.829 165.113 384.674 163.598C384.519 162.084 385.673 160.702 387.248 160.511C388.826 160.321 390.232 161.393 390.387 162.907Z" fill="#263238"/>
<path d="M393.197 155.766C392.866 156.164 390.581 154.698 387.487 154.914C384.395 155.084 382.232 156.827 381.871 156.471C381.695 156.314 382.012 155.613 382.952 154.828C383.877 154.047 385.49 153.238 387.417 153.118C389.344 153 391.012 153.6 391.992 154.264C392.994 154.93 393.361 155.586 393.197 155.766Z" fill="#263238"/>
<path d="M361.168 164.996C361.323 166.51 360.169 167.89 358.591 168.081C357.016 168.272 355.61 167.202 355.455 165.688C355.3 164.174 356.454 162.792 358.03 162.601C359.607 162.41 361.013 163.482 361.168 164.996Z" fill="#263238"/>
<path d="M362.832 158.376C362.5 158.775 360.212 157.309 357.122 157.524C354.03 157.695 351.866 159.437 351.506 159.081C351.33 158.924 351.644 158.224 352.589 157.438C353.514 156.656 355.126 155.848 357.053 155.727C358.98 155.609 360.648 156.21 361.629 156.873C362.626 157.541 362.996 158.197 362.832 158.376Z" fill="#263238"/>
<path d="M375.592 180.564C375.566 180.389 377.466 179.928 380.555 179.322C381.34 179.188 382.077 178.981 382.174 178.433C382.322 177.85 381.935 177.021 381.49 176.127C380.62 174.266 379.709 172.314 378.752 170.269C374.936 161.923 372.117 155.04 372.454 154.889C372.792 154.739 376.159 161.38 379.975 169.727C380.897 171.786 381.778 173.749 382.617 175.628C382.975 176.506 383.558 177.489 383.234 178.7C383.061 179.304 382.51 179.772 382.013 179.942C381.517 180.13 381.073 180.169 380.684 180.218C377.56 180.595 375.616 180.739 375.592 180.564Z" fill="#263238"/>
<path d="M362.82 146.202C362.571 147.063 359.456 146.871 355.857 147.552C352.243 148.16 349.388 149.418 348.856 148.696C348.617 148.349 349.074 147.524 350.203 146.631C351.321 145.739 353.141 144.842 355.303 144.453C357.465 144.07 359.483 144.282 360.841 144.731C362.21 145.178 362.925 145.794 362.82 146.202Z" fill="#263238"/>
<path d="M391.461 146.89C390.964 147.629 388.784 147.042 386.22 147.179C383.651 147.226 381.52 147.968 380.971 147.266C380.729 146.924 381.022 146.197 381.926 145.469C382.815 144.744 384.342 144.098 386.107 144.033C387.871 143.971 389.439 144.506 390.379 145.166C391.332 145.828 391.678 146.531 391.461 146.89Z" fill="#263238"/>
<path d="M330.789 171.149C330.436 171.023 316.686 167.984 318.046 181.715C319.406 195.446 334.287 190.97 334.271 190.574C334.256 190.177 330.789 171.149 330.789 171.149Z" fill="#FFBE9D"/>
<path d="M328.186 186.065C328.121 186.027 327.963 186.256 327.577 186.482C327.201 186.701 326.535 186.893 325.793 186.696C324.29 186.307 322.84 184.125 322.528 181.657C322.369 180.411 322.514 179.195 322.859 178.166C323.179 177.12 323.759 176.354 324.477 176.152C325.187 175.912 325.747 176.298 325.953 176.668C326.175 177.034 326.115 177.316 326.19 177.333C326.232 177.364 326.462 177.074 326.295 176.518C326.211 176.251 326.018 175.943 325.67 175.711C325.314 175.475 324.816 175.387 324.312 175.492C323.261 175.67 322.404 176.739 322.024 177.868C321.587 179.008 321.395 180.378 321.574 181.777C321.936 184.535 323.609 186.984 325.651 187.361C326.642 187.517 327.419 187.147 327.803 186.781C328.194 186.399 328.236 186.085 328.186 186.065Z" fill="#EB996E"/>
<path d="M395.849 126.838C394.906 132.304 383.82 137.312 374.629 137.044C366.156 136.797 361.97 132.593 355.813 129.605C351.916 127.714 351.916 127.714 346.628 128.573C342.353 129.268 340.133 134.313 337.733 137.918C342.306 147.887 340.458 159.479 338.519 170.274C338.305 171.467 338.039 172.755 337.13 173.556C335.586 174.917 333.084 174.102 331.565 172.712C329.135 170.487 328.028 167.187 327.232 163.99C325.417 156.706 324.72 149.079 325.872 141.661C327.024 134.244 330.093 127.038 335.161 121.501C341.495 114.581 350.753 110.592 360.122 110.11C369.49 109.629 378.899 112.528 386.747 117.669C390.388 120.054 393.792 123.003 395.849 126.838Z" fill="#263238"/>
<path d="M377.615 187.52C375.282 186.432 372.949 185.344 370.616 184.256C370.214 184.068 369.783 183.876 369.343 183.935C368.847 184.001 368.45 184.372 368.132 184.758C366.509 186.724 366.099 189.692 367.356 191.91C368.613 194.128 371.568 195.3 373.924 194.325C376.405 193.298 377.61 190.417 377.804 187.739L377.615 187.52Z" fill="#EB996E"/>
<path d="M374.143 194.819C374.163 194.879 373.819 195.081 373.119 195.227C372.425 195.36 371.351 195.412 370.108 195.005C368.878 194.61 367.49 193.653 366.632 192.117C365.759 190.62 365.444 188.505 366.206 186.597C366.57 185.649 367.138 184.811 367.83 184.149C368.181 183.815 368.545 183.54 368.965 183.291C369.184 183.169 369.458 183.05 369.772 183.034C370.081 183.017 370.358 183.096 370.584 183.191C371.041 183.395 371.338 183.615 371.675 183.81C372.001 184.01 372.32 184.206 372.629 184.396C373.232 184.773 373.801 185.129 374.333 185.462C376.409 186.78 377.656 187.657 377.584 187.781C377.512 187.905 376.133 187.253 373.963 186.099C373.411 185.801 372.821 185.481 372.195 185.143C371.877 184.967 371.55 184.787 371.215 184.602C370.88 184.423 370.517 184.195 370.226 184.081C369.907 183.97 369.768 183.978 369.46 184.154C369.155 184.347 368.823 184.601 368.54 184.883C367.964 185.452 367.487 186.167 367.179 186.97C366.538 188.581 366.769 190.332 367.475 191.657C368.173 193.001 369.301 193.876 370.367 194.316C371.441 194.762 372.415 194.829 373.077 194.824C373.743 194.808 374.121 194.743 374.143 194.819Z" fill="#263238"/>
<path d="M371.935 163.252C371.854 163.259 371.946 161.973 371.388 159.775C370.837 157.62 369.4 154.451 366.16 152C364.555 150.803 362.533 149.786 360.202 149.379C357.887 148.986 355.276 149.062 352.792 150.01C351.542 150.446 350.336 151.103 349.228 151.933C348.107 152.747 347.09 153.757 346.252 154.927C344.519 157.233 343.543 160.196 343.515 163.25C343.542 166.305 344.518 169.269 346.251 171.576C347.089 172.747 348.107 173.757 349.227 174.571C350.335 175.401 351.541 176.059 352.791 176.495C355.275 177.443 357.887 177.519 360.201 177.126C362.532 176.718 364.553 175.702 366.159 174.504C369.399 172.053 370.836 168.883 371.387 166.729C371.946 164.531 371.854 163.245 371.935 163.252C371.944 163.252 371.949 163.331 371.95 163.485C371.948 163.671 371.945 163.895 371.941 164.169C371.942 164.471 371.926 164.843 371.853 165.279C371.795 165.716 371.74 166.224 371.584 166.777C371.35 167.9 370.845 169.232 370.033 170.648C369.214 172.058 368.021 173.536 366.383 174.796C364.751 176.044 362.68 177.11 360.281 177.55C357.899 177.974 355.203 177.912 352.628 176.946C351.332 176.501 350.081 175.826 348.931 174.971C347.768 174.132 346.712 173.089 345.84 171.878C344.04 169.493 343.021 166.416 342.994 163.25C343.022 160.085 344.041 157.009 345.841 154.625C346.713 153.415 347.769 152.372 348.932 151.533C350.082 150.678 351.333 150.003 352.628 149.558C355.203 148.592 357.899 148.529 360.281 148.954C362.68 149.393 364.75 150.459 366.383 151.707C368.021 152.966 369.214 154.444 370.033 155.854C370.846 157.27 371.35 158.602 371.585 159.725C371.741 160.278 371.796 160.786 371.854 161.223C371.927 161.659 371.942 162.031 371.942 162.333C371.946 162.607 371.948 162.832 371.951 163.017C371.949 163.174 371.944 163.252 371.935 163.252Z" fill="#263238"/>
<path d="M406.181 161.907C406.101 161.914 406.189 160.661 405.646 158.52C405.108 156.421 403.708 153.334 400.551 150.947C398.987 149.781 397.018 148.791 394.748 148.394C392.493 148.012 389.95 148.086 387.531 149.009C386.313 149.433 385.139 150.074 384.06 150.882C382.969 151.674 381.978 152.659 381.162 153.798C379.474 156.044 378.524 158.93 378.496 161.904C378.523 164.879 379.473 167.766 381.161 170.013C381.977 171.153 382.968 172.137 384.06 172.93C385.139 173.739 386.313 174.379 387.531 174.804C389.951 175.727 392.494 175.801 394.749 175.419C397.019 175.022 398.989 174.032 400.552 172.866C403.709 170.478 405.109 167.392 405.647 165.293C406.19 163.152 406.101 161.9 406.181 161.907C406.199 161.907 406.201 162.214 406.188 162.801C406.189 163.095 406.174 163.458 406.103 163.883C406.047 164.309 405.994 164.804 405.842 165.343C405.357 167.486 403.986 170.669 400.774 173.16C399.183 174.377 397.165 175.416 394.827 175.845C392.505 176.259 389.877 176.199 387.366 175.257C386.103 174.823 384.883 174.165 383.762 173.332C382.628 172.514 381.598 171.497 380.748 170.317C378.993 167.992 378 164.993 377.974 161.906C378.001 158.82 378.994 155.822 380.749 153.498C381.599 152.318 382.629 151.302 383.762 150.484C384.883 149.651 386.102 148.993 387.365 148.559C389.875 147.617 392.503 147.557 394.825 147.97C397.163 148.398 399.182 149.438 400.772 150.654C403.984 153.144 405.355 156.327 405.84 158.471C405.992 159.011 406.045 159.505 406.101 159.932C406.172 160.357 406.187 160.72 406.186 161.014C406.201 161.6 406.199 161.907 406.181 161.907Z" fill="#263238"/>
<path d="M378.235 158.743C378.179 158.801 377.848 158.523 377.24 158.235C376.637 157.947 375.735 157.665 374.721 157.683C373.706 157.697 372.815 158.012 372.224 158.323C371.628 158.634 371.31 158.927 371.251 158.872C371.203 158.833 371.435 158.433 372.031 158.009C372.618 157.589 373.586 157.178 374.711 157.163C375.836 157.143 376.816 157.518 377.418 157.915C378.032 158.314 378.282 158.702 378.235 158.743Z" fill="#263238"/>
<path d="M344.121 161.215C344.207 161.33 341.401 163.571 337.854 166.218C334.306 168.867 331.361 170.92 331.275 170.804C331.189 170.689 333.994 168.449 337.542 165.8C341.09 163.153 344.035 161.1 344.121 161.215Z" fill="#263238"/>
<g opacity="0.3">
<path d="M332.288 226.3C330.897 239.872 336.057 254.196 346.942 262.421C347.796 263.066 348.868 263.706 349.875 263.342C350.574 263.09 351.022 262.419 351.393 261.775C354.496 256.403 355.537 250.476 354.638 244.337C352.914 248.876 351.435 253.331 349.695 258.079C340.211 252.32 334.3 240.075 332.288 226.3Z" fill="black"/>
</g>
<path opacity="0.3" d="M369.138 257.157L377.124 254.24L378.447 267.749C378.447 267.749 387.066 252.04 390.633 244.873C394.199 237.706 392.365 225.057 392.365 225.057C392.365 225.057 393.641 236.074 385.004 250.128L378.485 260.723V249.627L369.138 257.157Z" fill="black"/>
<g opacity="0.3">
<path d="M276.221 325.816C272.659 324.134 268.561 323.908 264.648 324.364C260.515 324.845 256.367 326.11 253.129 328.723C249.891 331.336 247.695 335.453 248.099 339.594L248.499 339.651C251.285 332.108 256.829 326.619 263.978 325.955C271.126 325.291 278.101 328.472 283.008 333.713C282.531 329.802 279.783 327.498 276.221 325.816Z" fill="black"/>
</g>
<g opacity="0.3">
<path d="M478.206 333.528C475.53 330.639 471.769 328.889 467.89 328.213C461.078 327.025 453.767 329.141 448.643 333.785L450.167 332.548C454.038 330.283 458.501 328.939 462.984 329.066C467.468 329.193 471.955 330.852 475.202 333.947C478.188 336.792 479.983 340.633 481.694 344.385C482.362 340.504 480.882 336.417 478.206 333.528Z" fill="black"/>
</g>
<path d="M426.717 270.788C426.684 270.774 426.813 270.386 427.075 269.696C427.384 268.906 427.763 267.935 428.211 266.789C429.179 264.339 430.506 260.952 431.907 257.187C433.307 253.42 434.517 249.989 435.386 247.502C435.796 246.342 436.143 245.36 436.426 244.56C436.678 243.867 436.834 243.489 436.868 243.5C436.902 243.511 436.812 243.909 436.619 244.622C436.427 245.335 436.126 246.359 435.735 247.618C434.955 250.138 433.798 253.595 432.395 257.369C430.991 261.141 429.607 264.514 428.551 266.931C428.023 268.14 427.582 269.112 427.262 269.777C426.943 270.441 426.75 270.802 426.717 270.788Z" fill="#263238"/>
<path d="M300.647 271.769C300.506 271.798 299.419 267.039 298.22 261.141C297.02 255.241 296.162 250.437 296.303 250.408C296.444 250.379 297.531 255.137 298.73 261.037C299.93 266.935 300.788 271.741 300.647 271.769Z" fill="#263238"/>
<path d="M298.76 331.255C299.076 331.415 295.096 300.093 295.096 300.093C295.096 300.093 297.608 276.324 299.02 275.224L299.056 266.838C299.056 266.838 302.943 264.483 303.987 268.285C303.987 268.285 307.434 265.292 308.036 272.417C308.638 279.542 308.765 286.823 308.765 286.823L316.437 306.007L317.7 306.646C317.7 306.646 319.348 291.617 320.307 289.405C321.266 287.193 321.923 281.815 325.56 282.622C329.197 283.429 329.5 286.438 328.846 291.341C328.192 296.245 327.378 301.306 327.681 304.473C327.984 307.64 329.423 314.61 328.981 320.148C328.539 325.686 325.507 331.529 322.323 335.63C319.14 339.731 313.059 348.214 309.754 350.77C308.6 351.663 298.76 331.255 298.76 331.255Z" fill="#FFBE9D"/>
<path d="M302.633 305.767C302.597 305.764 302.606 305.287 302.654 304.426C302.72 303.464 302.804 302.244 302.904 300.787C303.138 297.717 303.497 293.478 303.926 288.801C304.147 286.468 304.358 284.246 304.551 282.207C304.651 281.199 304.714 280.246 304.586 279.38C304.465 278.513 304.125 277.761 303.63 277.218C302.617 276.12 301.314 275.842 300.498 275.843C299.652 275.837 299.209 276.067 299.192 276.01C299.185 275.993 299.291 275.938 299.503 275.846C299.719 275.768 300.049 275.665 300.491 275.64C301.348 275.578 302.75 275.799 303.899 276.967C304.465 277.546 304.867 278.386 305.012 279.312C305.169 280.24 305.115 281.235 305.029 282.25C304.849 284.289 304.652 286.513 304.445 288.848C304.016 293.526 303.599 297.759 303.272 300.821C303.106 302.272 302.967 303.487 302.857 304.444C302.747 305.299 302.669 305.77 302.633 305.767Z" fill="#EB996E"/>
<path d="M306.757 292.957C306.832 293.02 305.977 293.772 305.399 295.43C304.781 297.063 304.558 299.516 304.124 302.191C303.711 304.869 303.308 307.288 302.991 309.036C302.674 310.783 302.442 311.859 302.371 311.848C302.3 311.837 302.403 310.742 302.627 308.98C302.851 307.218 303.196 304.79 303.609 302.112C304.043 299.451 304.322 296.977 305.056 295.297C305.403 294.459 305.827 293.845 306.165 293.47C306.5 293.089 306.74 292.938 306.757 292.957Z" fill="#EB996E"/>
<path d="M303.938 267.873C303.973 267.867 304.067 268.218 304.205 268.858C304.345 269.498 304.519 270.43 304.71 271.586C305.092 273.897 305.511 277.109 305.776 280.675C306.038 284.243 306.096 287.482 306.057 289.824C306.038 290.995 306.004 291.942 305.959 292.596C305.916 293.25 305.876 293.611 305.84 293.61C305.763 293.608 305.746 292.161 305.689 289.826C305.633 287.491 305.517 284.267 305.256 280.714C304.992 277.162 304.634 273.956 304.345 271.638C304.057 269.32 303.862 267.886 303.938 267.873Z" fill="#EB996E"/>
<path d="M326.069 297.238C326.145 297.356 324.948 297.913 323.485 297.457C322.017 297.019 321.334 295.889 321.463 295.833C321.578 295.733 322.347 296.582 323.637 296.959C324.918 297.367 326.029 297.091 326.069 297.238Z" fill="#EB996E"/>
<path d="M299.191 327.36L278.922 335.878H266.847C266.847 335.878 254.902 339.605 253.065 350.802C251.227 361.999 250.965 367.761 256.215 369.146C261.465 370.531 276.298 370.684 283.648 368.245C290.998 365.806 310.253 350.269 310.253 350.269L312.109 339.029L299.191 327.36Z" fill="#FFBE9D"/>
<path d="M303.938 339.734C303.912 339.758 303.709 339.57 303.362 339.205C303.002 338.851 302.559 338.271 302.046 337.53C301.044 336.034 299.947 333.765 299.215 331.119C298.457 328.479 298.134 326.011 297.966 324.231C297.812 322.447 297.821 321.339 297.887 321.335C297.964 321.33 298.085 322.427 298.331 324.189C298.591 325.946 298.969 328.378 299.715 330.976C300.436 333.581 301.453 335.817 302.356 337.333C303.268 338.848 304.01 339.669 303.938 339.734Z" fill="#EB996E"/>
<path d="M312.762 343.288C312.653 343.248 313.566 341.707 313.917 338.943C314.085 337.57 314.07 335.9 313.678 334.117C313.29 332.33 312.435 330.489 311.195 328.771C309.963 327.045 308.579 325.543 307.412 324.089C306.233 322.643 305.29 321.228 304.672 319.947C304.05 318.666 303.763 317.535 303.656 316.75C303.554 315.961 303.595 315.522 303.621 315.522C303.723 315.5 303.688 317.31 305 319.781C305.644 321.01 306.595 322.372 307.782 323.785C308.958 325.209 310.358 326.705 311.618 328.47C312.887 330.223 313.773 332.161 314.146 334.015C314.526 335.867 314.501 337.59 314.281 338.993C314.061 340.4 313.674 341.492 313.352 342.213C313.197 342.578 313.048 342.846 312.943 343.026C312.84 343.206 312.778 343.296 312.762 343.288Z" fill="#EB996E"/>
<path d="M281.516 294.484C281.388 294.55 279.177 290.526 276.577 285.498C273.976 280.468 271.972 276.338 272.1 276.272C272.228 276.206 274.439 280.229 277.039 285.259C279.64 290.287 281.644 294.418 281.516 294.484Z" fill="#1A2647"/>
<path d="M314.295 257.994C314.164 257.935 315.531 254.581 317.348 250.502C319.166 246.422 320.745 243.162 320.877 243.221C321.008 243.28 319.642 246.634 317.824 250.714C316.007 254.793 314.427 258.052 314.295 257.994Z" fill="#1A2647"/>
<path d="M346.394 281.676C346.283 281.768 344.226 279.466 341.801 276.536C339.374 273.605 337.498 271.155 337.608 271.063C337.719 270.971 339.775 273.273 342.202 276.204C344.628 279.134 346.505 281.585 346.394 281.676Z" fill="#1A2647"/>
<path d="M339.009 314.248C338.893 314.164 340.443 311.828 342.47 309.032C344.499 306.235 346.237 304.036 346.354 304.121C346.47 304.205 344.921 306.541 342.892 309.338C340.864 312.134 339.126 314.332 339.009 314.248Z" fill="#1A2647"/>
<path d="M329.069 360.254C329.006 360.285 328.551 359.521 327.895 358.245C327.238 356.969 326.387 355.178 325.53 353.163C324.674 351.147 323.975 349.291 323.513 347.933C323.05 346.575 322.816 345.717 322.882 345.694C322.951 345.669 323.308 346.482 323.858 347.803C324.486 349.307 325.21 351.043 326.01 352.96C326.834 354.866 327.581 356.593 328.228 358.088C328.797 359.401 329.135 360.222 329.069 360.254Z" fill="#1A2647"/>
<path d="M357.311 340.696C357.284 340.837 354.565 340.43 351.24 339.786C347.914 339.142 345.24 338.506 345.267 338.365C345.294 338.224 348.012 338.631 351.339 339.275C354.664 339.919 357.338 340.555 357.311 340.696Z" fill="#1A2647"/>
<path d="M379.213 297.708C379.108 297.61 381.7 294.643 385.002 291.082C388.305 287.519 391.068 284.712 391.173 284.81C391.278 284.908 388.687 287.874 385.384 291.436C382.081 294.998 379.318 297.806 379.213 297.708Z" fill="#1A2647"/>
<path d="M401.248 355.041C401.137 355.132 397.903 351.39 394.026 346.683C390.147 341.975 387.094 338.085 387.205 337.993C387.316 337.902 390.549 341.643 394.428 346.351C398.305 351.059 401.359 354.949 401.248 355.041Z" fill="#1A2647"/>
<path d="M264.463 330.604C264.537 330.747 261.582 332.246 258.363 334.716C255.128 337.169 252.903 339.622 252.784 339.513C252.734 339.469 253.228 338.799 254.144 337.815C255.059 336.831 256.414 335.55 258.047 334.302C259.681 333.057 261.275 332.089 262.465 331.467C263.657 330.844 264.434 330.545 264.463 330.604Z" fill="#1A2647"/>
<path d="M272.703 308.508C272.823 308.588 271.771 310.38 270.354 312.51C268.937 314.641 267.691 316.304 267.571 316.224C267.451 316.144 268.503 314.353 269.92 312.221C271.337 310.091 272.583 308.428 272.703 308.508Z" fill="#1A2647"/>
<path d="M291.266 330.207C291.152 330.274 290.11 328.525 289.566 326.099C289.008 323.676 289.191 321.648 289.323 321.66C289.478 321.66 289.53 323.634 290.073 325.984C290.599 328.337 291.406 330.14 291.266 330.207Z" fill="#1A2647"/>
<path d="M294.018 261.285C294.038 261.427 292.313 261.79 290.166 262.096C288.018 262.401 286.26 262.533 286.24 262.391C286.22 262.249 287.944 261.886 290.093 261.58C292.24 261.275 293.998 261.143 294.018 261.285Z" fill="#1A2647"/>
<path d="M307.961 236.56C308.031 236.686 306.521 237.656 304.589 238.727C302.656 239.798 301.034 240.564 300.964 240.438C300.894 240.312 302.404 239.342 304.337 238.271C306.268 237.2 307.891 236.434 307.961 236.56Z" fill="#1A2647"/>
<path d="M347.169 247.004C347.055 247.091 345.327 245.016 343.312 242.369C341.296 239.721 339.754 237.505 339.869 237.418C339.983 237.331 341.71 239.406 343.727 242.054C345.742 244.701 347.284 246.917 347.169 247.004Z" fill="#1A2647"/>
<path d="M396.942 271.869C396.845 271.96 395.027 270.089 393.341 267.366C391.643 264.649 390.768 262.192 390.892 262.145C391.034 262.084 392.11 264.416 393.783 267.091C395.442 269.772 397.059 271.769 396.942 271.869Z" fill="#1A2647"/>
<path d="M415.938 278.131C416.069 278.19 415.146 280.507 413.877 283.304C412.607 286.102 411.472 288.321 411.341 288.262C411.21 288.203 412.133 285.887 413.403 283.089C414.672 280.292 415.807 278.072 415.938 278.131Z" fill="#1A2647"/>
<path d="M418.594 252.201C418.483 252.293 416.221 249.757 413.542 246.537C410.862 243.316 408.779 240.631 408.89 240.539C409.001 240.447 411.262 242.983 413.943 246.204C416.622 249.424 418.705 252.109 418.594 252.201Z" fill="#1A2647"/>
<path d="M389.579 231.138C389.435 231.144 389.233 228.974 389.127 226.292C389.021 223.609 389.052 221.431 389.196 221.425C389.34 221.419 389.542 223.589 389.648 226.271C389.753 228.953 389.722 231.132 389.579 231.138Z" fill="#1A2647"/>
<path d="M413.235 229.826C413.254 229.969 410.489 230.456 407.061 230.914C403.631 231.373 400.836 231.629 400.817 231.486C400.798 231.343 403.562 230.856 406.992 230.398C410.421 229.939 413.216 229.683 413.235 229.826Z" fill="#1A2647"/>
<path d="M450.496 257.195C450.367 257.258 448.703 254.087 446.781 250.114C444.858 246.14 443.405 242.868 443.534 242.805C443.663 242.742 445.327 245.912 447.249 249.887C449.171 253.861 450.625 257.133 450.496 257.195Z" fill="#1A2647"/>
<path d="M444.222 280.845C444.081 280.817 444.471 278.268 445.093 275.153C445.715 272.037 446.334 269.535 446.475 269.563C446.616 269.591 446.226 272.139 445.604 275.255C444.982 278.37 444.363 280.873 444.222 280.845Z" fill="#1A2647"/>
<path d="M461.505 299.489C461.369 299.537 460.041 296.096 458.54 291.805C457.038 287.513 455.93 283.996 456.066 283.949C456.202 283.901 457.529 287.341 459.032 291.633C460.533 295.924 461.64 299.441 461.505 299.489Z" fill="#1A2647"/>
<path d="M459.098 310.393C459.073 310.521 456.675 310.021 454.047 308.587C451.409 307.168 449.681 305.433 449.774 305.342C449.876 305.222 451.719 306.745 454.295 308.129C456.86 309.531 459.143 310.243 459.098 310.393Z" fill="#1A2647"/>
<path d="M481.237 335.26C481.106 335.319 480.303 333.8 479.444 331.87C478.585 329.939 477.995 328.327 478.126 328.268C478.257 328.209 479.06 329.727 479.919 331.658C480.778 333.589 481.368 335.202 481.237 335.26Z" fill="#1A2647"/>
<path d="M350.478 369.937C350.335 369.954 349.987 367.971 349.701 365.51C349.415 363.047 349.298 361.038 349.441 361.022C349.584 361.005 349.932 362.987 350.218 365.45C350.505 367.911 350.621 369.921 350.478 369.937Z" fill="#1A2647"/>
<path d="M418.407 368.221C418.266 368.191 418.559 366.252 419.061 363.891C419.563 361.529 420.084 359.639 420.225 359.669C420.366 359.699 420.073 361.637 419.57 363.999C419.068 366.36 418.547 368.251 418.407 368.221Z" fill="#1A2647"/>
<path d="M451.187 180.618L450.872 180.933L450.78 180.544L433.164 184.694L441.383 170.21L441.529 169.953L441.374 169.701C437.535 163.47 435.316 156.135 435.316 148.279C435.316 125.687 453.63 107.373 476.221 107.373C498.813 107.373 517.126 125.687 517.126 148.279C517.126 170.87 498.812 189.184 476.221 189.184C466.787 189.184 458.108 185.983 451.187 180.618Z" fill="#F5F6F8" stroke="#4C5A80"/>
<path d="M487.402 146.551C487.402 148.786 489.213 150.597 491.448 150.597C493.683 150.597 495.495 148.786 495.495 146.551C495.495 144.316 493.684 142.505 491.448 142.505C489.213 142.505 487.402 144.316 487.402 146.551Z" fill="#E4572E"/>
<path d="M471.208 146.551C471.208 148.786 473.02 150.597 475.254 150.597C477.489 150.597 479.301 148.786 479.301 146.551C479.301 144.316 477.49 142.505 475.254 142.505C473.02 142.505 471.208 144.316 471.208 146.551Z" fill="#E4572E"/>
<path d="M455.057 144.528C453.94 146.463 454.603 148.938 456.538 150.056C458.474 151.173 460.948 150.51 462.066 148.575C463.183 146.64 462.52 144.165 460.585 143.048C458.649 141.929 456.174 142.592 455.057 144.528Z" fill="#E4572E"/>
</svg>
