<svg width="561" height="343" viewBox="0 0 561 343" fill="none" xmlns="http://www.w3.org/2000/svg">
<path d="M440.187 53.5735C440.187 53.5735 427.845 54.969 427.048 74.1071C426.385 90.0554 425.03 98.9433 431.509 102.27C433.825 103.46 436.549 103.564 439.021 102.75L465.468 94.0425C465.468 94.0425 465.866 65.3355 456.709 58.3581C447.552 51.3807 440.187 53.5735 440.187 53.5735Z" fill="#253664"/>
<path d="M454.766 97.5663L441.381 101.973V82.6793H453.524L454.766 97.5663Z" fill="#FAAFB2"/>
<path d="M413.851 207.097C413.126 211.517 410.182 214.687 407.276 214.176C404.37 213.666 402.603 209.669 403.329 205.247C403.594 203.476 404.293 201.802 405.368 200.365L408.686 181.678L417.714 183.569L413.485 201.79C414.041 203.514 414.166 205.334 413.851 207.097Z" fill="#FAAFB2"/>
<path d="M444.495 331.367H431.958L424.688 264.287H444.065L444.495 331.367Z" fill="#FAAFB2"/>
<path d="M419.75 342.15C418.431 342.15 417.258 342.117 416.374 342.036C413.043 341.73 409.866 339.269 408.269 337.829C407.553 337.183 407.323 336.152 407.696 335.262C407.963 334.624 408.498 334.149 409.163 333.958L417.962 331.441L432.209 321.814L432.368 322.1C432.428 322.206 433.827 324.73 434.295 326.436C434.474 327.086 434.427 327.626 434.156 328.043C433.968 328.333 433.708 328.501 433.496 328.597C433.755 328.869 434.563 329.416 437.051 329.813C440.689 330.391 441.449 326.621 441.48 326.46L441.504 326.334L441.612 326.264C443.342 325.148 444.405 324.64 444.774 324.749C445.003 324.818 445.387 324.932 446.418 335.205C446.522 335.527 447.246 337.892 446.754 340.152C446.218 342.612 435.491 341.765 433.346 341.571C433.285 341.578 425.253 342.15 419.75 342.15Z" fill="#253664"/>
<path d="M472.817 331.367H460.28L453.01 264.287H472.387L472.817 331.367Z" fill="#FAAFB2"/>
<path d="M448.071 342.15C446.752 342.15 445.579 342.117 444.695 342.036C441.364 341.73 438.188 339.269 436.591 337.829C435.874 337.183 435.644 336.152 436.017 335.262C436.285 334.624 436.82 334.149 437.484 333.958L446.283 331.441L460.531 321.814L460.69 322.1C460.749 322.206 462.148 324.73 462.617 326.436C462.795 327.086 462.748 327.626 462.478 328.043C462.29 328.333 462.03 328.501 461.818 328.597C462.076 328.869 462.884 329.416 465.372 329.813C469.01 330.391 469.771 326.621 469.801 326.46L469.825 326.334L469.934 326.264C471.664 325.148 472.729 324.642 473.095 324.749C473.325 324.818 473.709 324.932 474.739 335.205C474.844 335.527 475.568 337.892 475.075 340.152C474.539 342.612 463.812 341.765 461.667 341.571C461.606 341.578 453.575 342.15 448.071 342.15Z" fill="#253664"/>
<path d="M476.423 166.608H415.508L437.406 94.4412H461.692L476.423 166.608Z" fill="#DFDFE0"/>
<path d="M441.237 94.4523C441.237 94.4523 426.108 94.0536 424.516 98.0407C422.923 102.028 404.211 196.921 404.211 196.921H416.553L441.237 94.4523Z" fill="#DFDFE0"/>
<path d="M443.038 88.0203C450.404 88.0203 456.376 82.0402 456.376 74.6635C456.376 67.2868 450.404 61.3068 443.038 61.3068C435.672 61.3068 429.701 67.2868 429.701 74.6635C429.701 82.0402 435.672 88.0203 443.038 88.0203Z" fill="#FAAFB2"/>
<path d="M439.39 58.5574C439.39 58.5574 432.05 88.4032 440.212 102.358L428.716 99.9128C428.716 99.9128 424.261 67.2458 433.219 61.3068L439.39 58.5574Z" fill="#253664"/>
<path d="M463.764 166.608H423.79L401.917 256.503C401.515 260.3 403.919 263.842 407.602 264.83C419.604 268.048 448.396 272.607 491.979 259.907C496.173 258.685 498.553 254.255 497.237 250.084L463.764 166.608Z" fill="#253664"/>
<path d="M447.601 94.4412L460.035 93.8932C465.419 94.3002 470.288 97.2351 473.175 101.805C481.958 115.711 498.4 145.028 483.721 149.044C464.377 154.336 455.004 124.879 455.004 124.879L447.601 94.4412Z" fill="#DFDFE0"/>
<path d="M443.334 103.175C440.779 99.4971 440.687 95.1692 443.127 93.5082C445.566 91.8471 449.614 93.482 452.169 97.1611C453.211 98.6165 453.874 100.305 454.103 102.086L464.722 117.808L456.929 122.749L447.288 106.726C445.69 105.877 444.334 104.659 443.334 103.175Z" fill="#FAAFB2"/>
<path d="M449.62 115.892L458.395 107.804L475.744 123.98L459.609 135.026L449.62 115.892Z" fill="#DFDFE0"/>
<path d="M299.133 86H78.5643C69.9684 86 63 92.9785 63 101.587C63 110.195 69.9684 117.174 78.5643 117.174H299.133C307.729 117.174 314.697 110.195 314.697 101.587C314.697 92.9785 307.729 86 299.133 86Z" fill="#DADADA"/>
<path d="M192.13 164.769C184.334 164.769 177.992 158.417 177.992 150.61C177.992 142.802 184.334 136.451 192.13 136.451C199.926 136.451 206.269 142.802 206.269 150.61C206.269 158.417 199.926 164.769 192.13 164.769ZM192.13 140.298C186.453 140.298 181.834 144.924 181.834 150.61C181.834 156.295 186.453 160.921 192.13 160.921C197.808 160.921 202.427 156.295 202.427 150.61C202.427 144.924 197.808 140.298 192.13 140.298Z" fill="#253664"/>
<path d="M218.8 176.364C218.358 176.364 217.913 176.212 217.551 175.901L199.679 160.554C198.873 159.862 198.78 158.647 199.471 157.841C200.162 157.035 201.374 156.941 202.18 157.633L220.052 172.98C220.857 173.671 220.95 174.886 220.26 175.693C219.88 176.136 219.342 176.364 218.8 176.364Z" fill="#253664"/>
<path d="M312.124 56.424H254.939C253.577 56.424 252.472 57.5305 252.472 58.8953V58.8954C252.472 60.2602 253.577 61.3667 254.939 61.3667H312.124C313.487 61.3667 314.592 60.2602 314.592 58.8953C314.592 57.5305 313.487 56.424 312.124 56.424Z" fill="#DFDFE0"/>
<path d="M105.955 0H48.7704C47.4075 0 46.3026 1.10645 46.3026 2.47132V2.47134C46.3026 3.83621 47.4075 4.94266 48.7704 4.94266H105.955C107.318 4.94266 108.423 3.83621 108.423 2.47132C108.423 1.10645 107.318 0 105.955 0Z" fill="#DFDFE0"/>
<path d="M216.611 21.5687H48.7704C47.4075 21.5687 46.3026 22.6751 46.3026 24.04V24.04C46.3026 25.4049 47.4075 26.5113 48.7704 26.5113H216.611C217.974 26.5113 219.079 25.4049 219.079 24.04C219.079 22.6751 217.974 21.5687 216.611 21.5687Z" fill="#DFDFE0"/>
</svg>
