<svg width="484" height="320" viewBox="0 0 484 320" fill="none" xmlns="http://www.w3.org/2000/svg">
<path opacity="0.45" d="M466.845 204.744C455.123 186.108 439.065 171.26 422.394 157.896C408.425 146.688 393.014 135.149 387.253 117.267C384.102 107.518 384.194 96.7406 380.654 87.1573C375.934 74.3815 361.318 58.9031 348.874 53.3239C329.825 44.7843 306.804 57.7334 287.018 51.0782C278.848 48.3292 276.688 43.0774 271.058 37.562C265.03 31.657 257.784 26.5222 250.823 21.7894C237.166 12.5037 222.05 5.04677 205.767 1.80287C177.091 -3.90899 146.501 4.24843 122.834 22.0638C108.608 32.7745 96.8443 46.8262 88.0485 62.6188C79.6424 77.7232 75.9285 94.4692 68.1441 109.723C53.5536 138.307 23.27 154.149 8.94477 182.899C-1.5919 204.064 -2.02298 229.929 3.52307 253.265C9.06913 276.594 20.1032 297.874 31.6927 318.375C31.7466 318.47 31.7988 318.552 31.8494 318.63H50.9837C124.001 318.382 438.606 317.401 446.079 318.881H460.62C471.223 309.646 480.897 284.137 482.829 268.735C485.647 246.318 478.559 223.38 466.845 204.744Z" fill="#E9EBF0"/>
<path d="M314.201 181.403C311.546 185.565 304.618 190.416 299.7 190.345C282.953 190.036 277.444 178.63 275.635 174.474C275.976 174.39 276.548 174.322 276.953 174.273C280.041 173.828 283.188 170.778 284.112 167.333C285.3 162.858 286.756 154.105 286.584 148.539L307.763 160.262C307.73 161.869 307.624 163.627 307.47 165.4C307.36 166.48 307.254 167.537 307.13 168.567C307.013 169.552 306.881 170.488 306.759 171.356C306.37 174.259 307.667 177.138 310.111 178.736L314.201 181.403Z" fill="#FBCDAD"/>
<path d="M316.027 135.808C314.885 138.807 315.368 142.213 316.528 145.205C317.349 147.322 319.172 145.454 321.442 145.492C324.953 145.551 327.699 141.896 329.826 132.201C331.175 125.089 331.517 121.48 331.247 120.797C330.278 118.339 327.081 117.017 324.444 116.786" fill="#5E2917"/>
<path d="M321.373 114.494C326.908 121.166 328.925 139.946 324.247 153.023C320.921 162.321 317.062 168.325 312.546 168.132C305.701 167.84 292.429 162.217 288.103 157.511C280.322 149.044 282.586 132.453 284.193 122.001C285.654 112.506 290.094 100.184 302.026 102.53C309.872 104.072 316.403 108.503 321.373 114.494Z" fill="#FBCDAD"/>
<path d="M289.921 120.501C291.151 121.97 293.314 122.295 295.096 122.583C297.49 122.97 298.681 123.789 299.918 125.964C300.709 127.356 301.494 128.88 302.906 129.636C303.571 129.992 304.578 130.042 304.907 129.364C304.275 128.945 304.063 128.077 304.222 127.336C304.381 126.595 304.839 125.956 305.319 125.369C305.726 125.92 305.769 126.649 305.992 127.296C306.288 128.154 306.928 128.888 307.739 129.297C307.867 129.361 308.009 129.42 308.151 129.4C308.345 129.374 308.49 129.213 308.615 129.063C309.489 128.02 310.341 126.027 311.552 125.392C311.792 126.531 312.228 127.428 312.931 128.369C313.543 129.188 314.276 130.032 315.279 130.228C315.603 130.291 316.005 130.243 316.159 129.951C316.345 129.595 316.053 129.234 316.098 128.874C316.14 128.533 316.3 128.384 316.475 128.095C316.921 127.358 317.325 126.643 317.909 125.998C319.093 127.345 320.387 128.596 321.774 129.735C322.079 129.986 322.53 130.236 322.836 129.985C322.999 129.851 323.043 129.624 323.077 129.416C323.247 128.363 323.417 127.31 323.587 126.257C323.682 125.665 324.029 124.895 324.61 125.045C324.891 125.118 325.061 125.394 325.213 125.641C325.408 125.957 328.807 129.548 328.879 129.269C329.409 127.231 330.497 125.373 331.026 123.334C334.434 110.2 319.211 99.6455 307.578 99.5899C304.99 99.5775 302.568 100.121 300.06 100.676C297.385 101.27 294.615 101.711 292.182 103.044C288.778 104.91 286.193 108.298 286.858 112.346" fill="#5E2917"/>
<path d="M295.526 117.024C297.213 118.938 297.665 121.63 297.821 124.177C298.055 128.012 297.74 132.001 295.964 135.408C295.459 136.377 295.088 141.178 294.307 140.913C294.06 140.829 294.1 137.109 293.448 135.102C292.438 131.993 287.775 130.812 285.68 132.771C282.334 135.9 284.297 139.696 285.403 142.057C286.071 143.482 287.122 145.084 287.299 146.595C287.527 148.529 287.589 155.561 286.329 157.21C285.277 158.588 284.156 151.935 283.207 150.625C276.152 140.868 269.384 116.019 281.436 110.637C283.267 109.82 288.926 109.393 290.638 110.437" fill="#5E2917"/>
<path d="M340.121 314.528C340.821 314.647 341.525 314.742 342.248 314.766C346.126 314.893 349.871 314.038 353.665 313.386C356.999 312.812 357.903 312.495 357.831 308.475C357.254 276.631 352.567 244.877 344.146 214.162C342.859 209.471 341.463 204.748 339 200.553C334.801 193.401 325.144 187.22 317.746 183.753C316.7 183.263 312.372 186.015 311.32 185.54C310.395 185.122 309.585 184.481 308.655 184.075C305.938 182.885 304.116 185.371 301.841 186.403C300.668 186.936 299.355 187.271 298.059 187.217C297.006 187.173 296.053 186.539 295.088 187.037C290.76 189.273 280.012 172.659 280.012 172.659L275.36 177.521L261.744 191.786L227.702 238.682C227.702 238.682 221.526 277.117 217.279 302.308C216.545 306.656 213.621 316.043 213.044 319.338C213.168 318.629 242.097 318.431 243.66 318.431C263.775 318.431 282.511 318.431 302.627 318.431C305.935 318.431 314.829 319.835 317.153 317.405C320.01 314.417 323.322 300.723 323.492 296.885C324.063 283.979 323.18 271.171 323.006 258.184C323.077 263.463 324.596 268.24 325.244 273.413C326.078 280.07 327.275 286.721 328.349 293.344C329.213 298.67 330.04 304.002 330.703 309.358C331.001 311.767 330.617 313.202 332.658 314.145C334.375 314.938 338.117 314.186 340.121 314.528Z" fill="#4C5A80"/>
<path d="M329.197 303.501C327.62 302.851 317.897 300.439 313.513 299.532C311.212 299.056 300.806 296.357 298.393 296.357C295.981 296.357 292.699 299.804 292.699 299.804L293.568 311.666C295.888 311.433 298.996 312.64 300.666 312.872C302.336 313.104 307.996 313.133 311.475 311.388C311.674 311.287 311.853 311.176 312.041 311.07C313.442 312.311 315.201 313.523 317.144 313.62C317.144 313.62 318.665 313.467 318.521 312.851C318.45 312.552 317.445 311.009 316.432 309.504C317.921 311.022 320.36 313.481 323.171 313.62C323.171 313.62 324.693 313.467 324.548 312.851C324.463 312.488 323.009 310.306 321.827 308.571C321.843 308.584 321.865 308.599 321.88 308.611C323.112 309.698 326.046 313.448 329.525 313.62C329.525 313.62 331.047 313.467 330.902 312.851C330.85 312.627 330.274 311.71 329.567 310.635C330.455 311.311 331.543 312.036 332.861 312.687C336.618 314.542 338.752 313.134 338.752 312.687C338.753 312.239 330.774 304.15 329.197 303.501Z" fill="#FBCDAD"/>
<path d="M295.381 289.725C295.381 289.725 301.436 293.158 300.898 300.452C300.36 307.747 298.168 316.206 289.031 315.32C279.895 314.434 295.381 289.725 295.381 289.725Z" fill="#A1A9BC"/>
<path d="M287.064 314.595C265.164 322.198 235.855 314.936 217.278 302.308C205.639 294.413 198.215 284.395 199.463 274.604C202.705 249.17 222.692 190.878 239.989 182.367C251.742 176.58 266.006 174.181 273.949 173.225C277.678 172.77 280.012 172.658 280.012 172.658L277.126 180.795L262.682 221.515C262.147 245.685 244.851 260.031 248.287 265.656C251.723 271.265 278.892 277.327 293.157 286.94C297.114 289.615 302.123 308.921 287.064 314.595Z" fill="#4C5A80"/>
<path d="M199.465 275.231L199.42 276.926C199.422 277.208 199.382 277.49 199.419 277.77L199.516 278.61C199.597 279.166 199.595 279.734 199.739 280.278L200.141 281.914C200.807 284.053 201.728 286.118 202.982 287.977C205.389 291.759 208.573 295.006 212.084 297.792C219.122 303.378 227.226 307.554 235.681 310.594C244.119 313.7 252.969 315.748 261.941 316.492C266.424 316.877 270.941 316.922 275.431 316.538C279.924 316.193 284.386 315.366 288.711 314.022C284.475 315.635 280 316.591 275.493 317.144C270.975 317.656 266.411 317.719 261.87 317.446C257.327 317.188 252.811 316.505 248.367 315.534C243.922 314.562 239.538 313.304 235.255 311.76C230.987 310.178 226.812 308.331 222.815 306.143C218.827 303.948 214.969 301.475 211.48 298.527C207.986 295.604 204.816 292.222 202.465 288.293C201.266 286.347 200.41 284.196 199.824 281.999C199.244 279.784 199.199 277.474 199.465 275.231Z" fill="#A1A9BC"/>
<path d="M262.686 221.521C262.704 226.104 262.064 230.696 260.875 235.143C259.67 239.589 257.917 243.876 255.875 247.997C254.859 250.061 253.768 252.086 252.65 254.084C251.544 256.088 250.411 258.079 249.483 260.124C249.027 261.144 248.632 262.194 248.472 263.229C248.428 263.737 248.387 264.255 248.533 264.698C248.564 264.937 248.707 265.123 248.79 265.336C248.947 265.525 249.056 265.735 249.251 265.913C250.731 267.397 252.856 268.404 254.875 269.368C263.149 273.136 271.934 275.93 280.311 279.698C284.497 281.581 288.644 283.61 292.496 286.149L293.211 286.634C293.449 286.799 293.675 287.016 293.906 287.205C294.333 287.623 294.712 288.089 295.011 288.596C295.625 289.601 296.04 290.695 296.36 291.804C296.971 294.034 297.23 296.333 297.25 298.624C297.097 296.34 296.723 294.067 296.045 291.9C295.336 289.756 294.233 287.668 292.166 286.663C288.297 284.259 284.139 282.344 279.931 280.579C275.711 278.836 271.445 277.19 267.154 275.59C262.871 273.969 258.558 272.414 254.349 270.496C252.277 269.469 250.148 268.502 248.378 266.719C248.152 266.507 247.975 266.209 247.781 265.95C247.64 265.638 247.452 265.336 247.398 265.002C247.203 264.34 247.262 263.687 247.325 263.064C247.527 261.833 247.969 260.726 248.451 259.663C249.434 257.543 250.59 255.559 251.712 253.563C252.833 251.567 253.963 249.585 255.024 247.568C259.292 239.532 262.257 230.703 262.686 221.521Z" fill="#A1A9BC"/>
<path d="M319.447 184.547C317.356 186.622 308.057 193.245 299.189 193.245C297.714 193.245 296.157 193.116 294.504 192.808C287.064 191.445 280.79 186.486 277.127 180.795C276.446 179.726 275.846 178.623 275.36 177.521C274.695 176.094 274.225 174.635 273.95 173.225C277.679 172.77 281.244 171.83 281.828 171.166C282.46 175.51 287.826 183.357 295.947 184.832C296.968 185.026 297.924 185.107 298.848 185.123H298.865C302.674 185.188 305.608 183.973 307.603 182.741C307.619 182.741 311.494 179.688 311.51 179.671L319.447 184.547Z" fill="#4C5A80"/>
<path d="M306.86 144.348C307.69 144.348 308.364 143.02 308.364 141.381C308.364 139.742 307.69 138.414 306.86 138.414C306.029 138.414 305.356 139.742 305.356 141.381C305.356 143.02 306.029 144.348 306.86 144.348Z" fill="#56211A"/>
<path d="M307.502 143.459C307.862 143.459 308.154 143.053 308.154 142.552C308.154 142.051 307.862 141.645 307.502 141.645C307.142 141.645 306.851 142.051 306.851 142.552C306.851 143.053 307.142 143.459 307.502 143.459Z" fill="white"/>
<path d="M323.038 145.708C323.868 145.708 324.542 144.38 324.542 142.741C324.542 141.103 323.868 139.774 323.038 139.774C322.207 139.774 321.534 141.103 321.534 142.741C321.534 144.38 322.207 145.708 323.038 145.708Z" fill="#56211A"/>
<path d="M317.888 155.491C317.87 156.117 315.25 159.927 312.704 159.625C310.569 159.371 308.697 155.367 309.821 153.542C310.423 152.906 317.906 154.865 317.888 155.491Z" fill="white"/>
<path d="M302.387 134.092C304.249 132.45 308.729 133.088 310.634 134.305C311.007 134.544 311.411 134.005 311.103 133.699C309.813 132.417 307.661 132.341 305.949 132.404C304.65 132.451 302.518 132.395 302.073 133.91C302.018 134.099 302.252 134.212 302.387 134.092Z" fill="#3D302A"/>
<path d="M320.581 135.205C321.72 135.118 322.777 134.909 323.912 135.192C325.051 135.475 325.888 136.17 326.899 136.702C327.118 136.817 327.314 136.591 327.219 136.382C326.225 134.187 322.366 133.384 320.445 134.703C320.245 134.841 320.293 135.226 320.581 135.205Z" fill="#3D302A"/>
<path d="M316.014 141.459C315.938 143.166 316.004 144.915 316.285 146.603C316.386 147.211 317.167 148.83 317.04 149.35C316.902 149.918 315.911 150.621 315.574 151.181C315.403 151.463 315.736 151.756 316.008 151.614C317.018 151.09 318.178 150.314 317.968 149.094C317.774 147.962 317.255 146.874 317.081 145.708C316.869 144.295 316.853 142.878 316.727 141.459C316.688 141.006 316.034 140.994 316.014 141.459Z" fill="#E4A06F"/>
<path d="M323.491 144.878C323.851 144.878 324.143 144.446 324.143 143.914C324.143 143.381 323.851 142.949 323.491 142.949C323.131 142.949 322.84 143.381 322.84 143.914C322.84 144.446 323.131 144.878 323.491 144.878Z" fill="white"/>
<path d="M298.153 162.637C300.487 165.379 304.485 167.225 308.077 167.326C308.435 167.336 308.528 166.757 308.163 166.689C304.361 165.983 301.548 164.679 298.508 162.282C298.256 162.083 297.939 162.386 298.153 162.637Z" fill="#E4A06F"/>
<path d="M323.233 279.601C323.461 275.333 323.038 271.014 323.007 266.737C322.976 262.306 323.108 257.881 323.344 253.458C323.572 249.169 323.918 244.889 324.408 240.622C324.913 236.228 325.832 231.875 326.297 227.483C326.36 226.894 325.419 226.787 325.276 227.345C324.245 231.386 323.846 235.682 323.359 239.822C322.825 244.352 322.434 248.901 322.215 253.457C322.003 257.878 321.977 262.311 322.076 266.736C322.172 271.011 322.175 275.43 323.052 279.625C323.074 279.732 323.228 279.701 323.233 279.601Z" fill="#A1A9BC"/>
<path d="M279.663 179.269C281.063 185.014 287.494 189.886 293.151 190.734C293.63 190.805 293.839 190.147 293.355 189.994C290.436 189.07 287.682 187.862 285.327 185.867C283.051 183.938 281.658 181.56 280.054 179.105C279.922 178.903 279.604 179.029 279.663 179.269Z" fill="#A1A9BC"/>
<path d="M298.503 190.762C299.489 190.539 300.466 190.306 301.44 190.03C302.309 189.784 303.22 189.614 303.98 189.108C304.206 188.957 304.123 188.599 303.84 188.591C302.053 188.545 299.986 189.526 298.324 190.116C297.921 190.259 298.078 190.859 298.503 190.762Z" fill="#A1A9BC"/>
<path d="M288.893 136.933C289.439 136.093 290.282 138.697 290.317 138.915C290.475 139.927 290.268 140.83 290.009 141.798C289.912 142.162 291.035 141.875 291.168 141.617C291.899 140.205 291.953 137.751 290.684 136.593C289.891 135.869 288.351 136.068 287.77 136.975C287.512 137.379 288.711 137.212 288.893 136.933Z" fill="#E4A06F"/>
<path d="M290.681 138.925C290.674 138.816 290.685 138.709 290.713 138.603C290.725 138.571 290.717 138.543 290.692 138.521C290.241 137.971 289.542 137.716 288.863 137.975C288.821 137.991 288.678 138.057 288.739 138.121C288.9 138.294 289.219 138.287 289.426 138.39C289.598 138.475 289.728 138.592 289.869 138.717C290.019 138.85 290.197 138.905 290.353 139.032C290.421 139.087 290.681 139.029 290.681 138.925Z" fill="#E4A06F"/>
<path d="M309.643 160.21C310.27 161.084 311.628 161.539 312.601 160.952C312.674 160.908 312.669 160.853 312.576 160.858C311.706 160.899 310.914 160.651 310.39 159.922C310.263 159.745 309.493 160.001 309.643 160.21Z" fill="#E4A06F"/>
<path d="M303.492 142.846C303.395 143.518 303.415 144.059 303.797 144.646C304.125 145.147 304.545 145.517 305.141 145.631C305.208 145.644 305.557 145.572 305.473 145.456C305.151 145.009 304.662 144.755 304.38 144.253C304.128 143.804 303.899 143.28 303.865 142.767C303.86 142.671 303.505 142.755 303.492 142.846Z" fill="#E4A06F"/>
<path d="M323.375 146.946C323.437 146.946 323.588 146.853 323.457 146.853C323.394 146.853 323.243 146.946 323.375 146.946Z" fill="#E4A06F"/>
<path d="M324.295 146.771C324.839 146.491 325.617 145.666 325.099 145.046C325.058 144.998 324.903 145.056 324.882 145.104C324.622 145.691 324.57 146.32 323.932 146.649C323.571 146.834 324.127 146.858 324.295 146.771Z" fill="#E4A06F"/>
<path d="M323.474 246.452C323.709 242.931 325.32 240.177 327.479 237.451C329.153 235.337 331.242 233.969 333.163 232.148C333.372 231.95 333.157 231.574 332.88 231.661C330.079 232.535 327.81 235.384 326.132 237.658C324.376 240.039 321.938 243.397 323.015 246.514C323.102 246.764 323.456 246.718 323.474 246.452Z" fill="#A1A9BC"/>
<path d="M323.055 248.545C323.944 247.463 324.505 246.139 325.285 244.976C326.21 243.597 327.284 242.317 328.469 241.156C328.699 240.931 330.897 238.687 331.11 240.488C331.245 241.627 328.969 242.055 328.3 242.46C327.548 242.917 327.041 243.276 327.039 244.201C327.039 244.501 327.485 244.649 327.628 244.36C328.522 242.563 331.747 242.623 332.086 240.214C332.223 239.247 331.445 238.629 330.501 238.728C328.803 238.906 327.034 241.382 326.082 242.568C324.751 244.227 323.185 246.288 322.868 248.436C322.855 248.533 322.976 248.643 323.055 248.545Z" fill="#A1A9BC"/>
<path d="M290.147 292.261C290.154 295.129 290.103 297.902 289.098 300.632C288.099 303.35 286.283 305.423 284.601 307.72C284.473 307.894 284.715 308.091 284.88 308C289.789 305.28 292.273 297.401 290.595 292.2C290.518 291.961 290.146 291.996 290.147 292.261Z" fill="#A1A9BC"/>
<path d="M312.007 265.878C311.303 270.299 310.486 274.321 308.204 278.253C305.935 282.16 302.699 285.552 298.906 288.005C298.603 288.201 298.873 288.672 299.191 288.491C306.79 284.16 313.189 275.048 312.665 265.967C312.645 265.613 312.069 265.483 312.007 265.878Z" fill="#A1A9BC"/>
<path d="M336.903 153.402C337.858 153.011 339.085 152.64 339.691 151.752C339.784 151.615 339.659 151.442 339.51 151.438C338.468 151.408 337.453 152.172 336.607 152.699C336.256 152.918 336.483 153.573 336.903 153.402Z" fill="#A1A9BC"/>
<path d="M337.039 155.88C337.615 156.277 338.558 156.641 339.217 156.237C339.409 156.12 339.416 155.831 339.217 155.716C338.946 155.559 338.621 155.52 338.319 155.446C337.99 155.366 337.666 155.263 337.354 155.133C336.901 154.949 336.682 155.635 337.039 155.88Z" fill="#A1A9BC"/>
<path d="M336.161 160.589C336.722 160.924 337.472 161.46 338.158 161.415C338.324 161.404 338.452 161.227 338.355 161.071C337.993 160.481 337.151 160.19 336.549 159.926C336.107 159.732 335.726 160.33 336.161 160.589Z" fill="#A1A9BC"/>
<path d="M38.4068 318.881H60.8729H98.6673H114.41H154.128H446.079H460.62H472.947" stroke="#CF4F2A" stroke-width="2.1886" stroke-miterlimit="10" stroke-linecap="round"/>
<path d="M32.9138 318.885H8.56259" stroke="#CF4F2A" stroke-width="2.1886" stroke-miterlimit="10" stroke-linecap="round"/>
<path d="M480.543 318.884H476.461" stroke="#CF4F2A" stroke-width="2.1886" stroke-miterlimit="10" stroke-linecap="round"/>
<path d="M424.105 313.872H286.494C285.164 313.872 284.082 314.954 284.082 316.284V316.46C284.082 317.789 285.164 318.871 286.494 318.871H424.105C425.435 318.871 426.517 317.789 426.517 316.46V316.284C426.517 314.953 425.435 313.872 424.105 313.872Z" fill="#DBD7D7"/>
<path d="M450.973 252.568C422.339 252.279 393.705 251.989 365.071 251.7C361.005 251.659 356.938 251.618 352.872 251.577C352.24 251.57 351.425 251.945 351.159 252.559C343.292 270.724 335.424 288.889 327.557 307.054C326.434 309.646 325.311 312.238 324.188 314.831C324.151 314.917 324.131 315.002 324.106 315.088C324.105 315.089 324.104 315.092 324.104 315.092C324.079 315.176 324.055 315.259 324.041 315.342C323.815 316.393 324.35 317.629 325.644 317.787C325.945 317.875 326.254 317.894 326.544 317.819C355.974 318.049 385.405 318.279 414.834 318.509C419.036 318.542 423.237 318.574 427.439 318.608C428.377 318.615 429.039 317.974 429.351 317.152C437.196 296.461 445.04 275.77 452.885 255.078C453.355 253.842 452.16 252.581 450.973 252.568Z" fill="#F5F4F4"/>
<path d="M450.973 251.208C424.542 250.941 398.11 250.673 371.679 250.406C368.46 250.374 365.241 250.341 362.021 250.308C359.109 250.279 355.744 249.769 352.872 250.215C348.606 250.879 347.51 257.584 346.051 260.954C340.806 273.064 335.561 285.175 330.316 297.284C328.069 302.472 325.816 307.656 323.575 312.847C322.729 314.805 321.905 317.174 324.13 318.661C325.255 319.411 326.96 319.176 328.18 319.193C331.45 319.238 334.72 319.244 337.991 319.269C344.531 319.321 351.071 319.371 357.611 319.422C370.691 319.524 383.771 319.627 396.851 319.729C403.371 319.78 409.891 319.831 416.411 319.882C419.037 319.902 421.663 319.922 424.288 319.943C426.315 319.959 428.321 320.347 429.888 318.858C431.586 317.245 432.16 313.568 432.96 311.457C434.108 308.428 435.256 305.401 436.404 302.372C439.082 295.307 441.761 288.242 444.439 281.176C446.926 274.616 449.414 268.055 451.901 261.495C453.146 258.21 456.613 252.618 451.334 251.255C449.637 250.817 448.913 253.441 450.61 253.88C452.347 254.328 446.424 268.296 445.833 269.856C443.919 274.903 442.006 279.949 440.093 284.996C438.179 290.043 436.266 295.09 434.353 300.136C433.491 302.407 432.631 304.679 431.769 306.949C430.831 309.425 430.153 313.09 428.613 315.276C426.628 318.092 422.495 317.208 419.561 317.185C416.895 317.164 414.229 317.144 411.564 317.123C406.114 317.081 400.664 317.037 395.214 316.995C384.314 316.91 373.413 316.825 362.513 316.74C351.614 316.654 340.713 316.57 329.813 316.484C328.686 316.475 326.777 316.959 325.979 315.956C324.963 314.679 325.536 316.523 325.924 314.221C326.246 312.305 327.679 310.17 328.45 308.388C330.729 303.127 333.007 297.865 335.286 292.603C339.657 282.512 344.028 272.42 348.399 262.329C349.369 260.09 350.151 256.58 351.677 254.76C353.717 252.325 356.947 252.979 359.731 253.007C365.365 253.065 370.998 253.121 376.632 253.178C401.412 253.429 426.191 253.679 450.971 253.929C452.726 253.947 452.727 251.225 450.973 251.208Z" fill="#DBD7D7"/>
<path d="M385.043 291.972C388.708 291.972 391.68 289.806 391.68 287.134C391.68 284.462 388.708 282.295 385.043 282.295C381.377 282.295 378.405 284.462 378.405 287.134C378.405 289.806 381.377 291.972 385.043 291.972Z" fill="#CBCFDA"/>
<path d="M397.804 290.149C399.717 290.149 401.267 289.019 401.267 287.625C401.267 286.231 399.717 285.101 397.804 285.101C395.892 285.101 394.341 286.231 394.341 287.625C394.341 289.019 395.892 290.149 397.804 290.149Z" fill="#CBCFDA"/>
<path d="M235.513 301.177C239.749 300.669 247.251 299.531 247.44 296.923C244.698 295.152 241.675 293.359 238.414 293.2C235.814 293.073 233.29 294.032 230.91 295.089C228.887 295.989 226.9 296.972 224.956 298.036C224.159 298.472 222.072 300.032 222.039 301.119C221.998 302.469 224.478 301.671 225.462 301.741C228.82 301.979 232.184 301.576 235.513 301.177Z" fill="#C1ADA4"/>
<path d="M225.504 298.967C225.504 298.967 231.137 317.414 234.119 317.856C237.102 318.298 266.264 318.518 267.038 318.187C267.811 317.856 267.921 317.304 267.921 317.304C267.921 317.304 286.479 318.519 286.81 318.077C287.141 317.635 286.81 315.426 285.926 315.094C285.043 314.763 256.985 308.466 254.555 307.583C252.125 306.699 244.503 306.92 244.503 306.92L242.957 296.205L225.504 298.967Z" fill="#E4A06F"/>
<path d="M232.31 67.5041C234.137 69.4613 235.128 72.1747 234.993 74.8491C234.913 76.4432 234.453 77.9918 233.973 79.5147C233.051 82.4461 231.957 85.4827 229.677 87.5436C229.307 87.8777 228.843 88.2002 228.353 88.1115C227.438 85.2962 226.524 82.4801 225.61 79.6648C225.171 78.3118 224.73 76.9531 224.483 75.5521C224.064 73.1836 224.216 70.704 225.017 68.4367C225.381 67.4071 225.904 66.389 226.773 65.7275C228.891 64.1151 230.871 65.9629 232.31 67.5041Z" fill="#472924"/>
<path d="M119.078 318.884L120.965 255.155L134.818 318.884H174.543C171.903 297.683 160.191 209.071 147.953 201.559L99.8735 171.622C99.8735 171.622 72.0504 178.879 72.658 219.094C74.8806 257.831 79.6159 303.416 81.2855 318.884H119.078V318.884Z" fill="#2D2442"/>
<path d="M247.334 296.988C246.302 298.551 241.052 297.377 239.499 297.528C238.11 297.663 236.794 298.188 235.444 298.54C231.147 299.661 226.347 299.072 222.483 301.262C222.362 301.33 222.226 301.403 222.093 301.363C221.947 301.319 221.877 301.158 221.824 301.014C219.357 294.181 217.428 287.05 215.268 280.086C212.021 269.622 208.774 259.157 205.528 248.693C203.851 243.287 202.174 237.881 200.497 232.476L188.703 177.819L193.947 139.291L195.189 130.201L195.28 129.511C195.28 129.511 195.533 129.602 196.005 129.765C197.647 130.345 201.865 131.924 206.538 134.201C214.022 137.857 222.676 143.337 223.855 149.542C223.859 149.563 223.861 149.585 223.865 149.606C224.488 153.955 225.188 158.294 225.871 162.634C227.083 170.333 228.311 178.03 229.542 185.726C231.073 195.302 232.611 204.877 234.153 214.452C235.758 224.429 237.367 234.405 238.979 244.382C240.417 253.284 241.857 262.185 243.297 271.086C244.325 277.437 245.354 283.787 246.384 290.137C246.669 291.894 246.953 293.65 247.238 295.407C247.289 295.716 247.552 296.435 247.454 296.736C247.425 296.827 247.385 296.911 247.334 296.988Z" fill="#F7CBBE"/>
<path d="M195.28 129.512L195.19 130.202L193.947 139.292L188.704 177.82L163.04 193.632C161.7 194.457 160.546 200.134 160 201.556C158.229 206.175 156.682 210.972 154.657 215.485C154.241 216.41 153.869 218.929 152.949 219.492C151.099 220.623 143.576 219.071 141.253 218.922C132.652 218.369 123.959 217.107 116.093 213.399C109.874 210.469 104.366 206.322 98.5122 202.764C94.9351 200.589 90.9467 199.232 87.1606 197.484C84.6322 196.317 79.1674 194.078 78.1933 191.104C77.9122 190.245 78.3475 189.333 78.762 188.531C80.5692 185.03 81.7713 180.812 83.906 177.562C85.874 174.565 88.298 171.863 90.2172 168.793C94.0795 162.616 97.4884 156.091 102.312 150.58C110.524 141.198 117.424 130.478 125.883 121.123C129.638 116.968 141.341 113.012 146.938 112.785C152.027 112.576 156.962 113.411 161.28 114.617C164.755 115.597 167.84 116.813 170.27 117.91C173.836 119.525 176.004 120.895 176.004 120.895L195.28 129.512Z" fill="#F7CBBE"/>
<path d="M204.765 180.767C207.468 179.105 220.095 171.045 221.226 168.133C221.751 166.782 224.617 162.62 227.09 158.716C228.555 156.406 232.265 151.872 233.202 150.901C234.807 149.236 237.127 145.11 238.527 146.467C240.272 148.158 237.547 152.389 236.011 154.983C235.447 155.936 234.841 156.892 234.598 157.97C234.354 159.05 234.409 159.854 235.041 160.762C235.386 161.256 237.746 161.491 238.538 161.457C244.502 161.195 247.089 161.546 251.538 159.889C255.986 158.233 260.142 155.894 264.338 153.675C265.057 153.295 265.493 152.515 267.116 152.364C267.926 152.29 269.64 152.4 269.549 153.208C269.478 153.838 264.468 157.751 263.951 158.118C261.174 160.091 261.487 159.869 258.709 161.843C258.278 162.149 257.813 162.505 257.707 163.023C257.618 163.458 257.807 163.899 257.817 164.344C257.832 165.138 257.283 165.82 256.741 166.403C255.792 167.425 254.781 168.379 253.726 169.284C252.25 170.548 253.455 171.626 251.847 172.736C250.074 173.96 245.477 175.204 243.66 176.354C242.206 177.275 240.742 178.2 239.146 178.84C237.232 179.605 235.181 179.939 233.162 180.355C227.63 181.497 217.95 191.519 213.271 194.83" fill="#E4A06F"/>
<path d="M236.526 179.621C236.526 179.621 243.478 178.742 249.008 176.17C254.54 173.598 268.208 165.164 268.208 165.164C268.208 165.164 268.397 164.684 268.252 164.35C268.107 164.016 266.03 163.553 264.357 164.28C262.684 165.007 251.975 169.656 251.975 169.656" fill="#E4A06F"/>
<path d="M235.147 177.288C235.147 177.288 243.956 175.451 249.487 172.878C255.018 170.307 268.686 161.872 268.686 161.872C268.686 161.872 268.875 161.392 268.73 161.057C268.585 160.723 266.509 160.26 264.836 160.987C263.162 161.713 252.453 166.363 252.453 166.363" fill="#E4A06F"/>
<path d="M237.93 172.221C237.93 172.221 246.738 170.383 252.27 167.811C257.801 165.24 266.39 160.844 271.256 157.523C271.576 157.305 271.659 156.325 271.514 155.991C271.369 155.656 269.292 155.195 267.62 155.921C265.947 156.647 255.237 161.296 255.237 161.296" fill="#E4A06F"/>
<path d="M205.257 119.458C205.257 119.458 226.575 132.461 231.564 106.152C232.774 95.2667 234.286 77.5765 225.214 70.6593C216.142 63.7421 195.277 62.9487 194.824 83.4732C195.617 89.3699 195.391 89.8234 195.391 89.8234C195.391 89.8234 187.567 87.6688 189.268 97.4213C190.175 101.844 191.347 103.432 191.347 103.432C191.347 103.432 175.337 115.968 175.32 115.981C173.847 117.135 172.613 119.057 170.57 118.13C170.347 118.029 170.131 117.9 169.889 117.86C169.647 117.821 169.364 117.894 169.246 118.109C169.172 118.245 169.178 118.409 169.173 118.564C169.151 119.348 168.843 120.09 168.633 120.845C167.826 123.741 168.663 126.452 170.187 128.949C171.484 131.073 173.318 132.875 175.493 134.09C177.574 135.251 179.91 135.883 182.254 136.307C185.203 136.841 188.333 137.047 191.252 136.235C193.041 135.738 194.259 135.181 195.508 133.729C195.742 133.457 195.964 133.171 196.122 132.85C196.48 132.123 196.492 131.28 196.486 130.47C196.485 130.358 196.48 130.235 196.405 130.15C196.328 130.062 196.2 130.043 196.084 130.024C194.784 129.805 195.641 129.124 196.186 128.555C196.725 127.991 197.27 127.431 197.816 126.874C198.963 125.704 200.119 124.543 201.28 123.386C202.601 122.07 203.925 120.759 205.257 119.458Z" fill="#E4A06F"/>
<path d="M221.132 97.7421C221.963 97.7421 222.636 96.4137 222.636 94.7751C222.636 93.1365 221.963 91.8081 221.132 91.8081C220.302 91.8081 219.628 93.1365 219.628 94.7751C219.628 96.4137 220.302 97.7421 221.132 97.7421Z" fill="#56211A"/>
<path d="M224.385 84.565C221.132 83.3696 215.527 84.6529 213.468 87.5528C213.328 87.7509 213.564 88.0717 213.796 87.9797C215.43 87.3323 216.8 86.2902 218.532 85.7986C220.47 85.2482 222.317 85.4032 224.285 85.3095C224.723 85.2888 224.784 84.7118 224.385 84.565Z" fill="#433735"/>
<path d="M232.359 92.0626C231.869 93.6394 232.362 95.4375 233.001 96.9595C233.64 98.4816 234.623 99.8312 235.597 101.165C236.034 101.765 236.473 102.365 236.911 102.966C235.539 103.422 234.202 103.985 232.918 104.648C232.146 105.046 231.315 105.587 231.161 106.443" fill="#E4A06F"/>
<path d="M222.544 108.034C223.462 108.348 224.451 108.457 225.414 108.338C225.51 108.326 225.623 108.318 225.688 108.39C225.73 108.436 225.738 108.503 225.742 108.565C225.806 109.516 225.398 110.428 224.999 111.293C224.732 111.874 224.458 112.464 224.037 112.947C223.153 113.958 221.169 114.6 219.909 113.983C219.342 113.706 218.925 113.193 218.6 112.653C217.716 111.184 217.092 108.698 217.843 107.041C218.345 105.934 218.476 106.343 219.45 106.791C220.351 107.204 221.289 107.534 222.203 107.906C222.315 107.952 222.429 107.994 222.544 108.034Z" fill="#FFFBF9"/>
<path d="M206.013 176.156C190.46 183.378 166.249 196.416 166.249 196.416L162.771 171.318L126.182 171.621C126.182 171.621 136.766 229.982 144.93 235.425C144.93 235.425 154.606 242.682 170.331 231.797C180.707 224.613 204.85 205.722 216.71 195.397L206.013 176.156Z" fill="#F7CBBE"/>
<path d="M137.271 218.458C137.034 214.446 135.133 210.095 134.111 206.218C132.662 200.71 131.207 195.206 129.853 189.675C127.405 179.681 125.318 169.629 123.134 159.579C123.07 159.287 122.58 159.346 122.605 159.651C123.418 169.669 126.066 179.696 128.476 189.423C129.806 194.786 131.172 200.146 132.674 205.464C133.834 209.571 134.654 214.889 136.874 218.565C136.979 218.738 137.284 218.676 137.271 218.458Z" fill="#ED8E73"/>
<path d="M215.826 194.077C208.229 199.088 201.461 205.66 195.233 212.251C194.689 212.828 195.557 213.7 196.105 213.123C202.44 206.446 209.437 200.802 216.47 194.912C216.931 194.525 216.328 193.745 215.826 194.077Z" fill="#ED8E73"/>
<path d="M190.436 184.22C192.944 183.843 195.464 182.556 197.731 181.444C199.706 180.474 202.306 179.553 203.608 177.723C203.841 177.396 203.457 177.072 203.144 177.119C200.996 177.444 198.919 179.19 196.98 180.159C194.729 181.284 192.235 182.112 190.113 183.456C189.691 183.723 189.982 184.288 190.436 184.22Z" fill="#ED8E73"/>
<path d="M188.521 94.1194C186.171 94.4377 184.387 94.9998 182.677 92.8452C181.992 91.9822 181.44 91.0769 180.375 90.6757C180.238 90.6243 180.13 90.824 180.233 90.9186C181.56 92.1306 182.515 94.2122 184.261 94.8795C185.644 95.4076 187.355 95.0271 188.635 94.3913C188.801 94.3092 188.673 94.0986 188.521 94.1194Z" fill="#594C4A"/>
<path d="M220.754 102.297C224.762 102.297 228.011 99.0475 228.011 95.0395C228.011 91.0315 224.762 87.7824 220.754 87.7824C216.746 87.7824 213.497 91.0315 213.497 95.0395C213.497 99.0475 216.746 102.297 220.754 102.297Z" stroke="#F9F9F9" stroke-width="1.0943" stroke-miterlimit="10"/>
<path d="M228.233 93.1345C228.5 92.9786 228.615 92.7291 228.851 92.5293C229.197 92.2358 229.653 92.0708 230.094 91.9904C230.503 91.915 230.937 91.9142 231.328 92.0667C231.695 92.2101 231.781 92.5525 232.114 92.6984C232.207 92.739 232.291 92.7191 232.352 92.6362C232.379 92.5998 232.405 92.5633 232.432 92.5268C232.502 92.4298 232.478 92.2997 232.432 92.2002C232.006 91.2899 230.793 91.2095 229.93 91.3927C229.193 91.5486 227.868 92.1131 228.004 93.0408C228.019 93.1436 228.155 93.1801 228.233 93.1345Z" fill="#F9F9F9"/>
<path d="M188.42 82.0349C192.126 84.7043 215.299 81.4297 222.779 78.0018C237.983 71.0332 239.472 58.7523 235.92 56.446C235.491 56.1674 235.015 55.9453 234.507 55.8839C233.315 55.7397 232.217 56.48 231.245 57.1846C231.627 55.796 233.008 49.7451 229.318 47.3451C224.364 44.1228 218.125 49.5719 217.11 50.2508C210.04 54.9819 206.221 55.7902 206.221 55.7902C206.221 55.7902 207.467 43.86 197.696 53.0255C194.619 55.9121 188.908 58.6039 185.842 61.5029C182.627 64.542 180.797 69.5111 182.651 73.7556" fill="#472924"/>
<path d="M199.283 74.806C201.401 76.5311 202.351 79.2942 202.963 81.957C203.884 85.9661 204.252 90.2338 202.975 94.1442C202.612 95.2559 203.063 100.392 202.193 100.249C201.917 100.204 201.307 96.2689 200.265 94.2636C198.652 91.1573 193.521 90.7287 191.652 93.1668C189.337 96.1869 190.825 98.3124 191.853 101.323C192.617 103.56 191.863 106.371 189.128 107.147C186.578 107.869 187.31 105.938 186.294 104.128C184.109 100.236 181.817 96.8285 180.348 92.492C178.032 85.6535 176.125 75.2752 183.282 70.5374C185.072 69.3519 190.974 67.907 192.965 68.7095" fill="#472924"/>
<path d="M221.661 96.9487C222.021 96.9487 222.313 96.5679 222.313 96.0982C222.313 95.6284 222.021 95.2476 221.661 95.2476C221.301 95.2476 221.01 95.6284 221.01 96.0982C221.01 96.5679 221.301 96.9487 221.661 96.9487Z" fill="white"/>
<path d="M197.539 90.0638C198.606 92.1679 201.088 92.5832 203.193 93.1113C206.231 93.8723 209.475 94.4733 212.616 94.4617C213.165 94.4601 213.13 93.6974 212.616 93.6327C209.922 93.2945 207.248 93.0582 204.587 92.4796C202.402 92.0045 199.426 91.5851 197.939 89.7546C197.748 89.52 197.415 89.8193 197.539 90.0638Z" fill="#F9F9F9"/>
<path d="M200.904 114.235C202.031 116.393 203.803 118.517 206.009 119.63C206.11 119.681 206.217 119.556 206.132 119.47C204.39 117.705 202.662 116.082 201.18 114.074C201.06 113.909 200.806 114.048 200.904 114.235Z" fill="#CC6144"/>
<path d="M244.37 88.647C245.406 87.9697 246.52 87.3322 247.343 86.3921C247.402 86.325 247.347 86.1874 247.247 86.2264C246.088 86.6748 245.112 87.4881 244.124 88.2251C243.877 88.4083 244.101 88.8228 244.37 88.647Z" fill="#433735"/>
<path d="M245.873 91.5304C246.649 91.3646 247.634 91.1838 248.293 90.7254C248.466 90.6044 248.402 90.3416 248.186 90.3291C247.383 90.2835 246.45 90.6442 245.701 90.9086C245.311 91.047 245.464 91.6182 245.873 91.5304Z" fill="#433735"/>
<path d="M246.154 95.0868C246.638 94.9566 247.119 94.8447 247.618 94.7892C248.024 94.7436 248.441 94.7469 248.839 94.6557C248.956 94.6292 248.987 94.4443 248.874 94.3904C248.014 93.9743 246.85 94.1765 245.998 94.5197C245.656 94.6574 245.779 95.1879 246.154 95.0868Z" fill="#433735"/>
<path d="M92.8004 201.216C90.6881 201.149 90.7735 204.447 90.5795 205.859C90.3159 207.773 89.7787 210.244 91.4242 211.691C91.7086 211.942 92.0899 211.757 92.1281 211.4C92.138 211.31 92.1471 211.221 92.1571 211.131C92.1786 210.926 91.9391 210.857 91.7915 210.921C91.697 210.962 91.6025 211.003 91.508 211.044C91.6962 211.093 91.8843 211.143 92.0725 211.192C91.1051 209.718 91.2104 208.288 91.4209 206.623C91.6323 204.948 91.5121 202.722 92.9504 201.576C93.1013 201.455 92.9662 201.221 92.8004 201.216Z" fill="black"/>
<path d="M95.212 202.828C93.8955 205.002 93.578 209.035 94.6507 211.349C94.7776 211.623 95.1747 211.466 95.1854 211.204C95.2426 209.81 94.9044 208.443 94.9873 207.034C95.0694 205.642 95.4756 204.313 95.5975 202.932C95.6165 202.719 95.3115 202.664 95.212 202.828Z" fill="black"/>
<path d="M136.036 220.367C135.757 221.23 135.492 222.101 135.11 222.926C134.759 223.682 134.229 224.344 133.898 225.102C133.742 225.459 134.137 225.81 134.451 225.529C135.741 224.372 136.453 222.122 136.578 220.441C136.602 220.118 136.128 220.084 136.036 220.367Z" fill="black"/>
<path d="M137.878 223.323C137.616 224.275 137.181 225.064 136.743 225.937C136.556 226.309 137.069 226.784 137.359 226.412C138.018 225.565 138.324 224.452 138.399 223.394C138.421 223.091 137.956 223.041 137.878 223.323Z" fill="black"/>
<path d="M75.0903 201.099C77.7058 202.674 80.4474 204.005 83.0496 205.642C85.3219 207.072 87.7078 208.412 90.4079 208.771C90.805 208.824 90.8912 208.157 90.5024 208.072C87.3663 207.387 84.8013 205.879 82.1261 204.166C80.0727 202.85 77.6685 201.045 75.1525 200.87C75.0265 200.861 74.9908 201.039 75.0903 201.099Z" fill="black"/>
<path d="M94.8986 209.301C101.515 212.73 107.76 216.973 114.538 220.069C117.642 221.487 120.9 222.476 124.241 223.158C127.407 223.805 131.155 224.685 134.376 224.339C134.703 224.304 134.826 223.818 134.459 223.725C131.008 222.857 127.267 222.933 123.756 222.167C120.232 221.398 116.858 220.258 113.618 218.671C107.353 215.604 101.652 211.278 95.1249 208.763C94.8141 208.644 94.6051 209.149 94.8986 209.301Z" fill="black"/>
<path d="M124.893 256.447C125.944 255.232 127.018 254.026 128.235 252.973C128.924 252.377 132.443 249.249 133.521 250.296C133.624 250.395 133.817 250.297 133.77 250.151C133.231 248.489 130.876 250.205 130.092 250.722C127.905 252.163 125.983 253.995 124.636 256.249C124.543 256.405 124.769 256.59 124.893 256.447Z" fill="black"/>
<path d="M117.013 255.48C113.783 252.282 109.479 250.051 104.884 249.864C104.754 249.859 104.725 250.063 104.853 250.092C109.296 251.105 113.223 252.773 116.653 255.839C116.896 256.056 117.248 255.712 117.013 255.48Z" fill="black"/>
<path d="M124.571 258.564C128.525 259.959 131.629 262.422 132.535 266.707C132.734 266.554 132.932 266.402 133.131 266.249C132.107 265.593 131.226 264.781 130.476 263.826C129.943 263.147 129.562 262.239 128.943 261.637C128.266 260.981 127.193 260.76 126.389 261.282C126.344 261.312 126.372 261.395 126.428 261.375C128.222 260.711 129.241 263.489 130.083 264.529C130.85 265.475 131.75 266.228 132.722 266.95C133.032 267.179 133.379 266.801 133.317 266.492C132.499 262.422 128.987 258.371 124.633 258.116C124.361 258.099 124.34 258.482 124.571 258.564Z" fill="black"/>
<path d="M74.6161 228.033C78.6633 225.531 82.3557 222.458 84.5708 218.169C84.8452 217.638 84.0436 217.167 83.7684 217.699C81.6221 221.855 78.0673 224.806 74.1469 227.23C73.6396 227.545 74.1055 228.349 74.6161 228.033Z" fill="black"/>
<path d="M122.994 223.327C123.274 227.512 123.893 231.601 123.806 235.816C123.715 240.234 123.154 244.623 122.189 248.935C122.097 249.344 122.727 249.519 122.82 249.109C123.775 244.863 124.351 240.561 124.461 236.208C124.568 231.967 124.488 227.393 123.343 223.279C123.291 223.091 122.98 223.121 122.994 223.327Z" fill="black"/>
<path d="M122.235 250.75C121.84 251.413 121.771 252.281 121.627 253.032C121.499 253.696 121.238 254.454 121.453 255.112C121.495 255.239 121.652 255.254 121.725 255.148C122.132 254.559 122.113 253.723 122.24 253.03C122.37 252.319 122.642 251.569 122.587 250.845C122.573 250.665 122.336 250.581 122.235 250.75Z" fill="black"/>
<path d="M128.887 223.78C128.773 227.087 128.901 230.412 128.933 233.721C128.962 236.809 129.251 240.015 128.939 243.093C128.426 248.162 123.49 250.743 121.644 255.197C121.52 255.494 122.034 255.713 122.168 255.418C124.11 251.126 128.875 248.72 129.647 243.825C130.121 240.817 129.75 237.583 129.699 234.55C129.64 230.967 129.685 227.36 129.467 223.782C129.445 223.409 128.899 223.404 128.887 223.78Z" fill="black"/>
<path d="M166.413 128.335C166.343 134.519 172.857 138.421 178.42 138.967C178.863 139.01 178.884 138.373 178.519 138.238C175.908 137.274 173.26 136.782 170.952 135.103C168.745 133.497 167.118 131.086 166.809 128.335C166.782 128.087 166.416 128.073 166.413 128.335Z" fill="#ED8E73"/>
<path d="M181.899 138.926C182.772 139.119 183.652 139.107 184.542 139.12C185.446 139.134 186.307 139.168 187.169 138.866C187.373 138.794 187.373 138.524 187.169 138.453C186.307 138.151 185.446 138.184 184.542 138.198C183.652 138.212 182.772 138.199 181.899 138.392C181.635 138.45 181.635 138.868 181.899 138.926Z" fill="#ED8E73"/>
<path d="M122.608 161.335C122.456 159.794 121.983 158.465 120.95 157.291C120.158 156.39 118.499 155.051 117.217 155.379C116.994 155.436 116.887 155.76 117.075 155.92C117.511 156.292 118.025 156.359 118.542 156.602C119.169 156.899 119.736 157.306 120.242 157.78C121.255 158.726 122.038 160.01 122.271 161.382C122.301 161.571 122.627 161.528 122.608 161.335Z" fill="#ED8E73"/>
<path d="M198.799 99.8842C199.475 97.6625 197.218 93.1784 194.497 94.1276C193.7 94.4053 194.21 94.7925 194.833 94.6225C195.495 94.4418 196.781 96.6486 196.981 97.0291C197.486 97.9925 197.572 99.0901 198.055 100.042C198.156 100.24 198.744 100.066 198.799 99.8842Z" fill="#CC6144"/>
<path d="M197.189 96.6752C197.167 95.9349 196.501 95.5527 195.813 95.6257C195.448 95.6646 195.049 95.7873 194.756 96.0136C194.58 96.1496 194.34 96.4455 194.529 96.6412C194.634 96.749 194.919 96.6296 195.013 96.5633C195.283 96.3751 195.427 96.0601 195.741 96.196C196.037 96.3237 196.249 96.6006 196.344 96.9007C196.42 97.1403 197.196 96.9189 197.189 96.6752Z" fill="#CC6144"/>
<path d="M219.068 96.6926C219.186 97.5257 219.759 98.0712 220.617 98.043C220.651 98.0422 220.899 97.9775 220.826 97.9137C220.615 97.728 220.354 97.6144 220.139 97.4238C219.886 97.1999 219.62 96.8915 219.49 96.5798C219.443 96.4654 219.051 96.5699 219.068 96.6926Z" fill="#CC6144"/>
<path d="M161.147 153.027C161.452 161.759 162.52 170.45 163.638 179.11C164.212 183.553 164.455 188.643 165.687 192.822C165.818 193.267 166.421 193.069 166.361 192.636C166.361 192.63 166.36 192.625 166.359 192.619C166.298 192.175 165.624 192.364 165.684 192.805C165.685 192.811 165.686 192.816 165.687 192.822C165.911 192.759 166.137 192.697 166.361 192.636C166.421 192.839 166.377 191.902 166.359 191.684C166.283 190.793 166.11 189.903 165.984 189.017C165.5 185.63 165.04 182.239 164.601 178.845C163.492 170.258 162.506 161.648 161.702 153.026C161.668 152.679 161.135 152.665 161.147 153.027Z" fill="#ED8E73"/>
<path d="M176.17 191.145C172.76 191.89 169.6 193.444 166.44 194.931C163.175 196.468 159.801 197.92 156.825 199.979C156.611 200.127 156.734 200.502 157.009 200.419C163.757 198.386 169.909 194.341 176.335 191.536C176.567 191.435 176.395 191.096 176.17 191.145Z" fill="#ED8E73"/>
<path d="M234.863 227.803C233.958 231.039 233.757 234.215 232.405 237.366C230.978 240.693 228.873 243.272 226.643 246.075C226.371 246.416 226.781 246.835 227.123 246.555C229.85 244.315 231.864 240.921 233.241 237.718C234.492 234.804 235.776 231.017 235.266 227.803C235.233 227.591 234.915 227.618 234.863 227.803Z" fill="#ED8E73"/>
<path d="M90.2579 198.33C89.491 195.716 88.885 193 88.832 190.267C88.7781 187.456 89.5059 184.886 89.9337 182.149C89.9868 181.808 89.5217 181.539 89.3327 181.895C86.7611 186.728 87.45 193.777 89.7422 198.548C89.8823 198.839 90.3466 198.634 90.2579 198.33Z" fill="#ED8E73"/>
<path d="M97.6957 201.944C97.0565 200.287 96.3394 198.647 95.866 196.931C95.6886 196.288 94.94 194.239 95.328 193.753C96.8526 193.047 97.6807 193.387 97.8125 194.772C97.9128 195.364 97.9535 195.96 97.9344 196.559C97.9352 196.836 98.363 196.907 98.4268 196.625C98.7634 195.138 97.4561 190.147 95.1125 191.995C94.0936 192.798 94.6217 194.82 94.8422 195.85C95.3114 198.042 96.3568 200.09 97.2372 202.136C97.3491 202.395 97.7985 202.209 97.6957 201.944Z" fill="#ED8E73"/>
<path d="M113.525 211.761C111.758 208.913 110.964 206.058 110.06 202.882C110.006 202.693 109.73 202.735 109.722 202.928C109.586 206.195 111.182 209.534 113.197 212.014C113.347 212.2 113.648 211.96 113.525 211.761Z" fill="#ED8E73"/>
<path d="M127.699 217.289C130.166 217.067 133.441 215.224 133.844 212.512C133.878 212.279 133.592 212.028 133.398 212.253C132.628 213.146 132.088 214.165 131.168 214.943C130.16 215.794 128.894 216.405 127.627 216.754C127.342 216.834 127.386 217.317 127.699 217.289Z" fill="#ED8E73"/>
<path d="M127.761 214.523C129.37 213.971 131.357 212.542 131.644 210.73C131.679 210.512 131.405 210.272 131.226 210.486C130.687 211.127 130.3 211.859 129.695 212.453C129.067 213.072 128.307 213.554 127.504 213.912C127.159 214.067 127.404 214.646 127.761 214.523Z" fill="#ED8E73"/>
<path d="M218.519 117.732C219.263 117.424 219.781 117.915 220.471 118.106C220.544 118.127 220.75 118.102 220.775 118.007C220.923 117.45 220.166 117.259 219.739 117.219C219.197 117.167 218.608 117.271 218.174 117.614C217.931 117.807 218.425 117.772 218.519 117.732Z" fill="#CC6144"/>
<path d="M458.603 80.5668H370.314C362.81 80.5668 356.4 85.9785 355.143 93.3766L347.517 138.237C345.919 147.633 353.158 156.205 362.688 156.205H363.136L359.697 174.595L376.679 156.205H450.977C458.482 156.205 464.891 150.794 466.149 143.395L473.775 98.5346C475.372 89.1395 468.133 80.5668 458.603 80.5668Z" fill="#F3B29F"/>
<g opacity="0.16">
<path d="M407.941 97.4793C417.348 97.9858 426.783 98.106 436.2 98.3141C440.842 98.4169 445.484 98.5189 450.125 98.6217C454.843 98.7261 459.76 99.2277 464.46 98.7924C464.945 98.7477 465.157 97.9394 464.586 97.8606C460.122 97.2463 455.447 97.4926 450.944 97.3898C446.166 97.2812 441.388 97.1717 436.61 97.0631C427.059 96.8459 417.494 96.5351 407.941 96.6204C407.386 96.6254 407.392 97.4494 407.941 97.4793Z" fill="black"/>
</g>
<g opacity="0.16">
<path d="M405.397 108.923C414.587 109.453 423.79 109.711 432.996 109.671C437.533 109.651 442.07 109.56 446.604 109.399C451.023 109.242 455.577 109.28 459.949 108.6C460.571 108.503 460.393 107.55 459.805 107.535C455.288 107.417 450.709 107.944 446.192 108.098C441.657 108.253 437.12 108.338 432.583 108.352C423.515 108.38 414.449 108.117 405.397 107.591C404.541 107.54 404.543 108.873 405.397 108.923Z" fill="black"/>
</g>
<g opacity="0.16">
<path d="M405.463 118.053C413.768 118.805 422.121 119.625 430.458 119.945C438.78 120.263 447.168 119.763 455.483 119.476C456.582 119.438 456.586 117.723 455.483 117.765C447.159 118.088 438.793 118.712 430.458 118.435C422.116 118.158 413.806 117.265 405.463 116.962C404.751 116.935 404.774 117.991 405.463 118.053Z" fill="black"/>
</g>
<g opacity="0.16">
<path d="M363.156 126.527C386.831 128.493 410.717 128.619 434.46 128.825C440.113 128.874 445.805 128.989 451.454 128.743C452.381 128.702 452.388 127.319 451.454 127.297C440.491 127.042 429.502 127.271 418.535 127.164C405.729 127.039 392.923 126.819 380.123 126.393C374.465 126.204 368.808 126.063 363.156 125.73C362.641 125.7 362.65 126.485 363.156 126.527Z" fill="black"/>
</g>
<g opacity="0.16">
<path d="M362.149 134.584C385.56 136.534 409.153 136.879 432.633 137.176C438.222 137.247 443.854 137.38 449.44 137.136C450.367 137.095 450.374 135.712 449.44 135.69C438.479 135.43 427.497 135.604 416.531 135.44C403.994 135.253 391.457 134.96 378.928 134.489C373.333 134.28 367.738 134.116 362.149 133.787C361.634 133.757 361.644 134.542 362.149 134.584Z" fill="black"/>
</g>
<g opacity="0.16">
<path d="M366.59 92.9256C365.484 96.9545 365.391 101.114 365.374 105.267C365.366 107.374 365.369 109.486 365.211 111.589C365.046 113.797 364.258 115.918 364.146 118.093C364.106 118.865 365.189 119.098 365.559 118.476C366.436 117.004 366.555 115.107 366.755 113.423C367.017 111.212 367.052 108.983 367.056 106.76C367.063 102.247 366.957 97.7545 368.239 93.3799C368.549 92.322 366.882 91.8636 366.59 92.9256Z" fill="black"/>
</g>
<g opacity="0.16">
<path d="M368.253 93.4934C378.902 93.7023 389.497 94.0447 400.091 95.2302C399.767 94.8049 399.444 94.3796 399.12 93.9543C397.982 102.086 397.255 110.197 397.273 118.413C397.276 120.025 399.788 120.027 399.777 118.413C399.723 110.342 400.065 102.23 401.1 94.2229C401.174 93.6451 400.575 93.2638 400.091 93.2149C389.543 92.1488 378.846 91.5809 368.253 92.2176C367.438 92.2665 367.424 93.4777 368.253 93.4934Z" fill="black"/>
</g>
<g opacity="0.16">
<path d="M365.985 119.629C371.23 119.033 376.504 118.819 381.779 119.047C384.286 119.155 386.788 119.358 389.279 119.656C390.732 119.83 392.179 120.048 393.626 120.264C394.865 120.449 395.793 120.767 396.971 120.311C397.579 120.076 397.963 119.252 397.386 118.741C395.688 117.239 392.646 117.357 390.46 117.131C387.707 116.846 384.942 116.679 382.175 116.626C376.665 116.52 371.175 116.9 365.72 117.666C364.617 117.821 364.864 119.756 365.985 119.629Z" fill="black"/>
</g>
<g opacity="0.16">
<path d="M370.905 97.97C370.503 102.248 370.188 106.541 370.011 110.835C369.968 111.886 371.668 111.892 371.648 110.835C371.567 106.534 371.663 102.26 371.988 97.97C372.041 97.2712 370.968 97.2836 370.905 97.97Z" fill="black"/>
</g>
<g opacity="0.16">
<path d="M371.011 111.657C379.395 112.184 387.878 112.622 396.28 112.636C397.357 112.638 397.341 111.037 396.28 110.975C387.896 110.483 379.407 110.408 371.011 110.429C370.214 110.431 370.227 111.608 371.011 111.657Z" fill="black"/>
</g>
<g opacity="0.16">
<path d="M374.779 108.078C375.115 107.073 375.451 106.068 375.787 105.062C376.068 104.219 376.315 102.53 376.928 101.884C378.634 100.087 381.057 105.594 381.577 106.369C382.57 107.846 384.345 108.963 385.66 107.113C386.535 105.882 386.576 104.202 387.235 102.869C387.281 102.167 387.661 101.744 388.377 101.597C388.682 101.983 388.988 102.369 389.293 102.755C389.794 103.389 390.268 104.16 390.923 104.654C391.573 105.144 392.312 105.327 393.088 105C394.381 104.454 394.409 102.637 395.61 102.091C398.23 100.902 393.399 98.1226 393.689 100.989C393.787 101.958 392.833 103.667 391.747 103.103C391.075 102.755 390.45 101.628 389.941 101.07C389.306 100.374 388.484 99.3081 387.381 99.7408C386.586 100.053 386.415 101.02 386.152 101.721C385.766 102.748 385.351 103.765 384.942 104.782C384.886 105.691 384.411 106.15 383.517 106.156C383.184 105.752 382.88 105.327 382.608 104.88C381.507 103.272 380.039 99.6695 377.492 100.1C376.451 100.276 375.969 101.035 375.554 101.93C374.711 103.753 374.231 105.845 373.595 107.751C373.344 108.503 374.53 108.825 374.779 108.078Z" fill="black"/>
</g>
<path d="M329.451 6.96676H271.296C266.354 6.96676 262.132 10.5315 261.303 15.4044L256.28 44.9535C255.228 51.142 259.997 56.7884 266.273 56.7884H266.568L260.745 65.2583L275.489 56.7884H324.428C329.371 56.7884 333.593 53.2236 334.421 48.3507L339.445 18.8017C340.496 12.6131 335.728 6.96676 329.451 6.96676Z" fill="#CBCFDA"/>
<g opacity="0.55">
<path d="M269.806 17.293C280.379 17.836 290.974 18.0465 301.557 18.3334C306.781 18.4751 312.004 18.616 317.227 18.7578C322.542 18.9021 328.003 19.416 333.309 19.067C333.844 19.0322 333.823 18.3126 333.309 18.2513C328.16 17.632 322.822 17.8359 317.639 17.6934C312.279 17.5458 306.918 17.3974 301.557 17.2498C290.978 16.958 280.39 16.59 269.806 16.5551C269.328 16.5535 269.333 17.2689 269.806 17.293Z" fill="#4C5A80"/>
</g>
<g opacity="0.55">
<path d="M267.126 24.8443C277.302 25.3335 287.487 25.6468 297.674 25.7695C302.629 25.8292 307.586 25.845 312.542 25.8168C317.75 25.7869 323.044 25.9403 328.235 25.4843C328.826 25.4321 328.842 24.5766 328.235 24.5517C323.16 24.3461 318.036 24.6537 312.955 24.6827C307.862 24.7125 302.768 24.6959 297.674 24.6329C287.487 24.5069 277.303 24.1903 267.127 23.6978C266.389 23.6622 266.391 24.8095 267.126 24.8443Z" fill="#4C5A80"/>
</g>
<g opacity="0.55">
<path d="M265.511 31.6579C285.272 33.1899 305.197 33.3466 325 32.6503C325.723 32.6246 325.726 31.4963 325 31.5236C305.148 32.2532 285.349 31.8818 265.511 30.9392C265.046 30.9168 265.055 31.6223 265.511 31.6579Z" fill="#4C5A80"/>
</g>
<g opacity="0.55">
<path d="M263.928 39.0088C277.514 40.2042 291.35 40.9669 304.99 40.4778C305.601 40.4562 305.605 39.536 304.99 39.5261C291.284 39.2997 277.625 39.221 263.928 38.484C263.587 38.4658 263.596 38.9797 263.928 39.0088Z" fill="#4C5A80"/>
</g>
<path d="M122.509 23.5038H42.9058C36.1403 23.5038 30.3613 28.3833 29.2272 35.0535L22.3515 75.5007C20.9115 83.9715 27.4382 91.7011 36.0301 91.7011H103.315L115.051 106.491L115.526 91.7011H115.633C122.398 91.7011 128.177 86.8216 129.312 80.1514L136.187 39.7042C137.627 31.2334 131.1 23.5038 122.509 23.5038Z" fill="#CBCFDA"/>
<g opacity="0.55">
<path d="M71.1551 38.4424C80.5875 38.8528 90.0332 39.0178 99.4714 39.2383C104.122 39.3469 108.774 39.4563 113.424 39.5649C118.187 39.676 123.029 40.0424 127.788 39.8086C128.179 39.7896 128.169 39.2441 127.788 39.2076C123.178 38.7633 118.465 38.8926 113.835 38.7823C109.047 38.6679 104.259 38.5544 99.4714 38.4399C90.0348 38.2153 80.5941 37.9343 71.1551 37.8986C70.8036 37.8978 70.8069 38.4275 71.1551 38.4424Z" fill="#4C5A80"/>
</g>
<g opacity="0.55">
<path d="M68.6448 48.6889C77.7167 49.1921 86.8001 49.4566 95.886 49.4599C104.91 49.4632 114.182 49.6398 123.158 48.6359C123.586 48.5878 123.611 47.9503 123.158 47.9486C114.074 47.9229 104.98 48.6284 95.886 48.6226C86.8001 48.6168 77.7167 48.3499 68.6448 47.8442C68.1018 47.8143 68.1035 48.6591 68.6448 48.6889Z" fill="#4C5A80"/>
</g>
<g opacity="0.55">
<path d="M34.9872 57.1373C62.0534 59.1046 89.3003 59.3823 116.415 58.4032C117.075 58.3792 117.079 57.3512 116.415 57.3752C89.2498 58.3568 62.128 57.9124 34.9872 56.4816C34.5635 56.4592 34.5693 57.1066 34.9872 57.1373Z" fill="#4C5A80"/>
</g>
<g opacity="0.55">
<path d="M32.8193 67.2429C51.4355 68.7791 70.3427 69.7672 89.026 69.1563C89.5839 69.138 89.5872 68.2949 89.026 68.2875C70.2581 68.0446 51.5665 67.8837 32.8193 66.7638C32.5101 66.7463 32.5151 67.2181 32.8193 67.2429Z" fill="#4C5A80"/>
</g>
<g opacity="0.55">
<path d="M37.8033 34.314C37.2396 38.2145 36.4114 42.2269 36.1478 46.1564C35.9894 48.5124 37.1111 49.644 39.3966 50.0311C43.3411 50.6993 47.4504 50.8361 51.433 51.1934C53.8197 51.4073 58.1695 52.3847 60.15 50.4166C61.1149 49.4575 60.8696 47.986 60.8041 46.7574C60.7104 45.0098 60.5131 43.2664 60.5098 41.5147C60.5065 39.3171 61.1473 37.5165 61.6372 35.4315C61.8619 34.4757 61.9075 33.5223 61.2617 32.7057C59.7023 30.7319 55.8002 31.4523 53.6498 31.4597C49.2842 31.4755 44.9145 31.5932 40.5498 31.6744C39.1894 31.7001 39.2499 33.9012 40.5498 33.7495C46.2127 33.0879 52.0407 32.6734 57.7467 32.9453C59.0018 33.005 60.2859 32.9254 60.2602 35.0518C60.2544 35.5418 59.8905 36.1337 59.7537 36.5987C59.4246 37.7171 59.2688 38.8727 59.2165 40.035C59.161 41.2752 59.2513 42.5203 59.3566 43.7556C59.4661 45.0389 59.8855 46.6015 59.7123 47.8774C59.4055 50.1455 57.5792 50.3967 55.6485 50.3428C54.2408 50.3039 52.834 50.1256 51.4313 50.0087C48.5655 49.7692 45.6971 49.552 42.8296 49.3232C41.6615 49.2303 39.4331 49.4848 38.3911 48.8838C37.6251 48.4419 36.9884 46.9829 36.9403 46.1555C36.8931 45.3448 37.2205 44.1187 37.3366 43.2789C37.7386 40.3616 38.2352 37.4617 38.6563 34.5486C38.7401 33.9907 37.8854 33.7495 37.8033 34.314Z" fill="#4C5A80"/>
</g>
<g opacity="0.55">
<path d="M46.0776 43.5566C46.4308 41.649 46.5958 39.7092 46.827 37.7842C46.7259 37.96 46.6256 38.1357 46.5245 38.3115C46.8702 38.0818 50.2508 42.1406 50.6322 42.5734C50.7333 42.1912 50.8336 41.8099 50.9348 41.4277C49.4683 42.0237 47.9926 42.5982 46.5319 43.2084C45.7162 43.5491 46.0594 44.8979 46.905 44.5605C48.3765 43.9736 49.8339 43.351 51.2995 42.7491C51.7828 42.551 51.971 42.0196 51.6021 41.6034C50.6687 40.5531 49.7161 39.5226 48.7172 38.5345C48.1576 37.9807 47.2963 36.8242 46.3537 37.0282C45.4368 37.2263 45.5645 38.2269 45.4923 38.9589C45.3464 40.447 45.1699 41.9317 45.1234 43.4264C45.1052 43.9644 45.9765 44.1037 46.0776 43.5566Z" fill="#4C5A80"/>
</g>
<path d="M388.316 200.496C389.384 200.496 390.25 199.63 390.25 198.562C390.25 197.494 389.384 196.628 388.316 196.628C387.248 196.628 386.382 197.494 386.382 198.562C386.382 199.63 387.248 200.496 388.316 200.496Z" fill="#E4572E"/>
<path d="M394.43 200.496C395.498 200.496 396.364 199.63 396.364 198.562C396.364 197.494 395.498 196.628 394.43 196.628C393.362 196.628 392.496 197.494 392.496 198.562C392.496 199.63 393.362 200.496 394.43 200.496Z" fill="#E4572E"/>
<path d="M400.544 200.496C401.612 200.496 402.478 199.63 402.478 198.562C402.478 197.494 401.612 196.628 400.544 196.628C399.476 196.628 398.61 197.494 398.61 198.562C398.61 199.63 399.476 200.496 400.544 200.496Z" fill="#E4572E"/>
<path d="M395.777 55.1436C396.845 55.1436 397.711 54.2777 397.711 53.2095C397.711 52.1414 396.845 51.2755 395.777 51.2755C394.709 51.2755 393.843 52.1414 393.843 53.2095C393.843 54.2777 394.709 55.1436 395.777 55.1436Z" fill="#E4572E"/>
<path d="M401.891 55.1436C402.959 55.1436 403.825 54.2777 403.825 53.2095C403.825 52.1414 402.959 51.2754 401.891 51.2754C400.823 51.2754 399.957 52.1414 399.957 53.2095C399.957 54.2777 400.823 55.1436 401.891 55.1436Z" fill="#E4572E"/>
<path d="M408.005 55.1436C409.073 55.1436 409.939 54.2777 409.939 53.2095C409.939 52.1414 409.073 51.2754 408.005 51.2754C406.937 51.2754 406.071 52.1414 406.071 53.2095C406.071 54.2777 406.937 55.1436 408.005 55.1436Z" fill="#E4572E"/>
<path d="M48.7346 129.201C49.8027 129.201 50.6686 128.335 50.6686 127.267C50.6686 126.199 49.8027 125.333 48.7346 125.333C47.6664 125.333 46.8005 126.199 46.8005 127.267C46.8005 128.335 47.6664 129.201 48.7346 129.201Z" fill="#E4572E"/>
<path d="M54.8485 129.201C55.9166 129.201 56.7825 128.335 56.7825 127.267C56.7825 126.199 55.9166 125.333 54.8485 125.333C53.7803 125.333 52.9144 126.199 52.9144 127.267C52.9144 128.335 53.7803 129.201 54.8485 129.201Z" fill="#E4572E"/>
<path d="M60.9624 129.201C62.0305 129.201 62.8964 128.335 62.8964 127.267C62.8964 126.199 62.0305 125.333 60.9624 125.333C59.8942 125.333 59.0283 126.199 59.0283 127.267C59.0283 128.335 59.8942 129.201 60.9624 129.201Z" fill="#E4572E"/>
</svg>
