<svg width="284" height="225" viewBox="0 0 284 225" fill="none" xmlns="http://www.w3.org/2000/svg">
<g clip-path="url(#clip0_1_839)">
<path d="M136.185 44.9476C139.339 42.1499 143.552 41.3006 145.595 43.0505C147.638 44.8003 146.736 48.4862 143.58 51.2845C142.337 52.4174 140.801 53.2743 139.1 53.7837L125.563 65.4905L119.395 59.837L133.395 48.8964C133.95 47.4048 134.906 46.0507 136.185 44.9476Z" fill="#FFB6B6"/>
<path d="M92.8925 35.2843L107.086 62.7259L129.75 52.0339L137.861 55.7857C137.861 55.7857 119.333 82.7812 106.648 79.7081C93.9619 76.635 71.4353 48.7704 75.4941 40.1706C79.5528 31.5707 92.8925 35.2843 92.8925 35.2843Z" fill="#E6E6E6"/>
<path d="M158.685 50.7744C155.39 48.1025 154.301 44.4551 156.252 42.6279C158.204 40.8007 162.456 41.4857 165.751 44.1589C167.085 45.211 168.109 46.5261 168.74 47.9941L182.536 59.4685L176.22 64.9962L163.29 53.0976C161.564 52.6549 159.985 51.8582 158.685 50.7744Z" fill="#A0616A"/>
<path d="M228.18 52.5431L201.55 77.2524C201.55 77.2524 195.57 82.4093 185.731 74.9726C175.893 67.5358 164.954 55.3349 164.954 55.3349L171.091 49.514L181.96 57.9659C181.96 57.9659 188.414 60.229 188.863 61.6934C189.311 63.1578 188.057 63.7635 190.073 63.2942C192.089 62.825 192.129 61.7782 192.255 63.3658C192.382 64.9533 191.15 66.8087 193.479 65.0116C195.809 63.2144 196.504 64.3077 196.504 64.3077L213.524 44.6587C213.524 44.6587 224.522 37.079 227.683 43.8734C230.845 50.6677 228.18 52.5431 228.18 52.5431Z" fill="#253664"/>
<path d="M86.6691 218.172L97.0181 218.171L101.941 183.381L86.667 183.382L86.6691 218.172Z" fill="#FFB6B6"/>
<path d="M122.126 217.967C122.448 218.44 122.618 219.967 122.618 220.517C122.618 222.207 121.046 223.578 119.106 223.578H87.0561C85.7327 223.578 84.6599 222.643 84.6599 221.49V220.327C84.6599 220.327 83.0744 216.831 86.3386 212.523C86.3386 212.523 90.3955 215.897 96.4577 210.613L98.2453 207.791L111.186 216.039L118.358 216.808C119.927 216.977 121.319 216.782 122.126 217.967Z" fill="#2F2E41"/>
<path d="M205.946 57.6244H231.593V24.5961H205.946V57.6244Z" fill="#2F2E41"/>
<path d="M225.836 47.5536L224.938 38.0938H212.995L210.348 48.1163L225.836 47.5536Z" fill="#A0616A"/>
<path opacity="0.1" d="M225.836 47.5536L224.938 38.0938H212.995L210.348 48.1163L225.836 47.5536Z" fill="black"/>
<path d="M94.5002 37.0452L94.7096 24.8799L86.1018 20.2035L76.7419 30.1819L94.5002 37.0452Z" fill="#FFB6B6"/>
<path opacity="0.1" d="M94.5002 37.0452L95.0574 25.1831L86.1018 20.2035L89.1445 34.8834L94.5002 37.0452Z" fill="black"/>
<path d="M217.086 41.1037C224.295 41.1037 230.14 36.01 230.14 29.7265C230.14 23.4431 224.295 18.3493 217.086 18.3493C209.876 18.3493 204.032 23.4431 204.032 29.7265C204.032 36.01 209.876 41.1037 217.086 41.1037Z" fill="#A0616A"/>
<path d="M213.793 17.7569C213.793 17.7569 213.793 13.0863 218.769 14.0871C223.746 15.088 225.277 16.7561 225.277 16.7561C225.277 16.7561 227.191 19.425 230.253 19.7587C233.315 20.0923 235.995 27.7655 235.612 29.4336C235.229 31.1017 233.315 35.4387 235.995 37.4405C238.674 39.4422 242.502 42.4447 241.354 45.4473C240.206 48.4499 236.761 56.1231 236.761 56.1231C236.761 56.1231 246.369 57.3473 245.584 62.5735C245.584 62.5735 240.971 59.4593 234.847 59.4593C228.722 59.4593 229.487 49.7752 229.487 49.7752C229.487 49.7752 229.105 43.7792 227.956 42.1111C226.808 40.443 228.339 31.1017 222.597 26.0974C216.855 21.0931 213.793 17.7569 213.793 17.7569Z" fill="#2F2E41"/>
<path d="M215.324 16.7561C215.324 16.7561 208.051 18.0906 205.371 24.4293C202.692 30.7681 204.045 31.9476 204.045 31.9476C204.045 31.9476 203.453 35.7645 200.201 37.1029C196.95 38.4413 199.63 44.1128 199.63 44.1128C199.63 44.1128 198.864 49.7844 188.529 51.7861C178.193 53.7878 201.489 69.1379 201.489 69.1379C201.489 69.1379 199.814 61.8931 210.533 61.5595C221.251 61.2259 208.434 44.1128 208.434 44.1128L207.285 33.1034C207.285 33.1034 209.582 20.4259 216.472 18.7578C223.363 17.0897 215.324 16.7561 215.324 16.7561Z" fill="#2F2E41"/>
<path d="M94.527 28.6655C102.982 28.6655 109.835 22.6921 109.835 15.3236C109.835 7.95503 102.982 1.98164 94.527 1.98164C86.0723 1.98164 79.2185 7.95503 79.2185 15.3236C79.2185 22.6921 86.0723 28.6655 94.527 28.6655Z" fill="#FFB6B6"/>
<path d="M115.405 117.488L101.144 202.064H83.2524L85.6315 153.786L86.8836 128.401L83.2524 116.318C83.2524 116.318 81.5968 113.632 80.202 110.377C78.6299 106.703 77.3882 102.298 79.2316 100.209C79.9099 99.4395 81.6733 98.8696 84.0697 98.4452C85.5341 98.1845 87.2384 97.9814 89.0783 97.8238C99.6589 96.9113 114.709 97.4812 114.709 97.4812L115.092 108.485L115.304 114.63L115.405 117.488Z" fill="#2F2E41"/>
<path d="M27.7454 204.697L36.8624 208.965L60.0917 180.348L46.636 174.049L27.7454 204.697Z" fill="#FFB6B6"/>
<path d="M59.0909 219.142C59.1179 219.692 58.4387 221.106 58.14 221.591C57.2219 223.08 55.0923 223.639 53.3834 222.839L25.1505 209.619C23.9848 209.073 23.5474 207.807 24.1738 206.791L24.8053 205.766C24.8053 205.766 25.3067 202.033 30.5216 199.585C30.5216 199.585 32.2636 204.23 40.4729 202.076L43.5804 200.327L50.5005 212.931L56.401 216.567C57.692 217.363 59.0233 217.765 59.0909 219.142Z" fill="#2F2E41"/>
<path d="M115.304 114.63L107.735 127.856L85.6315 153.786L49.2428 196.477L33.4832 189.098L76.6821 125.706L80.049 113.563C80.049 113.563 80.049 112.25 80.202 110.377C80.5012 106.669 81.3985 100.761 84.0697 98.4452C84.4315 98.13 84.8245 97.8814 85.2523 97.7146C86.0558 97.3994 87.3914 97.4752 89.0783 97.8238C96.1251 99.291 109.276 105.593 115.092 108.485L115.304 114.63Z" fill="#2F2E41"/>
<path d="M224.864 219.233L215.965 219.232L211.732 189.319L224.865 189.32L224.864 219.233Z" fill="#A0616A"/>
<path d="M194.377 219.057C194.1 219.463 193.954 220.776 193.954 221.249C193.954 222.703 195.306 223.881 196.974 223.881H224.531C225.668 223.881 226.591 223.077 226.591 222.085V221.086C226.591 221.086 227.954 218.08 225.148 214.376C225.148 214.376 221.659 217.277 216.447 212.734L214.91 210.307L203.784 217.399L197.617 218.061C196.267 218.205 195.071 218.038 194.377 219.057Z" fill="#2F2E41"/>
<path d="M259.917 210.094L251.691 213.051L234.687 186.807L246.827 182.442L259.917 210.094Z" fill="#A0616A"/>
<path d="M231.659 220.066C231.581 220.534 232.02 221.796 232.227 222.233C232.863 223.577 234.629 224.217 236.171 223.662L261.644 214.501C262.696 214.123 263.197 213.073 262.763 212.156L262.325 211.232C262.325 211.232 262.27 208.001 258.054 205.51C258.054 205.51 256.099 209.351 249.293 206.884L246.81 205.152L239.629 215.406L234.217 218.068C233.034 218.65 231.855 218.894 231.659 220.066Z" fill="#2F2E41"/>
<path d="M228.946 116.621L225.315 128.704L226.282 148.311L227.885 180.877L227.931 181.796L228.111 185.458L228.946 202.367H211.054L203.089 155.129L196.794 117.791L197.455 98.7787L197.49 97.7844C197.49 97.7844 229.489 96.5718 232.967 100.513C236.445 104.453 228.946 116.621 228.946 116.621Z" fill="#2F2E41"/>
<path d="M253.84 190.211L250.807 191.578L239.589 196.637L237.948 197.377L228.111 185.458L203.089 155.129L196.794 117.791L197.455 98.7786C200.286 97.9935 202.55 97.6722 203.698 98.139C208.867 100.246 208.62 114.057 208.62 114.057L211.767 126.243L226.282 148.311L253.84 190.211Z" fill="#2F2E41"/>
<path d="M189.148 193.939C188.917 193.325 187.172 193.596 187.005 193.047C186.838 192.499 188.512 192.04 189.796 190.498C190.028 190.22 191.487 188.468 190.928 187.731C189.867 186.333 182.485 189.813 180.713 187.86C180.324 187.432 180.164 186.696 179.006 185.327C178.545 184.782 178.249 184.519 177.896 184.527C177.395 184.538 177.216 185.085 176.428 186.075C175.246 187.559 174.82 187.373 174.042 188.589C173.464 189.492 173.395 190.069 172.979 190.103C172.389 190.152 172.145 189.027 171.425 188.984C170.69 188.939 169.954 190.05 169.589 190.918C168.905 192.547 169.329 193.792 169.423 195.033C169.525 196.381 169.285 198.355 167.604 200.888L151.749 222.904C155.154 218.416 164.82 206.177 168.714 201.688C169.838 200.392 171.046 199.091 172.906 198.846C174.696 198.61 176.874 199.382 179.915 199.337C180.27 199.332 181.258 199.306 181.498 198.85C181.697 198.472 181.203 198.144 181.383 197.79C181.624 197.314 182.707 197.518 184.183 197.202C185.224 196.979 185.931 196.611 186.539 196.294C186.723 196.199 189.454 194.757 189.148 193.939Z" fill="#F2F2F2"/>
<path d="M147.62 199.08C147.208 199.001 146.857 199.825 146.499 199.739C146.143 199.652 146.367 198.803 145.869 197.809C145.78 197.63 145.214 196.5 144.637 196.527C143.544 196.577 143.374 200.739 141.763 200.934C141.41 200.976 140.949 200.832 139.844 200.933C139.404 200.973 139.171 201.023 139.073 201.177C138.935 201.394 139.191 201.629 139.521 202.251C140.016 203.185 139.788 203.314 140.249 203.998C140.59 204.505 140.896 204.701 140.794 204.889C140.651 205.155 139.948 204.935 139.716 205.231C139.478 205.532 139.892 206.168 140.275 206.574C140.995 207.337 141.819 207.515 142.544 207.832C143.333 208.178 144.375 208.85 145.317 210.3L153.141 223.434C151.596 220.683 147.492 213.017 146.088 210.056C145.682 209.201 145.298 208.309 145.697 207.443C146.081 206.609 147.144 205.9 147.996 204.587C148.095 204.433 148.366 204.003 148.178 203.769C148.023 203.575 147.696 203.691 147.548 203.512C147.349 203.272 147.777 202.867 148.025 202.145C148.2 201.635 148.196 201.226 148.194 200.875C148.193 200.769 148.169 199.184 147.62 199.08Z" fill="#F2F2F2"/>
<path d="M155.425 202.284L155.671 200.306L155.822 200.181C156.52 199.607 156.956 198.998 157.12 198.371C157.146 198.271 157.166 198.17 157.187 198.068C157.269 197.661 157.37 197.155 157.819 196.63C158.07 196.337 158.735 195.676 159.42 195.907C159.605 195.967 159.73 196.072 159.816 196.182C159.838 196.163 159.86 196.144 159.884 196.123C160.18 195.872 160.387 195.781 160.587 195.692C160.74 195.624 160.898 195.554 161.166 195.367C161.284 195.286 161.378 195.212 161.457 195.15C161.698 194.963 162.005 194.744 162.426 194.83C162.873 194.937 163.026 195.308 163.128 195.554C163.309 195.992 163.365 196.294 163.402 196.494C163.415 196.567 163.431 196.649 163.442 196.676C163.54 196.891 164.767 196.946 165.229 196.969C166.267 197.018 167.165 197.061 167.381 197.68C167.536 198.123 167.213 198.607 166.393 199.155C166.138 199.325 165.883 199.443 165.66 199.531C165.797 199.644 165.906 199.797 165.913 200.006C165.928 200.5 165.346 200.879 164.184 201.135C163.896 201.199 163.507 201.284 162.999 201.262C162.76 201.252 162.55 201.22 162.371 201.19C162.345 201.279 162.296 201.371 162.208 201.459C161.949 201.717 161.532 201.782 160.965 201.637C160.339 201.485 159.844 201.278 159.408 201.097C159.027 200.938 158.698 200.803 158.423 200.766C157.91 200.704 157.432 200.98 156.859 201.347L155.425 202.284Z" fill="#F2F2F2"/>
<path d="M159.518 191.014L157.259 191.308L157.083 191.213C156.268 190.77 155.482 190.557 154.744 190.577C154.627 190.581 154.51 190.589 154.391 190.598C153.919 190.632 153.332 190.675 152.635 190.43C152.246 190.292 151.344 189.9 151.426 189.264C151.446 189.093 151.531 188.961 151.632 188.86C151.605 188.846 151.578 188.832 151.549 188.817C151.195 188.631 151.041 188.48 150.892 188.334C150.778 188.222 150.66 188.107 150.385 187.928C150.264 187.85 150.158 187.789 150.07 187.738C149.801 187.583 149.48 187.379 149.469 187.002C149.474 186.599 149.847 186.375 150.094 186.227C150.535 185.963 150.855 185.84 151.068 185.758C151.146 185.728 151.233 185.694 151.26 185.677C151.473 185.541 151.224 184.492 151.132 184.097C150.923 183.21 150.743 182.442 151.375 182.103C151.828 181.86 152.446 182.009 153.262 182.561C153.516 182.733 153.712 182.918 153.866 183.084C153.956 182.94 154.099 182.809 154.329 182.75C154.873 182.612 155.442 183.006 156.02 183.921C156.165 184.148 156.357 184.454 156.463 184.888C156.512 185.092 156.529 185.277 156.542 185.435C156.647 185.435 156.762 185.453 156.881 185.505C157.233 185.658 157.412 185.993 157.394 186.508C157.384 187.074 157.28 187.543 157.189 187.957C157.11 188.319 157.044 188.63 157.073 188.872C157.133 189.32 157.561 189.653 158.114 190.042L159.518 191.014Z" fill="#F2F2F2"/>
<path d="M159.822 185.102L160.068 183.124L160.219 182.999C160.917 182.424 161.353 181.815 161.517 181.189C161.543 181.089 161.563 180.988 161.584 180.886C161.666 180.479 161.767 179.973 162.216 179.448C162.467 179.155 163.132 178.494 163.817 178.725C164.002 178.785 164.127 178.889 164.213 179C164.235 178.981 164.257 178.962 164.281 178.941C164.577 178.69 164.784 178.599 164.984 178.51C165.137 178.442 165.295 178.372 165.563 178.185C165.681 178.103 165.775 178.03 165.854 177.968C166.095 177.781 166.402 177.562 166.823 177.648C167.27 177.755 167.423 178.126 167.525 178.372C167.706 178.81 167.762 179.112 167.799 179.312C167.812 179.385 167.828 179.467 167.839 179.494C167.937 179.709 169.164 179.764 169.626 179.787C170.664 179.836 171.562 179.879 171.778 180.498C171.933 180.941 171.61 181.424 170.79 181.973C170.535 182.143 170.28 182.261 170.057 182.349C170.194 182.462 170.303 182.615 170.31 182.824C170.325 183.318 169.743 183.697 168.581 183.952C168.293 184.017 167.904 184.102 167.396 184.08C167.157 184.07 166.947 184.038 166.768 184.008C166.742 184.097 166.693 184.189 166.605 184.277C166.346 184.535 165.929 184.6 165.362 184.455C164.736 184.303 164.241 184.096 163.805 183.915C163.424 183.756 163.095 183.621 162.82 183.584C162.307 183.522 161.829 183.797 161.256 184.165L159.822 185.102Z" fill="#F2F2F2"/>
<path d="M152.499 223.017L152.099 222.673L151.544 222.622C151.547 222.576 151.543 222.47 151.539 222.304C151.518 221.394 151.452 218.623 151.894 214.366C152.203 211.395 152.72 208.378 153.429 205.4C154.14 202.416 154.878 200.196 155.47 198.412C155.917 197.066 156.369 195.79 156.809 194.547C157.985 191.225 159.095 188.087 159.782 184.508C159.936 183.709 160.256 182.046 159.602 180.083C159.222 178.945 158.572 177.873 157.67 176.899L158.543 176.284C159.54 177.361 160.258 178.548 160.68 179.812C161.405 181.988 161.057 183.8 160.89 184.671C160.19 188.313 159.069 191.481 157.881 194.835C157.443 196.073 156.993 197.344 156.548 198.684C155.961 200.452 155.23 202.653 154.529 205.598C153.827 208.541 153.317 211.52 153.011 214.454C152.575 218.657 152.64 221.387 152.662 222.283C152.673 222.762 152.675 222.862 152.499 223.017Z" fill="#F2F2F2"/>
<path d="M155.273 178.026C155.228 178.017 155.183 178.007 155.137 177.995C154.216 177.77 153.477 177.116 152.94 176.05C152.689 175.55 152.629 175.022 152.511 173.971C152.492 173.809 152.41 172.988 152.511 171.901C152.577 171.191 152.664 170.905 152.886 170.681C153.133 170.432 153.464 170.289 153.815 170.217C153.825 170.123 153.86 170.031 153.93 169.944C154.219 169.582 154.701 169.731 154.963 169.808C155.095 169.85 155.26 169.902 155.445 169.929C155.736 169.973 155.91 169.929 156.172 169.862C156.424 169.799 156.737 169.719 157.169 169.726C158.022 169.736 158.653 170.07 158.861 170.18C159.958 170.755 160.337 171.671 160.775 172.732C160.862 172.944 161.151 173.713 161.218 174.702C161.267 175.416 161.159 175.709 161.036 175.918C160.785 176.347 160.4 176.546 159.444 176.965C158.446 177.405 157.945 177.624 157.534 177.737C156.579 177.999 155.979 178.163 155.273 178.026Z" fill="#F2F2F2"/>
<path d="M78.7098 27.6082L96.1006 34.8834C96.1006 34.8834 114.535 82.476 114.535 84.9011C114.535 87.3261 119.752 88.8418 116.622 91.5701C113.492 94.2983 122.448 96.6088 117.622 98.7881C112.796 100.967 82.6891 112.887 79.3414 111.813C70.1082 108.848 79.7327 97.9538 79.7327 97.9538C79.7327 97.9538 72.7969 93.0858 73.8403 90.6607C74.8838 88.2356 67.5796 41.8556 67.5796 41.8556L78.7098 27.6082Z" fill="#E6E6E6"/>
<path d="M93.592 18.5192L95.561 21.9513C95.561 21.9513 97.53 15.7735 100.68 14.4007C103.831 13.0279 104.225 10.9686 104.225 10.9686C104.225 10.9686 108.163 15.4303 110.919 14.4007C113.676 13.3711 114.857 12.6847 111.707 8.56614C108.556 4.44762 109.344 6.50688 109.344 6.50688C109.344 6.50688 106.587 3.07478 106.981 4.10441C107.375 5.13404 104.618 1.35873 104.618 2.38836C104.618 3.41799 102.649 0.329095 102.649 1.35873C102.649 2.38836 94.3796 -1.04374 95.561 0.3291C96.7424 1.70194 88.4727 -2.41658 84.5347 3.07478C80.5967 8.56614 75.1363 7.55062 77.0789 10.9757C79.0216 14.4007 78.234 23.6674 78.234 23.6674H83.6649C83.6649 23.6674 89.2603 14.4007 93.592 18.5192Z" fill="#2F2E41"/>
<path d="M209.489 47.6152L209.808 47.5367L225.489 43.6744L238.01 58.5281L229.663 89.4481L232.793 101.877C232.793 101.877 207.402 96.1171 197.316 100.967C197.316 100.967 196.62 98.2033 197.316 96.8571C198.011 95.5108 199.055 89.9088 198.011 87.4049C196.968 84.9011 200.098 73.0787 200.098 73.0787C200.098 73.0787 199.055 65.1972 203.576 61.2564C208.098 57.3156 209.489 47.6152 209.489 47.6152Z" fill="#253664"/>
<path d="M195.248 103.447L140.146 79.5813C139.872 79.4626 139.632 79.2991 139.434 79.0954L130.836 70.2643C130.266 69.6786 130.143 68.8521 130.522 68.1587L146.643 38.6804C146.926 38.1638 147.451 37.7823 148.086 37.6337C148.721 37.4854 149.395 37.5859 149.936 37.9096L188.796 61.1412C189.594 61.618 189.95 62.4827 189.683 63.2929L181.793 87.2218C181.578 87.8763 181.852 88.5905 182.477 88.999L198.085 99.201C198.926 99.7505 199.216 100.753 198.776 101.584L198.282 102.516C198.026 103 197.567 103.364 196.991 103.541C196.746 103.616 196.494 103.653 196.243 103.653C195.902 103.653 195.563 103.584 195.248 103.447Z" fill="#253664"/>
<path d="M194.808 97.6389L179.469 86.5168C179.337 86.4198 179.233 86.3015 179.16 86.1712C179.021 85.9257 178.993 85.6316 179.097 85.3618L187.838 63.0722C188.064 62.4962 187.82 61.8535 187.243 61.508L150.826 39.7791C150.454 39.5548 149.988 39.4851 149.55 39.5851C149.108 39.6851 148.743 39.9458 148.541 40.3005L133.189 67.4707C132.956 67.8799 132.973 68.3498 133.23 68.7408C133.262 68.7954 133.3 68.8469 133.345 68.8954L141.067 77.7773C141.216 77.9471 141.411 78.0865 141.63 78.1805L193.128 99.9124C193.344 100.003 193.577 100.049 193.81 100.049C194.213 100.049 194.617 99.9124 194.916 99.6487C194.951 99.6153 194.985 99.585 195.02 99.5486C195.264 99.291 195.389 98.9605 195.371 98.6241C195.351 98.2421 195.145 97.8844 194.808 97.6389Z" fill="#F2F2F2"/>
<path d="M139.23 65.8034C139.357 65.8034 139.48 65.7424 139.541 65.6366L152.024 44.0224C152.11 43.8728 152.041 43.6906 151.87 43.6154C151.698 43.5397 151.489 43.6003 151.403 43.7498L138.92 65.364C138.833 65.5136 138.902 65.6958 139.074 65.771C139.124 65.7931 139.177 65.8034 139.23 65.8034Z" fill="#253664"/>
<path d="M145.838 69.4411C145.966 69.4411 146.088 69.3801 146.149 69.2743L158.632 47.6601C158.719 47.5104 158.65 47.3282 158.478 47.253C158.306 47.1772 158.097 47.2381 158.011 47.3874L145.528 69.0016C145.442 69.1513 145.511 69.3335 145.682 69.4087C145.732 69.4307 145.786 69.4411 145.838 69.4411Z" fill="#253664"/>
<path d="M151.403 72.4724C151.531 72.4724 151.653 72.4114 151.714 72.3056L164.197 50.6914C164.284 50.5418 164.215 50.3596 164.043 50.2844C163.871 50.2087 163.663 50.2693 163.576 50.4188L151.093 72.033C151.007 72.1826 151.076 72.3648 151.247 72.44C151.298 72.4621 151.351 72.4724 151.403 72.4724Z" fill="#253664"/>
<path d="M131.702 69.5446C136.018 68.4332 140.174 69.4733 140.985 71.8674C141.796 74.2614 138.955 77.1023 134.637 78.2135C132.919 78.678 131.099 78.7772 129.328 78.5028L110.973 83.0102L108.729 75.458L127.063 71.8163C128.379 70.747 129.969 69.968 131.702 69.5446Z" fill="#FFB6B6"/>
<path d="M99.2355 42.7794L96.3586 72.7756L122.128 73.0171L127.13 79.7289C127.13 79.7289 95.8952 95.4911 86.5164 87.4371C77.1375 79.3832 72.9644 45.4913 81.303 39.6901C89.6417 33.8888 99.2355 42.7794 99.2355 42.7794Z" fill="#E6E6E6"/>
<path d="M183.653 96.9391C179.166 96.6445 175.702 94.3876 175.918 91.8984C176.134 89.4093 179.946 87.631 184.435 87.9262C186.23 88.0227 187.973 88.4925 189.517 89.2962L208.514 90.7537L207.539 98.5086L188.915 96.2484C187.25 96.8416 185.445 97.0784 183.653 96.9391Z" fill="#A0616A"/>
<path d="M239.21 60.5098L236.106 94.3015C236.106 94.3015 235.128 101.584 222.115 101.127C209.102 100.671 191.818 97.0907 191.818 97.0907L192.442 89.2046L206.988 89.8931C206.988 89.8931 213.65 88.1499 215.05 89.0497C216.449 89.9496 215.903 91.1053 217.142 89.6417C218.381 88.1781 217.662 87.339 218.898 88.5104C220.134 89.6818 220.501 91.8014 221.033 89.13C221.565 86.4587 222.891 86.9346 222.891 86.9346L222.113 62.3245C222.113 62.3245 225.275 50.4195 232.612 54.007C239.949 57.5945 239.21 60.5098 239.21 60.5098Z" fill="#253664"/>
</g>
<defs>
<clipPath id="clip0_1_839">
<rect width="283.333" height="224.315" fill="white"/>
</clipPath>
</defs>
</svg>
