<svg width="589" height="704" viewBox="0 0 589 704" fill="none" xmlns="http://www.w3.org/2000/svg">
<rect width="588.889" height="704" rx="40" fill="#E9EBF0"/>
<rect x="150" y="150" width="288.889" height="55.5556" rx="27.7778" fill="white"/>
<rect x="150" y="150" width="266.667" height="55.5556" rx="27.7778" fill="#253664"/>
<rect x="150" y="272.222" width="288.889" height="55.5555" rx="27.7778" fill="white"/>
<rect x="150" y="272.222" width="133.333" height="55.5555" rx="27.7778" fill="#253664"/>
<rect x="150" y="394.444" width="288.889" height="55.5556" rx="27.7778" fill="white"/>
<rect x="150" y="394.444" width="233.333" height="55.5556" rx="27.7778" fill="#253664"/>
<path d="M179.65 516.2C178.05 516.2 176.85 516.78 176.05 517.94C175.25 519.06 174.85 520.56 174.85 522.44V524.6C174.85 526.52 175.25 528.04 176.05 529.16C176.89 530.28 178.17 530.84 179.89 530.84C181.49 530.84 182.73 530.34 183.61 529.34C184.53 528.3 184.99 526.78 184.99 524.78V522.26C184.99 520.38 184.51 518.9 183.55 517.82C182.59 516.74 181.29 516.2 179.65 516.2ZM179.89 551.6C175.49 551.6 172.07 550.64 169.63 548.72C167.23 546.84 165.81 544.44 165.37 541.52H174.61C174.89 542.04 175.35 542.48 175.99 542.84C176.67 543.24 177.83 543.44 179.47 543.44C181.31 543.44 182.69 542.94 183.61 541.94C184.53 540.98 184.99 539.5 184.99 537.5V534.5C184.19 536.02 183.09 537.16 181.69 537.92C180.29 538.64 178.65 539 176.77 539C174.65 539 172.71 538.48 170.95 537.44C169.23 536.36 167.85 534.8 166.81 532.76C165.77 530.68 165.25 528.16 165.25 525.2V521.9C165.25 518.9 165.77 516.38 166.81 514.34C167.85 512.26 169.23 510.7 170.95 509.66C172.71 508.58 174.65 508.04 176.77 508.04C178.77 508.04 180.45 508.44 181.81 509.24C183.17 510.04 184.23 511.16 184.99 512.6V508.64H194.35V537.5C194.35 540.62 193.73 543.22 192.49 545.3C191.29 547.38 189.59 548.94 187.39 549.98C185.23 551.06 182.73 551.6 179.89 551.6ZM220.546 539V533.36C219.746 535.56 218.626 537.16 217.186 538.16C215.786 539.12 214.046 539.6 211.966 539.6C209.046 539.6 206.706 538.7 204.946 536.9C203.186 535.06 202.306 532.44 202.306 529.04V508.64H211.666V526.28C211.666 528.12 211.986 529.5 212.626 530.42C213.266 531.34 214.306 531.8 215.746 531.8C216.626 531.8 217.426 531.58 218.146 531.14C218.866 530.7 219.446 529.98 219.886 528.98C220.326 527.98 220.546 526.68 220.546 525.08V508.64H229.906V539H220.546ZM242.973 504.26C241.293 504.26 239.933 503.8 238.893 502.88C237.893 501.96 237.393 500.76 237.393 499.28C237.393 497.76 237.893 496.56 238.893 495.68C239.933 494.76 241.293 494.3 242.973 494.3C244.653 494.3 245.993 494.76 246.993 495.68C248.033 496.56 248.553 497.76 248.553 499.28C248.553 500.76 248.033 501.96 246.993 502.88C245.993 503.8 244.653 504.26 242.973 504.26ZM238.293 539V508.64H247.653V539H238.293ZM269.067 516.2C267.467 516.2 266.267 516.78 265.467 517.94C264.667 519.06 264.267 520.56 264.267 522.44V525.2C264.267 527.12 264.667 528.64 265.467 529.76C266.307 530.88 267.587 531.44 269.307 531.44C270.907 531.44 272.147 530.94 273.027 529.94C273.947 528.9 274.407 527.38 274.407 525.38V522.26C274.407 520.38 273.927 518.9 272.967 517.82C272.007 516.74 270.707 516.2 269.067 516.2ZM274.407 539V535.1C273.607 536.62 272.507 537.76 271.107 538.52C269.707 539.24 268.067 539.6 266.187 539.6C264.067 539.6 262.127 539.08 260.367 538.04C258.647 536.96 257.267 535.4 256.227 533.36C255.187 531.28 254.667 528.76 254.667 525.8V521.9C254.667 518.9 255.187 516.38 256.227 514.34C257.267 512.26 258.647 510.7 260.367 509.66C262.127 508.58 264.067 508.04 266.187 508.04C268.187 508.04 269.867 508.44 271.227 509.24C272.587 510.04 273.647 511.16 274.407 512.6V495.2H283.767V539H274.407ZM318.541 529.76C317.981 532.8 316.501 535.2 314.101 536.96C311.741 538.72 308.661 539.6 304.861 539.6C300.621 539.6 297.181 538.42 294.541 536.06C291.941 533.66 290.641 530.24 290.641 525.8V521.9C290.641 517.42 291.941 514 294.541 511.64C297.141 509.24 300.621 508.04 304.981 508.04C309.181 508.04 312.521 509.28 315.001 511.76C317.481 514.24 318.721 517.8 318.721 522.44V526.4H300.301C300.341 526.76 300.381 527.1 300.421 527.42C300.461 527.7 300.521 528 300.601 528.32C300.921 529.44 301.481 530.3 302.281 530.9C303.081 531.46 304.121 531.74 305.401 531.74C306.561 531.74 307.421 531.54 307.981 531.14C308.581 530.7 309.021 530.24 309.301 529.76H318.541ZM300.301 520.76H301.261H309.721C309.561 519.08 309.121 517.82 308.401 516.98C307.681 516.14 306.561 515.72 305.041 515.72C303.561 515.72 302.421 516.18 301.621 517.1C300.861 517.98 300.421 519.2 300.301 520.76ZM330.459 539.6C328.779 539.6 327.419 539.1 326.379 538.1C325.379 537.1 324.879 535.8 324.879 534.2C324.879 532.56 325.379 531.26 326.379 530.3C327.419 529.34 328.779 528.86 330.459 528.86C332.139 528.86 333.479 529.34 334.479 530.3C335.519 531.26 336.039 532.56 336.039 534.2C336.039 535.8 335.519 537.1 334.479 538.1C333.479 539.1 332.139 539.6 330.459 539.6ZM353.297 522.92V539H343.937V508.64H353.297V513.5C354.257 511.58 355.457 510.2 356.897 509.36C358.337 508.48 359.957 508.04 361.757 508.04C363.757 508.04 365.477 508.48 366.917 509.36C368.357 510.24 369.437 511.54 370.157 513.26C371.277 511.42 372.637 510.1 374.237 509.3C375.877 508.46 377.697 508.04 379.697 508.04C382.577 508.04 384.877 508.98 386.597 510.86C388.317 512.7 389.177 515.4 389.177 518.96V539H379.817V521.72C379.817 519.84 379.517 518.46 378.917 517.58C378.317 516.66 377.317 516.2 375.917 516.2C375.077 516.2 374.297 516.42 373.577 516.86C372.897 517.3 372.337 518.02 371.897 519.02C371.457 519.98 371.237 521.28 371.237 522.92V539H361.877V521.72C361.877 519.84 361.577 518.46 360.977 517.58C360.377 516.66 359.377 516.2 357.977 516.2C357.137 516.2 356.357 516.42 355.637 516.86C354.957 517.3 354.397 518.02 353.957 519.02C353.517 519.98 353.297 521.28 353.297 522.92ZM423.541 529.76C422.981 532.8 421.501 535.2 419.101 536.96C416.741 538.72 413.661 539.6 409.861 539.6C405.621 539.6 402.181 538.42 399.541 536.06C396.941 533.66 395.641 530.24 395.641 525.8V521.9C395.641 517.42 396.941 514 399.541 511.64C402.141 509.24 405.621 508.04 409.981 508.04C414.181 508.04 417.521 509.28 420.001 511.76C422.481 514.24 423.721 517.8 423.721 522.44V526.4H405.301C405.341 526.76 405.381 527.1 405.421 527.42C405.461 527.7 405.521 528 405.601 528.32C405.921 529.44 406.481 530.3 407.281 530.9C408.081 531.46 409.121 531.74 410.401 531.74C411.561 531.74 412.421 531.54 412.981 531.14C413.581 530.7 414.021 530.24 414.301 529.76H423.541ZM405.301 520.76H406.261H414.721C414.561 519.08 414.121 517.82 413.401 516.98C412.681 516.14 411.561 515.72 410.041 515.72C408.561 515.72 407.421 516.18 406.621 517.1C405.861 517.98 405.421 519.2 405.301 520.76Z" fill="#4C5A80"/>
</svg>
