<svg width="207" height="54" viewBox="0 0 207 54" fill="none" xmlns="http://www.w3.org/2000/svg">
<rect width="52" height="10" rx="5" fill="#DADADA"/>
<rect width="48" height="10" rx="5" fill="#253664"/>
<rect y="22" width="52" height="10" rx="5" fill="#DADADA"/>
<rect y="22" width="24" height="10" rx="5" fill="#253664"/>
<rect y="44" width="52" height="10" rx="5" fill="#DADADA"/>
<rect y="44" width="42" height="10" rx="5" fill="#253664"/>
<path d="M78.0203 25.104C76.9109 25.104 76.0896 25.4773 75.5563 26.224C75.0229 26.9493 74.7563 27.9093 74.7563 29.104V30.64C74.7563 31.8773 75.0229 32.8587 75.5563 33.584C76.1109 34.288 76.9643 34.64 78.1163 34.64C79.1616 34.64 79.9829 34.3093 80.5803 33.648C81.1776 32.9653 81.4763 31.9627 81.4763 30.64V29.008C81.4763 27.8133 81.1669 26.864 80.5483 26.16C79.9296 25.456 79.0869 25.104 78.0203 25.104ZM78.1803 44.72C76.0256 44.72 74.3403 44.2507 73.1243 43.312C71.9083 42.3947 71.2043 41.1573 71.0123 39.6H74.7883C74.9376 40.1547 75.2576 40.5813 75.7483 40.88C76.2389 41.2 76.9963 41.36 78.0203 41.36C79.2149 41.36 80.0896 41.0507 80.6443 40.432C81.1989 39.8133 81.4763 38.8213 81.4763 37.456V35.376C81.0709 36.2507 80.4736 36.912 79.6843 37.36C78.8949 37.7867 77.9776 38 76.9323 38C75.7589 38 74.7136 37.7333 73.7963 37.2C72.8789 36.6453 72.1429 35.8347 71.5883 34.768C71.0549 33.7013 70.7883 32.3893 70.7883 30.832V28.944C70.7883 27.3653 71.0549 26.0427 71.5883 24.976C72.1429 23.9093 72.8789 23.1093 73.7963 22.576C74.7136 22.0213 75.7589 21.744 76.9323 21.744C78.0416 21.744 78.9696 21.9787 79.7163 22.448C80.4843 22.896 81.0709 23.536 81.4763 24.368V22.064H85.3483V37.456C85.3483 39.0773 85.0603 40.4213 84.4843 41.488C83.9083 42.5547 83.0869 43.3547 82.0203 43.888C80.9536 44.4427 79.6736 44.72 78.1803 44.72ZM99.8773 38V34.928C99.4506 36.1013 98.8319 36.9653 98.0213 37.52C97.2319 38.0533 96.2719 38.32 95.1413 38.32C93.5199 38.32 92.2506 37.8507 91.3333 36.912C90.4373 35.9733 89.9893 34.5867 89.9893 32.752V22.064H93.8613V31.728C93.8613 32.8587 94.0746 33.7013 94.5013 34.256C94.9493 34.8107 95.6533 35.088 96.6133 35.088C97.2319 35.088 97.7866 34.9387 98.2773 34.64C98.7679 34.3413 99.1519 33.8827 99.4293 33.264C99.7279 32.6453 99.8773 31.8667 99.8773 30.928V22.064H103.749V38H99.8773ZM110.54 19.408C109.814 19.408 109.228 19.2053 108.78 18.8C108.332 18.3947 108.108 17.872 108.108 17.232C108.108 16.5707 108.332 16.0373 108.78 15.632C109.228 15.2267 109.814 15.024 110.54 15.024C111.265 15.024 111.852 15.2267 112.3 15.632C112.748 16.0373 112.972 16.5707 112.972 17.232C112.972 17.872 112.748 18.3947 112.3 18.8C111.852 19.2053 111.265 19.408 110.54 19.408ZM108.62 38V22.064H112.46V38H108.62ZM123.834 25.104C122.725 25.104 121.904 25.4773 121.37 26.224C120.837 26.9493 120.57 27.9093 120.57 29.104V30.96C120.57 32.1973 120.837 33.1787 121.37 33.904C121.925 34.608 122.778 34.96 123.93 34.96C124.976 34.96 125.797 34.6293 126.394 33.968C126.992 33.2853 127.29 32.2827 127.29 30.96V29.008C127.29 27.8133 126.981 26.864 126.362 26.16C125.744 25.456 124.901 25.104 123.834 25.104ZM127.29 38V35.696C126.864 36.5707 126.256 37.232 125.466 37.68C124.698 38.1067 123.781 38.32 122.714 38.32C121.562 38.32 120.528 38.0533 119.61 37.52C118.693 36.9653 117.957 36.1547 117.402 35.088C116.869 34.0213 116.602 32.7093 116.602 31.152V28.944C116.602 27.3653 116.869 26.0427 117.402 24.976C117.957 23.9093 118.693 23.1093 119.61 22.576C120.528 22.0213 121.562 21.744 122.714 21.744C123.845 21.744 124.784 21.9787 125.53 22.448C126.298 22.896 126.885 23.536 127.29 24.368V14.64H131.162V38H127.29ZM149.242 33.2C149.007 34.8213 148.282 36.08 147.066 36.976C145.871 37.872 144.314 38.32 142.394 38.32C140.26 38.32 138.532 37.712 137.21 36.496C135.908 35.28 135.258 33.4987 135.258 31.152V28.912C135.258 26.5867 135.908 24.816 137.21 23.6C138.511 22.3627 140.26 21.744 142.458 21.744C144.57 21.744 146.244 22.3733 147.482 23.632C148.719 24.8907 149.338 26.7147 149.338 29.104V30.928H139.226C139.247 31.1413 139.268 31.3547 139.29 31.568C139.311 31.76 139.332 31.9627 139.354 32.176C139.482 33.0933 139.812 33.808 140.346 34.32C140.879 34.832 141.636 35.088 142.618 35.088C142.682 35.088 142.735 35.088 142.778 35.088C142.842 35.0667 142.895 35.056 142.938 35.056C143.684 35.0133 144.26 34.8213 144.666 34.48C145.071 34.1173 145.338 33.6907 145.466 33.2H149.242ZM139.226 28.464L139.61 28.56H145.626C145.562 27.3227 145.284 26.416 144.794 25.84C144.303 25.2427 143.524 24.944 142.458 24.944C141.412 24.944 140.623 25.264 140.09 25.904C139.578 26.5227 139.29 27.376 139.226 28.464ZM155.194 38.32C154.468 38.32 153.871 38.096 153.402 37.648C152.954 37.2 152.73 36.624 152.73 35.92C152.73 35.216 152.954 34.6507 153.402 34.224C153.871 33.7973 154.468 33.584 155.194 33.584C155.919 33.584 156.506 33.7973 156.954 34.224C157.402 34.6507 157.626 35.216 157.626 35.92C157.626 36.624 157.402 37.2 156.954 37.648C156.506 38.096 155.919 38.32 155.194 38.32ZM165.772 29.264V38H161.932V22.064H165.772V24.848C166.284 23.7813 166.945 23.0027 167.756 22.512C168.567 22 169.484 21.744 170.508 21.744C171.681 21.744 172.652 22 173.42 22.512C174.188 23.0027 174.743 23.76 175.084 24.784C175.66 23.7387 176.385 22.9707 177.26 22.48C178.156 21.9893 179.159 21.744 180.268 21.744C181.847 21.744 183.073 22.224 183.948 23.184C184.844 24.144 185.292 25.5627 185.292 27.44V38H181.42V28.496C181.42 27.344 181.217 26.4907 180.812 25.936C180.407 25.3813 179.735 25.104 178.796 25.104C178.199 25.104 177.655 25.264 177.164 25.584C176.673 25.8827 176.279 26.3413 175.98 26.96C175.681 27.5573 175.532 28.3253 175.532 29.264V38H171.66V28.496C171.66 27.344 171.457 26.4907 171.052 25.936C170.647 25.3813 169.975 25.104 169.036 25.104C168.439 25.104 167.895 25.264 167.404 25.584C166.935 25.8827 166.54 26.3413 166.22 26.96C165.921 27.5573 165.772 28.3253 165.772 29.264ZM203.148 33.2C202.913 34.8213 202.188 36.08 200.972 36.976C199.777 37.872 198.22 38.32 196.3 38.32C194.167 38.32 192.439 37.712 191.116 36.496C189.815 35.28 189.164 33.4987 189.164 31.152V28.912C189.164 26.5867 189.815 24.816 191.116 23.6C192.417 22.3627 194.167 21.744 196.364 21.744C198.476 21.744 200.151 22.3733 201.388 23.632C202.625 24.8907 203.244 26.7147 203.244 29.104V30.928H193.132C193.153 31.1413 193.175 31.3547 193.196 31.568C193.217 31.76 193.239 31.9627 193.26 32.176C193.388 33.0933 193.719 33.808 194.252 34.32C194.785 34.832 195.543 35.088 196.524 35.088C196.588 35.088 196.641 35.088 196.684 35.088C196.748 35.0667 196.801 35.056 196.844 35.056C197.591 35.0133 198.167 34.8213 198.572 34.48C198.977 34.1173 199.244 33.6907 199.372 33.2H203.148ZM193.132 28.464L193.516 28.56H199.532C199.468 27.3227 199.191 26.416 198.7 25.84C198.209 25.2427 197.431 24.944 196.364 24.944C195.319 24.944 194.529 25.264 193.996 25.904C193.484 26.5227 193.196 27.376 193.132 28.464Z" fill="#253664"/>
</svg>
